<svg width="17" height="17" viewBox="0 0 17 17" fill="none" xmlns="http://www.w3.org/2000/svg">
<path id="Vector" d="M7.43712 15.9381C7.43712 16.5248 7.91327 17 8.5 17C9.08673 17 9.56288 16.5248 9.56288 15.9381V9.56288H15.9381C16.5248 9.56288 17 9.08673 17 8.5C17 7.91327 16.5248 7.43712 15.9381 7.43712H9.56288V1.06188C9.56288 0.475159 9.08673 0 8.5 0C7.91327 0 7.43712 0.475159 7.43712 1.06188V7.43712H1.06188C0.475159 7.43712 0 7.91327 0 8.5C0 9.08673 0.475159 9.56288 1.06188 9.56288H7.43712V15.9381Z" fill="#222222"/>
</svg>
