<svg width="129" height="27" viewBox="0 0 129 27" fill="none" xmlns="http://www.w3.org/2000/svg">
<path d="M1.42 20V5.9H10.94V8.32H4.52V11.76H10.5V14.18H4.52V20H1.42ZM15.9128 20.22C15.0861 20.22 14.3995 20.0667 13.8528 19.76C13.3061 19.4533 12.8995 18.9933 12.6328 18.38C12.3795 17.7533 12.2528 16.98 12.2528 16.06V10.18H15.2728V16.14C15.2728 16.5267 15.3261 16.8533 15.4328 17.12C15.5395 17.3733 15.6995 17.5667 15.9128 17.7C16.1395 17.82 16.4261 17.88 16.7728 17.88C17.1595 17.88 17.4995 17.7933 17.7928 17.62C18.0861 17.4333 18.3128 17.1733 18.4728 16.84C18.6461 16.5067 18.7328 16.1133 18.7328 15.66V10.18H21.7528V20H18.8128V18.08H19.1128C18.8195 18.76 18.3995 19.2867 17.8528 19.66C17.3061 20.0333 16.6595 20.22 15.9128 20.22ZM28.9097 20.22C27.5097 20.22 26.4697 19.88 25.7897 19.2C25.1097 18.52 24.7697 17.52 24.7697 16.2V12.44H22.9097V10.18H24.7697V7.3H27.7897V10.18H30.6897V12.44H27.7897V16.08C27.7897 16.64 27.9164 17.06 28.1697 17.34C28.4364 17.62 28.8564 17.76 29.4297 17.76C29.603 17.76 29.783 17.74 29.9697 17.7C30.1697 17.66 30.383 17.6067 30.6097 17.54L31.0497 19.74C30.7697 19.8867 30.4364 20 30.0497 20.08C29.663 20.1733 29.283 20.22 28.9097 20.22ZM35.7956 20.22C34.969 20.22 34.2823 20.0667 33.7356 19.76C33.189 19.4533 32.7823 18.9933 32.5156 18.38C32.2623 17.7533 32.1356 16.98 32.1356 16.06V10.18H35.1556V16.14C35.1556 16.5267 35.209 16.8533 35.3156 17.12C35.4223 17.3733 35.5823 17.5667 35.7956 17.7C36.0223 17.82 36.309 17.88 36.6556 17.88C37.0423 17.88 37.3823 17.7933 37.6756 17.62C37.969 17.4333 38.1956 17.1733 38.3556 16.84C38.529 16.5067 38.6156 16.1133 38.6156 15.66V10.18H41.6356V20H38.6956V18.08H38.9956C38.7023 18.76 38.2823 19.2867 37.7356 19.66C37.189 20.0333 36.5423 20.22 35.7956 20.22ZM43.9725 20V10.18H46.9325V12.58H46.7325C46.8925 11.78 47.2392 11.1667 47.7725 10.74C48.3192 10.3 49.0392 10.0467 49.9325 9.98L50.8125 9.92L50.9925 12.46L49.2925 12.64C48.5325 12.7067 47.9658 12.9267 47.5925 13.3C47.2325 13.6733 47.0525 14.2133 47.0525 14.92V20H43.9725ZM57.1389 20.22C55.9789 20.22 54.9789 20.0133 54.1389 19.6C53.3122 19.1733 52.6722 18.58 52.2189 17.82C51.7789 17.0467 51.5589 16.14 51.5589 15.1C51.5589 14.0867 51.7722 13.2 52.1989 12.44C52.6256 11.6667 53.2189 11.0667 53.9789 10.64C54.7522 10.2 55.6256 9.98 56.5989 9.98C57.5589 9.98 58.3856 10.1867 59.0789 10.6C59.7722 11 60.3056 11.5733 60.6789 12.32C61.0656 13.0667 61.2589 13.9533 61.2589 14.98V15.74H54.0389V14.18H59.0789L58.7589 14.46C58.7589 13.6467 58.5789 13.0333 58.2189 12.62C57.8722 12.1933 57.3722 11.98 56.7189 11.98C56.2256 11.98 55.8056 12.0933 55.4589 12.32C55.1122 12.5467 54.8456 12.8733 54.6589 13.3C54.4722 13.7267 54.3789 14.24 54.3789 14.84V15C54.3789 15.68 54.4789 16.24 54.6789 16.68C54.8922 17.1067 55.2056 17.4267 55.6189 17.64C56.0456 17.8533 56.5722 17.96 57.1989 17.96C57.7322 17.96 58.2722 17.88 58.8189 17.72C59.3656 17.56 59.8589 17.3133 60.2989 16.98L61.0989 19C60.6056 19.3733 59.9989 19.6733 59.2789 19.9C58.5722 20.1133 57.8589 20.22 57.1389 20.22ZM68.8419 20V5.9H75.2819C76.3352 5.9 77.2285 6.08 77.9619 6.44C78.6952 6.8 79.2485 7.31333 79.6219 7.98C80.0085 8.64667 80.2019 9.45333 80.2019 10.4C80.2019 11.3467 80.0085 12.16 79.6219 12.84C79.2485 13.5067 78.6952 14.02 77.9619 14.38C77.2285 14.74 76.3352 14.92 75.2819 14.92H71.9419V20H68.8419ZM71.9419 12.52H74.7619C75.5619 12.52 76.1685 12.34 76.5819 11.98C77.0085 11.62 77.2219 11.0933 77.2219 10.4C77.2219 9.70667 77.0085 9.18667 76.5819 8.84C76.1685 8.49333 75.5619 8.32 74.7619 8.32H71.9419V12.52ZM84.7339 20.22C84.0139 20.22 83.3672 20.08 82.7939 19.8C82.2206 19.52 81.7739 19.14 81.4539 18.66C81.1339 18.18 80.9739 17.64 80.9739 17.04C80.9739 16.32 81.1606 15.7533 81.5339 15.34C81.9072 14.9133 82.5139 14.6133 83.3539 14.44C84.1939 14.2533 85.3072 14.16 86.6939 14.16H87.7539V15.72H86.7139C86.1939 15.72 85.7539 15.74 85.3939 15.78C85.0472 15.82 84.7606 15.8933 84.5339 16C84.3072 16.0933 84.1406 16.2133 84.0339 16.36C83.9406 16.5067 83.8939 16.6933 83.8939 16.92C83.8939 17.2933 84.0206 17.6 84.2739 17.84C84.5406 18.08 84.9206 18.2 85.4139 18.2C85.8006 18.2 86.1406 18.1133 86.4339 17.94C86.7406 17.7533 86.9806 17.5067 87.1539 17.2C87.3272 16.88 87.4139 16.52 87.4139 16.12V13.82C87.4139 13.2333 87.2806 12.82 87.0139 12.58C86.7472 12.3267 86.2939 12.2 85.6539 12.2C85.1206 12.2 84.5539 12.2867 83.9539 12.46C83.3672 12.62 82.7806 12.8667 82.1939 13.2L81.3739 11.18C81.7206 10.94 82.1406 10.7333 82.6339 10.56C83.1406 10.3733 83.6672 10.2333 84.2139 10.14C84.7606 10.0333 85.2806 9.98 85.7739 9.98C86.8006 9.98 87.6406 10.1333 88.2939 10.44C88.9606 10.7333 89.4606 11.1933 89.7939 11.82C90.1272 12.4333 90.2939 13.2267 90.2939 14.2V20H87.4739V18.02H87.6139C87.5339 18.4733 87.3606 18.8667 87.0939 19.2C86.8406 19.52 86.5139 19.7733 86.1139 19.96C85.7139 20.1333 85.2539 20.22 84.7339 20.22ZM93.2091 23.6L95.3691 18.86V20.1L91.0491 10.18H94.2291L97.0091 17.22H96.3691L99.2291 10.18H102.229L96.2891 23.6H93.2091ZM106.678 20.22C106.104 20.22 105.551 20.1733 105.018 20.08C104.484 19.9867 103.998 19.86 103.558 19.7C103.118 19.54 102.731 19.34 102.398 19.1L103.118 17.14C103.451 17.34 103.811 17.52 104.198 17.68C104.598 17.8267 105.011 17.94 105.438 18.02C105.864 18.1 106.284 18.14 106.698 18.14C107.271 18.14 107.684 18.0533 107.938 17.88C108.204 17.6933 108.338 17.4533 108.338 17.16C108.338 16.8933 108.251 16.6933 108.078 16.56C107.904 16.4267 107.651 16.3333 107.318 16.28L105.218 15.9C104.391 15.7533 103.751 15.4533 103.298 15C102.858 14.5333 102.638 13.94 102.638 13.22C102.638 12.5533 102.824 11.98 103.198 11.5C103.571 11.0067 104.084 10.6333 104.738 10.38C105.404 10.1133 106.158 9.98 106.998 9.98C107.478 9.98 107.944 10.02 108.398 10.1C108.851 10.18 109.278 10.3 109.678 10.46C110.091 10.62 110.458 10.8333 110.778 11.1L110.018 13.04C109.764 12.84 109.464 12.6667 109.118 12.52C108.771 12.3733 108.418 12.26 108.058 12.18C107.698 12.0867 107.358 12.04 107.038 12.04C106.438 12.04 106.004 12.14 105.738 12.34C105.471 12.5267 105.338 12.7667 105.338 13.06C105.338 13.2867 105.411 13.48 105.558 13.64C105.718 13.7867 105.958 13.8867 106.278 13.94L108.378 14.32C109.244 14.4667 109.904 14.76 110.358 15.2C110.811 15.6267 111.038 16.2133 111.038 16.96C111.038 17.64 110.858 18.2267 110.498 18.72C110.138 19.2 109.631 19.5733 108.978 19.84C108.324 20.0933 107.558 20.22 106.678 20.22Z" fill="#4880FF"/>
</svg>
