<svg width="36" height="28" viewBox="0 0 36 28" fill="none" xmlns="http://www.w3.org/2000/svg">
<g id="Cart">
<path id="Vector" d="M31.5806 20.9935H10.9022L11.9108 19.2029C12.0018 19.0415 12.0373 18.8554 12.012 18.6724L9.532 0.738673C9.50376 0.533937 9.40121 0.346249 9.24336 0.210415C9.0855 0.074582 8.88306 -0.000178178 8.67358 3.18895e-07H1.36557C1.136 3.18895e-07 0.915844 0.0899479 0.753519 0.250055C0.591193 0.410163 0.5 0.627316 0.5 0.853742C0.5 1.08017 0.591193 1.29732 0.753519 1.45743C0.915844 1.61754 1.136 1.70748 1.36557 1.70748H7.9164L10.2561 18.6201L8.67283 21.4319C8.59942 21.5619 8.56175 21.7086 8.56354 21.8574C8.56534 22.0062 8.60654 22.152 8.68306 22.2802C8.75959 22.4085 8.86878 22.5148 8.9998 22.5886C9.13082 22.6624 9.27913 22.7012 9.43001 22.701H11.3644C10.9713 23.1772 10.7232 23.7536 10.6488 24.3633C10.5744 24.973 10.6769 25.591 10.9442 26.1456C11.2115 26.7002 11.6327 27.1687 12.159 27.4967C12.6854 27.8247 13.2952 27.9988 13.9178 27.9988C14.5404 27.9988 15.1502 27.8247 15.6765 27.4967C16.2029 27.1687 16.6241 26.7002 16.8914 26.1456C17.1587 25.591 17.2611 24.973 17.1867 24.3633C17.1124 23.7536 16.8643 23.1772 16.4712 22.701H25.1893C24.7961 23.1772 24.5478 23.7537 24.4733 24.3635C24.3988 24.9733 24.5011 25.5915 24.7684 26.1462C25.0357 26.701 25.457 27.1696 25.9835 27.4977C26.5099 27.8258 27.1199 28 27.7426 28C28.3653 28 28.9753 27.8258 29.5017 27.4977C30.0281 27.1696 30.4494 26.701 30.7167 26.1462C30.984 25.5915 31.0863 24.9733 31.0118 24.3635C30.9373 23.7537 30.6891 23.1772 30.2958 22.701H31.5806C31.8102 22.701 32.0303 22.611 32.1927 22.4509C32.355 22.2908 32.4462 22.0737 32.4462 21.8472C32.4462 21.6208 32.355 21.4037 32.1927 21.2436C32.0303 21.0835 31.8102 20.9935 31.5806 20.9935ZM13.9178 26.2886C13.6093 26.2885 13.3077 26.1982 13.0513 26.0291C12.7948 25.86 12.5949 25.6196 12.4769 25.3385C12.3589 25.0574 12.328 24.748 12.3883 24.4496C12.4485 24.1511 12.5971 23.877 12.8153 23.6619C13.0334 23.4467 13.3114 23.3002 13.614 23.2409C13.9166 23.1816 14.2302 23.2121 14.5152 23.3285C14.8002 23.445 15.0438 23.6422 15.2152 23.8952C15.3866 24.1482 15.4781 24.4457 15.4781 24.75C15.4777 25.158 15.3131 25.5491 15.0206 25.8376C14.7281 26.1261 14.3314 26.2883 13.9178 26.2886ZM27.7428 26.2886C27.4342 26.2886 27.1327 26.1983 26.8761 26.0293C26.6196 25.8602 26.4197 25.6199 26.3016 25.3388C26.1835 25.0576 26.1526 24.7483 26.2128 24.4498C26.273 24.1513 26.4216 23.8772 26.6397 23.662C26.8579 23.4468 27.1359 23.3003 27.4384 23.2409C27.741 23.1816 28.0547 23.212 28.3397 23.3285C28.6247 23.4449 28.8684 23.6422 29.0398 23.8952C29.2112 24.1482 29.3027 24.4457 29.3027 24.75C29.3023 25.1579 29.1378 25.549 28.8453 25.8375C28.5529 26.1259 28.1564 26.2882 27.7428 26.2886ZM35.4817 3.32291L32.2904 18.7819C32.2506 18.975 32.1444 19.1485 31.9897 19.2731C31.835 19.3977 31.6415 19.4658 31.4417 19.4657H14.3562C14.1475 19.4658 13.9458 19.3916 13.7882 19.2567C13.6306 19.1218 13.5278 18.9353 13.4986 18.7315L11.2748 3.27132C11.2573 3.15014 11.2663 3.02666 11.3014 2.90925C11.3365 2.79184 11.3968 2.68325 11.4782 2.59083C11.5596 2.49842 11.6601 2.42435 11.7731 2.37364C11.8861 2.32293 12.0087 2.29677 12.1328 2.29694H34.6334C34.7619 2.29679 34.8888 2.32485 35.0049 2.37908C35.121 2.43332 35.2234 2.51236 35.3047 2.61049C35.386 2.70861 35.4441 2.82335 35.4748 2.94638C35.5056 3.06942 35.5082 3.19765 35.4824 3.3218L35.4817 3.32291Z" fill="white"/>
</g>
</svg>
