<svg width="22" height="22" viewBox="0 0 22 22" fill="none" xmlns="http://www.w3.org/2000/svg">
<g id="Out">
<g id="Group">
<g id="Group_2">
<path id="Vector" d="M10.9635 20.1359H2.74086C2.23653 20.1359 1.82725 19.7266 1.82725 19.2223V2.77703C1.82725 2.27271 2.23657 1.86343 2.74086 1.86343H10.9635C11.4687 1.86343 11.8771 1.45505 11.8771 0.949823C11.8771 0.444595 11.4687 0.0361328 10.9635 0.0361328H2.74086C1.22973 0.0361328 0 1.2659 0 2.77703V19.2223C0 20.7334 1.22973 21.9631 2.74086 21.9631H10.9635C11.4687 21.9631 11.8771 21.5547 11.8771 21.0495C11.8771 20.5443 11.4687 20.1359 10.9635 20.1359Z" fill="white"/>
</g>
</g>
<g id="Group_3">
<g id="Group_4">
<path id="Vector_2" d="M21.7278 10.3473L16.1729 4.86557C15.8148 4.51107 15.2356 4.51567 14.8811 4.87472C14.5266 5.23377 14.5302 5.81208 14.8902 6.16658L18.8599 10.0842H8.22256C7.71734 10.0842 7.30896 10.4926 7.30896 10.9978C7.30896 11.503 7.71734 11.9114 8.22256 11.9114H18.8599L14.8902 15.829C14.5303 16.1835 14.5275 16.7618 14.8811 17.1209C15.0601 17.3018 15.2958 17.3931 15.5316 17.3931C15.7636 17.3931 15.9957 17.3054 16.1729 17.13L21.7278 11.6482C21.9014 11.4765 22 11.2426 22 10.9977C22 10.753 21.9023 10.52 21.7278 10.3473Z" fill="white"/>
</g>
</g>
</g>
</svg>
