<svg width="35" height="35" viewBox="0 0 35 35" fill="none" xmlns="http://www.w3.org/2000/svg">
<path d="M0.402534 33.9548C0.516435 34.0667 0.651696 34.1554 0.800581 34.216C0.949467 34.2765 1.10906 34.3077 1.27023 34.3077C1.4314 34.3077 1.59099 34.2765 1.73988 34.216C1.88876 34.1554 2.02402 34.0667 2.13792 33.9548L17.2107 19.1687L32.2896 33.9548C32.5197 34.1806 32.8318 34.3074 33.1573 34.3074C33.4827 34.3074 33.7948 34.1806 34.0249 33.9548C34.2551 33.7291 34.3844 33.4229 34.3844 33.1036C34.3844 32.7843 34.2551 32.4782 34.0249 32.2524L18.9461 17.4663L34.0188 2.67411C34.2489 2.44836 34.3782 2.14217 34.3782 1.82291C34.3782 1.50365 34.2489 1.19747 34.0188 0.971717C33.7887 0.745966 33.4766 0.619141 33.1511 0.619141C32.8257 0.619141 32.5136 0.745966 32.2834 0.971717L17.2107 15.7639L2.13179 0.977733C1.89717 0.780633 1.59538 0.67764 1.28672 0.689336C0.978058 0.701031 0.685263 0.826554 0.466843 1.04082C0.248424 1.25509 0.120468 1.54231 0.108546 1.84511C0.0966237 2.1479 0.201613 2.44395 0.402534 2.67411L15.4753 17.4663L0.402534 32.2584C0.174111 32.4838 0.0458984 32.7888 0.0458984 33.1066C0.0458984 33.4245 0.174111 33.7294 0.402534 33.9548Z" fill="black"/>
</svg>
