<svg width="25" height="30" viewBox="0 0 25 30" fill="none" xmlns="http://www.w3.org/2000/svg">
<g id="Group 103">
<path id="Vector" d="M17.0011 5.42969H3.05837C1.75009 5.42969 0.6875 6.46969 0.6875 7.75015V27.3298C0.6875 28.6103 1.75009 29.6503 3.05837 29.6503H17.0011C18.3094 29.6503 19.3719 28.6103 19.3719 27.3298V7.75015C19.3658 6.46969 18.3032 5.42969 17.0011 5.42969ZM17.7074 27.3238C17.7074 27.7085 17.388 28.0211 16.9949 28.0211H3.05223C2.65913 28.0211 2.33974 27.7085 2.33974 27.3238V7.75015C2.33974 7.36541 2.65913 7.05281 3.05223 7.05281H16.9949C17.388 7.05281 17.7074 7.36541 17.7074 7.75015V27.3238Z" fill="#BABABA"/>
<path id="Vector_2" d="M21.933 0.583984H8.5067C7.24687 0.583984 6.22363 1.62398 6.22363 2.90445C6.22363 3.35531 6.57851 3.71601 7.02211 3.71601C7.46571 3.71601 7.82059 3.35531 7.82059 2.90445C7.82059 2.51971 8.12816 2.20711 8.5067 2.20711H21.933C22.3115 2.20711 22.6191 2.51971 22.6191 2.90445V22.4841C22.6191 22.8688 22.3115 23.1814 21.933 23.1814C21.4894 23.1814 21.1345 23.5421 21.1345 23.993C21.1345 24.4439 21.4894 24.8046 21.933 24.8046C23.1928 24.8046 24.2161 23.7646 24.2161 22.4841V2.90445C24.2161 1.62398 23.1928 0.583984 21.933 0.583984Z" fill="#BABABA"/>
</g>
</svg>
