<svg width="15" height="22" viewBox="0 0 15 22" fill="none" xmlns="http://www.w3.org/2000/svg">
<path id="Vector" d="M13.8462 4.92869H11.3077C11.0769 4.06617 10.6154 3.20365 10.1538 2.46435H13.8462C14.5385 2.46435 15 1.97148 15 1.23217C15 0.492869 14.5385 0 13.8462 0H1.15385C0.461538 0 0 0.492869 0 1.23217C0 1.97148 0.461538 2.46435 1.15385 2.46435H5.19231C6.69231 2.46435 8.19231 3.45008 8.76923 4.92869H1.15385C0.461538 4.92869 0 5.42156 0 6.16086C0 6.90017 0.461538 7.39304 1.15385 7.39304H9.11538C8.88461 9.48773 7.15385 11.0896 5.19231 11.0896H1.15385H1.03846C0.923077 11.0896 0.923077 11.0896 0.807692 11.0896C0.692307 11.0896 0.692308 11.2128 0.576923 11.2128C0.576923 11.2128 0.461539 11.2128 0.461539 11.336C0.346154 11.4592 0.230769 11.5824 0.230769 11.7056C0.230769 11.8289 0.230769 11.8289 0.230769 11.9521V12.1985V12.3217C0.230769 12.4449 0.346154 12.6914 0.346154 12.8146C0.346154 12.8146 0.346154 12.9378 0.461539 12.9378L7.38461 21.563C7.84615 22.0559 8.53846 22.1791 9 21.6862C9.46154 21.1934 9.57692 20.4541 9.11538 19.9612L3.69231 13.5539H5.19231C8.42308 13.5539 11.1923 10.8431 11.5385 7.39304H13.8462C14.5385 7.39304 15 6.90017 15 6.16086C15 5.42156 14.5385 4.92869 13.8462 4.92869Z" fill="black"/>
</svg>
