<svg width="35" height="36" viewBox="0 0 35 36" fill="none" xmlns="http://www.w3.org/2000/svg">
<g id="Group">
<g id="Group_2">
<g id="Group_3">
<g id="Group_4">
<g id="Group_5">
<path id="Vector" d="M15.9138 6.7265C15.7485 6.7265 15.5854 6.65062 15.4798 6.50715C14.9902 5.842 14.1191 5.07896 12.7483 5.22535C11.1345 5.39725 9.93606 4.88365 9.21475 4.42259C8.96426 4.26247 8.89103 3.92962 9.05108 3.67912C9.21113 3.42856 9.54412 3.3554 9.79454 3.51545C10.3707 3.88363 11.3311 4.29382 12.6343 4.15475C14.6124 3.94474 15.8094 5.13846 16.3469 5.86904C16.5231 6.10845 16.4719 6.44548 16.2324 6.6217C16.1363 6.69235 16.0246 6.7265 15.9138 6.7265Z" fill="#FFD064"/>
</g>
<g id="Group_6">
<path id="Vector_2" d="M10.2777 9.58528C10.1816 9.58528 10.0844 9.55964 9.9965 9.50564C9.74308 9.35012 9.66386 9.01866 9.81938 8.76524C10.5094 7.64112 11.7739 6.86853 13.4763 6.53101C14.7175 6.28498 15.759 6.35236 15.8026 6.35542C16.0993 6.37577 16.3232 6.63267 16.3029 6.92929C16.2825 7.2257 16.025 7.44797 15.7296 7.42958C15.6923 7.42707 12.037 7.21037 10.7369 9.32845C10.6353 9.49407 10.4585 9.58528 10.2777 9.58528Z" fill="#FFD064"/>
</g>
</g>
<g id="Group_7">
<g id="Group_8">
<path id="Vector_3" d="M18.3921 30.2132C27.2329 30.2132 32.1214 17.2454 18.1603 7.22963C17.8131 6.98046 17.6068 6.57932 17.6115 6.15192C17.6153 5.79872 17.7272 5.45583 17.9298 5.16646C18.5834 4.23312 19.5242 2.63652 20.0883 1.35054C20.2234 1.04256 20.0301 0.711313 19.6687 0.711313C18.8301 0.711382 18.8301 0.162598 17.9915 0.162598C17.1529 0.162598 17.1529 0.711382 16.3143 0.711382C15.5997 0.711382 15.3065 0.0965428 14.959 0.543737C13.9458 1.84783 17.4163 6.43383 17.4163 6.43383C2.08895 16.51 7.03101 30.2132 16.0805 30.2132H18.3921V30.2132Z" fill="#EABC6B"/>
<g id="Group_9">
<path id="Vector_4" d="M21.8676 6.43376C21.8676 6.43376 25.3896 1.8626 24.3769 0.551332C24.0317 0.104416 23.7374 0.711382 23.0235 0.711382C22.1848 0.711313 22.1848 0.162598 21.3461 0.162598C20.5074 0.162598 20.5074 0.711313 19.6688 0.711313C19.6275 0.711313 19.5898 0.709013 19.5524 0.706435C19.2154 2.15086 17.6969 4.40112 16.8279 5.60599C17.1701 6.10816 17.4165 6.4337 17.4165 6.4337C17.2121 6.5681 17.012 6.70328 16.8147 6.83894C31.459 16.9046 26.559 30.2131 17.6028 30.2131H23.2577C32.3346 30.2132 37.2461 16.5434 21.8676 6.43376Z" fill="#E8AE4D"/>
</g>
<g id="Group_10">
<path id="Vector_5" d="M22.5225 8.05966C20.476 8.57654 18.4542 8.57654 16.4073 8.05966C15.6949 7.87976 15.2911 7.07867 15.5474 6.35046C15.5503 6.34231 15.5531 6.33416 15.556 6.326C15.7709 5.71548 16.3806 5.37288 16.978 5.52289C18.6538 5.94361 20.2755 5.94375 21.9517 5.52289C22.5492 5.37288 23.1588 5.71548 23.3738 6.326C23.3767 6.33416 23.3795 6.34231 23.3824 6.35046C23.6388 7.07867 23.2349 7.87976 22.5225 8.05966Z" fill="#FFE07D"/>
</g>
</g>
</g>
</g>
<g id="Group_11">
<g id="Group_12">
<g id="Group_13">
<g id="Group_14">
<g id="Group_15">
<g id="Group_16">
<g id="Group_17">
<g id="Group_18">
<g id="Group_19">
<g id="Group_20">
<g id="Group_21">
<g id="Group_22">
<g id="Group_23">
<path id="Vector_6" d="M3.28027 32.564L11.0742 35.465C11.7361 35.7114 12.4367 35.8376 13.1431 35.8376H21.1753C22.2993 35.8376 23.4002 35.5182 24.3497 34.9165L34.4069 28.5437C35.0704 27.9545 35.1934 26.9644 34.6942 26.2308C34.148 25.4281 33.2445 25.2886 32.2503 25.7587L22.4587 30.07L22.4702 28.4814C22.3406 27.1774 21.3366 26.1309 20.0392 25.9474L14.0764 25.2609C12.7009 25.0662 12.0136 24.6053 10.8144 23.9038C9.17734 22.9462 7.31484 22.4414 5.41821 22.4414H3.28027V32.564Z" fill="#FFDDCE"/>
</g>
<path id="Vector_7" d="M10.6009 33.9193C11.2967 34.1783 12.0333 34.3109 12.7758 34.3109H21.2198C22.1188 34.3109 23.0034 34.1161 23.8148 33.7447L29.7193 30.0032C30.2679 29.6556 30.6161 29.0505 30.5983 28.4013C30.5888 28.057 30.4836 27.7124 30.2774 27.4095C30.2774 27.4095 30.0976 27.1014 29.9129 26.7879L22.4587 30.07L22.4702 28.4814C22.3406 27.1774 21.3366 26.1309 20.0392 25.9474L14.0764 25.2609C12.7009 25.0662 12.0136 24.6053 10.8144 23.9038C9.17734 22.9462 7.31484 22.4414 5.41821 22.4414H3.28027V31.1944L10.6009 33.9193Z" fill="#FFDDCE"/>
<path id="Vector_8" d="M34.6942 26.2307C34.1479 25.428 33.2444 25.2885 32.2502 25.7587L29.5569 26.9445C29.6874 27.151 29.7911 27.3158 29.7911 27.3158C30.2903 28.0494 30.1673 29.0395 29.5038 29.6287L23.6436 33.342C22.8718 33.6953 22.0303 33.8807 21.1751 33.8807H13.1431C12.4367 33.8807 11.7361 33.7545 11.0742 33.5081L3.28027 30.6071V32.5639L11.0742 35.465C11.7361 35.7113 12.4367 35.8375 13.1431 35.8375H19.7055H21.1753C22.2994 35.8375 23.4003 35.5181 24.3498 34.9164L34.4069 28.5437C35.0703 27.9545 35.1934 26.9643 34.6942 26.2307Z" fill="#FFCBBE"/>
<g id="Group_24">
<path id="Vector_9" d="M21.739 26.8447L21.7388 26.8831L21.7641 26.8719C21.7558 26.8627 21.7473 26.8539 21.739 26.8447Z" fill="#F5DBCC"/>
</g>
<g id="Group_25">
<g id="Group_26">
<g id="Group_27">
<path id="Vector_10" d="M22.4585 30.0689H16.3701C16.0728 30.0689 15.8318 29.8279 15.8318 29.5305C15.8318 29.2331 16.0727 28.9922 16.3701 28.9922H22.4664L22.4585 30.0689Z" fill="#FFCBBE"/>
</g>
</g>
</g>
</g>
</g>
<path id="Vector_11" d="M4.95727 34.1167C4.95727 34.6822 4.49886 35.1406 3.93335 35.1406H1.46215C0.896645 35.1406 0.438232 34.6822 0.438232 34.1167V21.5791C0.438232 21.0136 0.896645 20.5552 1.46215 20.5552H3.93335C4.49886 20.5552 4.95727 21.0136 4.95727 21.5791V34.1167Z" fill="#407093"/>
</g>
</g>
</g>
</g>
</g>
</g>
</g>
</g>
</g>
</g>
</g>
</g>
</svg>
