<svg width="34" height="34" viewBox="0 0 34 34" fill="none" xmlns="http://www.w3.org/2000/svg">
<g id="fi_10535976" clip-path="url(#clip0_624_115362)">
<g id="Icon">
<g id="Rupee">
<g id="Money">
<path id="Vector" d="M21.7959 0.0922375L0.0885062 21.7997C-0.031028 21.9192 -0.031028 22.113 0.0885062 22.2325L11.7634 33.9074C11.8829 34.0269 12.0767 34.0269 12.1962 33.9074L33.9037 12.2C34.0232 12.0804 34.0232 11.8866 33.9037 11.7671L22.2288 0.0922369C22.1093 -0.0272974 21.9155 -0.0272977 21.7959 0.0922375Z" fill="#76AB3A"/>
<path id="Vector_2" d="M22.0161 2.4668L31.5294 11.9801L11.9835 31.526L2.47022 22.0127L22.0161 2.4668Z" fill="#316729"/>
<path id="Vector_3" d="M23.9687 6.15031L28.1463 10.3279C27.9557 10.4182 27.7784 10.5431 27.6224 10.7038C26.9543 11.3898 26.9304 12.4961 27.5706 13.208C27.6463 13.2923 27.7279 13.368 27.8143 13.4351C27.9743 13.5593 27.9936 13.793 27.8508 13.9358L13.936 27.8505C13.7926 27.994 13.5595 27.9741 13.4353 27.814C13.3683 27.7277 13.2925 27.646 13.2082 27.5703C12.4963 26.9302 11.3893 26.9547 10.704 27.6221C10.6396 27.6852 10.5805 27.7516 10.5274 27.8207C10.4065 27.978 10.1728 27.9907 10.0327 27.8499L6.15122 23.9684C6.01044 23.8277 6.02305 23.5946 6.18044 23.4737C6.2495 23.4206 6.31591 23.3615 6.37899 23.2971C7.04704 22.6118 7.07095 21.5048 6.43079 20.7929C6.35509 20.7086 6.27341 20.6329 6.18708 20.5658C6.02704 20.4416 6.00778 20.2078 6.15056 20.0651L20.0647 6.15031C20.2081 6.00687 20.4412 6.0268 20.5654 6.18683C20.6324 6.27316 20.7081 6.35418 20.7925 6.43055C21.5043 7.0707 22.6113 7.0468 23.2966 6.37875C23.3611 6.31566 23.4202 6.24926 23.4733 6.18019C23.5942 6.02281 23.8279 6.01019 23.968 6.15097L23.9687 6.15031Z" fill="#76AB3A"/>
<g id="Group">
<path id="Vector_4" d="M16.9999 21.5873C19.5335 21.5873 21.5873 19.5335 21.5873 16.9999C21.5873 14.4664 19.5335 12.4126 16.9999 12.4126C14.4664 12.4126 12.4126 14.4664 12.4126 16.9999C12.4126 19.5335 14.4664 21.5873 16.9999 21.5873Z" fill="#316729"/>
<path id="Vector_5" d="M23.0769 12.4532C23.9216 12.4532 24.6063 11.7685 24.6063 10.9239C24.6063 10.0792 23.9216 9.39453 23.0769 9.39453C22.2323 9.39453 21.5476 10.0792 21.5476 10.9239C21.5476 11.7685 22.2323 12.4532 23.0769 12.4532Z" fill="#316729"/>
<path id="Vector_6" d="M10.9239 24.606C11.7685 24.606 12.4532 23.9213 12.4532 23.0767C12.4532 22.2321 11.7685 21.5474 10.9239 21.5474C10.0792 21.5474 9.39453 22.2321 9.39453 23.0767C9.39453 23.9213 10.0792 24.606 10.9239 24.606Z" fill="#316729"/>
</g>
</g>
<g id="Money_2">
<path id="Vector_7" d="M33.668 7.70312H0.332031C0.148655 7.70312 0 7.85178 0 8.03516V25.9648C0 26.1482 0.148655 26.2969 0.332031 26.2969H33.668C33.8513 26.2969 34 26.1482 34 25.9648V8.03516C34 7.85178 33.8513 7.70312 33.668 7.70312Z" fill="#92D449"/>
<path id="Vector_8" d="M32.0078 9.69531V24.3047H1.99219V9.69531H32.0078Z" fill="#45903A"/>
<path id="Vector_9" d="M30.6798 13.9878V20.0122C30.6798 20.2161 30.4985 20.3688 30.2966 20.3402C30.183 20.3243 30.0662 20.3177 29.9473 20.3216C28.9246 20.3555 28.0813 21.1809 28.0268 22.2023C28.0195 22.3371 28.0255 22.4686 28.0441 22.5967C28.0726 22.7973 27.9186 22.9766 27.716 22.9766H6.28476C6.08222 22.9766 5.92815 22.7973 5.95671 22.5967C5.9753 22.4686 5.98128 22.3364 5.97397 22.2023C5.91952 21.1803 5.07616 20.3555 4.05351 20.3216C3.93464 20.3177 3.81776 20.3243 3.70421 20.3402C3.50233 20.3688 3.32104 20.2161 3.32104 20.0122V13.9878C3.32104 13.7839 3.50233 13.6312 3.70421 13.6598C3.81776 13.6757 3.93464 13.6823 4.05351 13.6784C5.07616 13.6445 5.91952 12.8197 5.97397 11.7977C5.98128 11.6629 5.9753 11.5308 5.95671 11.4033C5.92815 11.2027 6.08222 11.0234 6.28476 11.0234H27.7154C27.9179 11.0234 28.072 11.2027 28.0434 11.4033C28.0255 11.5314 28.0189 11.6629 28.0262 11.7977C28.0806 12.8197 28.924 13.6445 29.9466 13.6784C30.0655 13.6823 30.1824 13.6757 30.2959 13.6598C30.4978 13.6312 30.6791 13.7839 30.6791 13.9878H30.6798Z" fill="#92D449"/>
<g id="Group_2">
<path id="Vector_10" d="M17 21.9805C19.7506 21.9805 21.9805 19.7506 21.9805 17C21.9805 14.2494 19.7506 12.0195 17 12.0195C14.2494 12.0195 12.0195 14.2494 12.0195 17C12.0195 19.7506 14.2494 21.9805 17 21.9805Z" fill="#45903A"/>
<path id="Vector_11" d="M26.3301 18.6602C27.247 18.6602 27.9902 17.9169 27.9902 17C27.9902 16.0831 27.247 15.3398 26.3301 15.3398C25.4132 15.3398 24.6699 16.0831 24.6699 17C24.6699 17.9169 25.4132 18.6602 26.3301 18.6602Z" fill="#45903A"/>
<path id="Vector_12" d="M7.66992 18.6602C8.5868 18.6602 9.33008 17.9169 9.33008 17C9.33008 16.0831 8.5868 15.3398 7.66992 15.3398C6.75304 15.3398 6.00977 16.0831 6.00977 17C6.00977 17.9169 6.75304 18.6602 7.66992 18.6602Z" fill="#45903A"/>
</g>
</g>
<path id="Icon_2" d="M19.1338 14.5986H18.147C18.2897 14.827 18.3821 15.0846 18.4239 15.3715H19.3961L19.1285 16.3975H18.4139C18.3396 16.8477 18.1669 17.2156 17.896 17.5012C17.625 17.7861 17.2405 18.0052 16.7418 18.1573L18.7154 20.5784V20.6515H16.8879L14.6567 17.9879L14.652 17.0496H15.7995C16.263 17.0396 16.5625 16.8225 16.6987 16.3982H14.5112L14.7788 15.3722H16.6601C16.5174 15.0641 16.2391 14.904 15.8241 14.8907H14.5165L14.8273 13.5732H19.4014L19.1338 14.5986Z" fill="#92D449"/>
</g>
</g>
</g>
<defs>
<clipPath id="clip0_624_115362">
<rect width="34" height="34" fill="white"/>
</clipPath>
</defs>
</svg>
