<svg width="39" height="40" viewBox="0 0 39 40" fill="none" xmlns="http://www.w3.org/2000/svg">
<g id="Frame 3">
<path id="Vector" d="M27.5695 14.4004L23.2747 17.467L25.329 18.9404C23.779 20.6373 21.747 21.8291 19.5005 22.3588C17.2541 22.8884 14.8985 22.7312 12.7439 21.9078C10.5893 21.0843 8.73675 19.6333 7.43019 17.7457C6.12364 15.8581 5.42432 13.6225 5.42432 11.3331C5.42432 9.04384 6.12364 6.8082 7.43019 4.92061C8.73675 3.03301 10.5893 1.58196 12.7439 0.758515C14.8985 -0.0649292 17.2541 -0.222156 19.5005 0.307537C21.747 0.837229 23.779 2.029 25.329 3.72594L23.2747 5.19258L27.5695 8.25986L23.2747 11.3265L27.5695 14.4004Z" fill="#FFCB52"/>
<g id="Group">
<path id="Vector_2" d="M28.9146 6.00049H30.2594V7.3338H28.9146V6.00049Z" fill="#FFCB52"/>
<path id="Vector_3" d="M31.6042 8.66699H32.9491V10.0003H31.6042V8.66699Z" fill="#FFCB52"/>
<path id="Vector_4" d="M26.8972 3.33398H28.2421V4.6673H26.8972V3.33398Z" fill="#FFCB52"/>
<path id="Vector_5" d="M28.2422 10.667H29.587V12.0003H28.2422V10.667Z" fill="#FFCB52"/>
<path id="Vector_6" d="M32.2766 12.0005H33.6215V13.3338H32.2766V12.0005Z" fill="#FFCB52"/>
<path id="Vector_7" d="M29.5869 14.667H30.9318V16.0003H29.5869V14.667Z" fill="#FFCB52"/>
<path id="Vector_8" d="M27.5696 17.334H28.9144V18.6673H27.5696V17.334Z" fill="#FFCB52"/>
</g>
<path id="Vector_9" d="M38.5463 25.1382L38.3889 25.0002C38.1449 24.7849 37.8297 24.666 37.503 24.666C37.1764 24.666 36.8611 24.7849 36.6171 25.0002L30.3433 30.5488C29.7666 31.0578 29.1052 31.4638 28.3886 31.7488L23.5982 33.6667C23.3549 33.7638 23.0882 33.7875 22.8314 33.735C22.5746 33.6824 22.3391 33.556 22.1545 33.3714L20.7713 31.9914L25.9645 29.8148C26.5104 29.4909 26.9658 29.0367 27.2892 28.4935C27.4213 28.2748 27.4875 28.0232 27.4799 27.7684C27.4722 27.5136 27.3911 27.2663 27.246 27.0558C27.1009 26.8453 26.898 26.6805 26.6614 26.5808C26.4247 26.4812 26.1642 26.4509 25.9107 26.4935L18.7063 27.7602C17.8597 27.9091 17.0503 28.219 16.3225 28.6728L13.7 30.3081C12.638 30.971 11.4086 31.3227 10.1536 31.3228H5.37939V38.6666L10.7978 38.126C11.6393 38.0421 12.4891 38.1178 13.302 38.3493L15.8572 39.0773C16.4541 39.2469 17.072 39.333 17.6929 39.3333H21.3301C22.2854 39.3325 23.2293 39.1279 24.0978 38.7333L30.7031 35.7407C31.6543 35.3093 32.4903 34.6629 33.144 33.8534L38.7043 26.9762C38.9204 26.708 39.0245 26.3679 38.9951 26.0259C38.9657 25.684 38.805 25.3662 38.5463 25.1382Z" fill="#FFC780"/>
<path id="Vector_10" d="M4.707 39.9998H0V30H4.707C4.88534 30 5.05638 30.0702 5.18248 30.1953C5.30859 30.3203 5.37943 30.4898 5.37943 30.6667V39.3332C5.37943 39.51 5.30859 39.6796 5.18248 39.8046C5.05638 39.9296 4.88534 39.9998 4.707 39.9998Z" fill="#6C8099"/>
<path id="Vector_11" d="M19.4615 8.24031H18.2769C18.1692 7.84826 17.9538 7.4562 17.7385 7.12016H19.4615C19.7846 7.12016 20 6.89613 20 6.56008C20 6.22403 19.7846 6 19.4615 6H13.5385C13.2154 6 13 6.22403 13 6.56008C13 6.89613 13.2154 7.12016 13.5385 7.12016H15.4231C16.1231 7.12016 16.8231 7.56822 17.0923 8.24031H13.5385C13.2154 8.24031 13 8.46435 13 8.80039C13 9.13644 13.2154 9.36047 13.5385 9.36047H17.2538C17.1462 10.3126 16.3385 11.0407 15.4231 11.0407H13.5385H13.4846C13.4308 11.0407 13.4308 11.0407 13.3769 11.0407C13.3231 11.0407 13.3231 11.0967 13.2692 11.0967C13.2692 11.0967 13.2154 11.0967 13.2154 11.1527C13.1615 11.2087 13.1077 11.2647 13.1077 11.3207C13.1077 11.3768 13.1077 11.3768 13.1077 11.4328V11.5448V11.6008C13.1077 11.6568 13.1615 11.7688 13.1615 11.8248C13.1615 11.8248 13.1615 11.8808 13.2154 11.8808L16.4462 15.8014C16.6615 16.0254 16.9846 16.0814 17.2 15.8574C17.4154 15.6333 17.4692 15.2973 17.2538 15.0733L14.7231 12.1609H15.4231C16.9308 12.1609 18.2231 10.9287 18.3846 9.36047H19.4615C19.7846 9.36047 20 9.13644 20 8.80039C20 8.46435 19.7846 8.24031 19.4615 8.24031Z" fill="white"/>
</g>
</svg>
