<svg width="30" height="15" viewBox="0 0 30 15" fill="none" xmlns="http://www.w3.org/2000/svg">
<g id="Group 1">
<path id="Vector" d="M28.5753 9.40045H28.5163C28.5179 8.80686 28.514 8.12228 28.4985 7.48029C28.4589 5.85886 26.8681 5.85047 26.8681 5.85047L25.8009 5.81144C25.365 5.14687 24.8014 4.26744 24.294 3.40672C23.4381 1.95498 22.4045 2.06725 22.4045 2.06725H18.7851V0.764236C18.7851 0.35291 18.4519 0.0193329 18.0402 0.0193329H7.59256C7.18156 0.0193329 6.84766 0.352588 6.84766 0.764236V12.0807C6.84766 12.4917 7.18123 12.8256 7.59256 12.8256H8.90719C9.2998 13.9521 10.3709 14.7612 11.6313 14.7612C12.8924 14.7612 13.9634 13.9521 14.3557 12.8256H15.41H18.0399H21.9606C22.3532 13.9521 23.4239 14.7612 24.685 14.7612C25.9454 14.7612 27.0168 13.9521 27.4091 12.8256H28.5747C28.9857 12.8256 29.3192 12.492 29.3192 12.0807V10.145C29.3199 9.73371 28.9866 9.40045 28.5753 9.40045ZM11.6316 13.2718C10.8619 13.2718 10.236 12.6456 10.236 11.8758C10.236 11.1061 10.8619 10.4799 11.6316 10.4799C12.4017 10.4799 13.0279 11.1061 13.0279 11.8758C13.0279 12.6456 12.4014 13.2718 11.6316 13.2718ZM20.0472 5.90112C19.7 5.90112 19.4181 5.56787 19.4181 5.15622V3.85353C19.4181 3.4422 19.7 3.10863 20.0472 3.10863C20.8195 3.10863 21.4344 3.10863 22.2061 3.10863C22.8513 3.10863 23.2545 3.91644 23.2545 3.91644C23.2545 3.91644 23.7575 4.75167 23.982 5.15622C24.213 5.55335 24.1814 5.90112 23.3526 5.90112H20.0472ZM24.6856 13.2718C23.9156 13.2718 23.2894 12.6456 23.2894 11.8758C23.2894 11.1061 23.9156 10.4799 24.6856 10.4799C25.4554 10.4799 26.0812 11.1061 26.0812 11.8758C26.0812 12.6456 25.455 13.2718 24.6856 13.2718Z" fill="#222222"/>
<g id="Group">
<g id="Group_2">
<path id="Vector_2" d="M5.39949 4.46783H0.744579C0.333577 4.46783 0 4.1349 0 3.72357C0 3.31224 0.333254 2.97867 0.744579 2.97867H5.39981C5.81049 2.97867 6.14407 3.31224 6.14407 3.72357C6.14407 4.1349 5.81049 4.46783 5.39949 4.46783Z" fill="#222222"/>
</g>
<g id="Group_3">
<path id="Vector_3" d="M5.39959 7.00852H2.53128C2.12028 7.00852 1.78638 6.67559 1.78638 6.26426C1.78638 5.85294 2.11995 5.51968 2.53128 5.51968H5.39959C5.81027 5.51968 6.14384 5.85294 6.14384 6.26426C6.14384 6.67559 5.81059 7.00852 5.39959 7.00852Z" fill="#222222"/>
</g>
<g id="Group_4">
<path id="Vector_4" d="M5.39946 9.54911H4.59907C4.18807 9.54911 3.85449 9.21586 3.85449 8.80453C3.85449 8.39321 4.18775 8.05963 4.59907 8.05963H5.39946C5.81014 8.05963 6.14372 8.39288 6.14372 8.80453C6.14372 9.21586 5.81046 9.54911 5.39946 9.54911Z" fill="#222222"/>
</g>
</g>
</g>
</svg>
