<svg width="18" height="16" viewBox="0 0 18 16" fill="none" xmlns="http://www.w3.org/2000/svg">
<path id="Vector" d="M17.3333 13.8182V10.9091C17.3333 10.7162 17.2572 10.5312 17.1218 10.3948C16.9864 10.2584 16.8027 10.1818 16.6111 10.1818C16.4196 10.1818 16.2359 10.2584 16.1004 10.3948C15.965 10.5312 15.8889 10.7162 15.8889 10.9091V13.8182C15.8889 14.0111 15.8128 14.1961 15.6774 14.3324C15.5419 14.4688 15.3582 14.5455 15.1667 14.5455H2.16667C1.97512 14.5455 1.79142 14.4688 1.65598 14.3324C1.52054 14.1961 1.44444 14.0111 1.44444 13.8182V10.9091C1.44444 10.7162 1.36835 10.5312 1.23291 10.3948C1.09747 10.2584 0.913768 10.1818 0.722222 10.1818C0.530677 10.1818 0.346977 10.2584 0.211534 10.3948C0.0760912 10.5312 0 10.7162 0 10.9091V13.8182C0 14.3968 0.228273 14.9518 0.634602 15.361C1.04093 15.7701 1.59203 16 2.16667 16H15.1667C15.7413 16 16.2924 15.7701 16.6987 15.361C17.1051 14.9518 17.3333 14.3968 17.3333 13.8182ZM12.7256 10.0218L9.11445 12.9309C8.98694 13.0324 8.82918 13.0876 8.66667 13.0876C8.50416 13.0876 8.3464 13.0324 8.21889 12.9309L4.60778 10.0218C4.4762 9.89675 4.39604 9.72651 4.38314 9.54477C4.37025 9.36303 4.42557 9.18304 4.53816 9.0404C4.65074 8.89777 4.8124 8.80289 4.99113 8.77454C5.16986 8.74618 5.35265 8.78641 5.50333 8.88727L7.94445 10.8509V0.727273C7.94445 0.534388 8.02054 0.349404 8.15598 0.213013C8.29142 0.0766233 8.47512 0 8.66667 0C8.85821 0 9.04191 0.0766233 9.17736 0.213013C9.3128 0.349404 9.38889 0.534388 9.38889 0.727273V10.8509L11.83 8.88727C11.9027 8.81814 11.9889 8.76498 12.0831 8.73114C12.1773 8.69731 12.2775 8.68355 12.3772 8.69072C12.477 8.6979 12.5742 8.72586 12.6626 8.77283C12.7511 8.81981 12.8289 8.88477 12.8911 8.9636C12.9534 9.04244 12.9986 9.13344 13.0241 9.23082C13.0496 9.3282 13.0547 9.42985 13.0392 9.52934C13.0236 9.62882 12.9877 9.72396 12.9337 9.80873C12.8797 9.89351 12.8088 9.96607 12.7256 10.0218Z" fill="white"/>
</svg>
