<svg width="27" height="24" viewBox="0 0 27 24" fill="none" xmlns="http://www.w3.org/2000/svg">
<g id="Group 69">
<path id="Vector" d="M24.8153 14.8731C24.4584 14.8731 24.1691 15.1387 24.1691 15.4664V20.7335C24.1678 21.7161 23.3007 22.5123 22.2303 22.5132H4.09722C3.02687 22.5123 2.15973 21.7161 2.15847 20.7335V5.27472C2.15973 4.29242 3.02687 3.4962 4.09722 3.49504H9.83521C10.1922 3.49504 10.4815 3.22948 10.4815 2.90182C10.4815 2.57439 10.1922 2.30859 9.83521 2.30859H4.09722C2.31347 2.31045 0.867986 3.63732 0.865967 5.27472V20.7338C0.867986 22.3712 2.31347 23.698 4.09722 23.6999H22.2303C24.0141 23.698 25.4596 22.3712 25.4616 20.7338V15.4664C25.4616 15.1387 25.1723 14.8731 24.8153 14.8731Z" fill="#F5F5F5"/>
<path id="Vector_2" d="M25.2055 0.781909C24.0698 -0.260636 22.2285 -0.260636 21.0928 0.781909L9.56327 11.3654C9.48425 11.4379 9.4272 11.5278 9.39741 11.6266L7.88125 16.6511C7.8189 16.8571 7.88226 17.0777 8.04685 17.2291C8.21169 17.3801 8.45202 17.4383 8.67644 17.3813L14.1501 15.9893C14.2577 15.962 14.3556 15.9096 14.4346 15.8371L25.9639 5.25334C27.0978 4.2101 27.0978 2.52126 25.9639 1.47802L25.2055 0.781909ZM10.9714 11.751L20.4074 3.089L23.4506 5.88248L14.0143 14.5445L10.9714 11.751ZM10.3635 12.8707L12.7948 15.1027L9.43174 15.958L10.3635 12.8707ZM25.05 4.41448L24.3647 5.04362L21.3212 2.24991L22.0069 1.62077C22.6377 1.04168 23.6606 1.04168 24.2915 1.62077L25.05 2.31688C25.6799 2.89666 25.6799 3.83493 25.05 4.41448Z" fill="#F5F5F5"/>
</g>
</svg>
