<svg width="55" height="54" viewBox="0 0 55 54" fill="none" xmlns="http://www.w3.org/2000/svg">
<g id="Facebook">
<circle id="Ellipse 7" cx="27.4211" cy="26.6911" r="26.4977" stroke="black" stroke-width="0.387737"/>
<path id="Vector" d="M32.2427 20.0595H34.6541C34.9861 20.0595 35.2569 19.7887 35.2569 19.4567V14.6339C35.2569 14.3018 34.9861 14.031 34.6541 14.031H31.037C27.381 14.031 24.4056 17.0064 24.4056 20.6624V23.7249H20.1856C19.8536 23.7249 19.5828 23.9957 19.5828 24.3277V29.1023C19.5828 29.4344 19.8536 29.7052 20.1856 29.7052H23.9863V38.748C23.9863 39.08 24.2571 39.3508 24.5892 39.3508H29.6227C29.9547 39.3508 30.2255 39.08 30.2255 38.748V29.7052H33.3965C33.6709 29.7052 33.9122 29.5215 33.9817 29.253L35.2392 24.4302C35.2875 24.2489 35.2487 24.057 35.1333 23.9086C35.0191 23.7614 34.8436 23.6731 34.6576 23.6731H30.4376V21.8645C30.4376 20.8672 31.2489 20.056 32.2462 20.056L32.2427 20.0595ZM29.8313 24.8824H33.8734L32.9303 28.4995H29.6206C29.2885 28.4995 29.0177 28.7703 29.0177 29.1023V38.1451H25.1899V29.1023C25.1899 28.7703 24.9191 28.4995 24.5871 28.4995H20.7864V24.9306H25.0064C25.3384 24.9306 25.6092 24.6598 25.6092 24.3277V20.6624C25.6092 17.6717 28.0418 15.2367 31.0349 15.2367H34.0491V18.8538H32.2406C30.5792 18.8538 29.2263 20.2067 29.2263 21.8681V24.2795C29.2263 24.6116 29.4971 24.8824 29.8292 24.8824H29.8313Z" fill="black"/>
</g>
</svg>
