<svg width="344" height="189" viewBox="0 0 344 189" fill="none" xmlns="http://www.w3.org/2000/svg">
<g filter="url(#filter0_d_811_99017)">
<path d="M15.8501 0.876477C6.73109 2.46386 4.15093 9.1268 4.00073 12.2598L4 70.0519V70.2296V71.5873C10.7224 70.4249 24.4861 71.3675 25.7619 84.4367C27.0377 97.5059 12.0356 100.355 4.37502 100.146C4.2452 118.537 4.06346 157.897 4.37502 168.201C4.68657 178.506 13.8514 180.877 18.3949 180.774C116.281 180.945 314.709 181.183 325.338 180.774C335.967 180.366 339.218 172.012 339.515 167.887C339.881 144.96 340.394 99.3132 339.515 100.146C338.416 101.186 316.836 98.7211 319.021 84.0987C320.77 72.4007 333.412 70.7541 339.515 71.3931C339.815 -5.23639 340.235 20.8181 339.515 11.7899C338.795 2.76161 330.716 0.752505 326.767 0.876477H239.926H110.49C82.7429 0.215067 24.9691 -0.710907 15.8501 0.876477Z" fill="url(#paint0_linear_811_99017)"/>
</g>
<defs>
<filter id="filter0_d_811_99017" x="0" y="0" width="344" height="189" filterUnits="userSpaceOnUse" color-interpolation-filters="sRGB">
<feFlood flood-opacity="0" result="BackgroundImageFix"/>
<feColorMatrix in="SourceAlpha" type="matrix" values="0 0 0 0 0 0 0 0 0 0 0 0 0 0 0 0 0 0 127 0" result="hardAlpha"/>
<feOffset dy="4"/>
<feGaussianBlur stdDeviation="2"/>
<feComposite in2="hardAlpha" operator="out"/>
<feColorMatrix type="matrix" values="0 0 0 0 0 0 0 0 0 0 0 0 0 0 0 0 0 0 0.25 0"/>
<feBlend mode="normal" in2="BackgroundImageFix" result="effect1_dropShadow_811_99017"/>
<feBlend mode="normal" in="SourceGraphic" in2="effect1_dropShadow_811_99017" result="shape"/>
</filter>
<linearGradient id="paint0_linear_811_99017" x1="172" y1="0" x2="172" y2="181" gradientUnits="userSpaceOnUse">
<stop stop-color="#F1BC57"/>
<stop offset="1" stop-color="#ED7132"/>
</linearGradient>
</defs>
</svg>
