<svg width="28" height="28" viewBox="0 0 28 28" fill="none" xmlns="http://www.w3.org/2000/svg">
<g id="coin 1">
<g id="Group">
<g id="Group_2">
<path id="Vector" fill-rule="evenodd" clip-rule="evenodd" d="M3.04565 22.0949C3.04565 20.4024 6.89352 19.0312 11.6402 19.0312C16.3868 19.0312 20.2347 20.4024 20.2347 22.0949V24.9088C20.2347 26.6014 16.3868 27.9725 11.6402 27.9725C6.89358 27.9725 3.04565 26.6013 3.04565 24.9088C3.04565 23.9703 3.04565 23.0334 3.04565 22.0949Z" fill="#FE9923"/>
</g>
<g id="Group_3">
<path id="Vector_2" fill-rule="evenodd" clip-rule="evenodd" d="M11.6402 19.0312C16.3868 19.0312 20.2347 20.4024 20.2347 22.0949C20.2347 23.7874 16.3868 25.1585 11.6402 25.1585C6.89358 25.1585 3.04565 23.7874 3.04565 22.0949C3.04565 20.4024 6.89358 19.0312 11.6402 19.0312Z" fill="#FECD3D"/>
</g>
<g id="Group_4">
<path id="Vector_3" fill-rule="evenodd" clip-rule="evenodd" d="M11.6402 19.0312C16.3869 19.0312 20.2347 20.4024 20.2347 22.0949C20.2347 22.1092 20.2347 22.1236 20.2332 22.1394C18.5502 22.6453 16.3757 22.9506 14.0008 22.9506C9.46098 22.9506 5.65287 21.8356 4.60938 20.3324C6.16348 19.545 8.73407 19.0312 11.6402 19.0312Z" fill="#CEA732"/>
</g>
<g id="Group_5">
<path id="Vector_4" fill-rule="evenodd" clip-rule="evenodd" d="M11.6403 20.4629C15.4166 20.4629 18.4787 21.193 18.4787 22.0949C18.4787 22.9953 15.4166 23.727 11.6403 23.727C7.864 23.727 4.80347 22.9953 4.80347 22.0949C4.80352 21.193 7.864 20.4629 11.6403 20.4629Z" fill="#FEA832"/>
</g>
<g id="Group_6">
<path id="Vector_5" fill-rule="evenodd" clip-rule="evenodd" d="M11.6402 20.4629C15.4165 20.4629 18.4786 21.193 18.4786 22.0949C18.4786 22.2794 18.3481 22.4592 18.1095 22.6246C16.8625 22.833 15.469 22.9507 14.0008 22.9507C10.4838 22.9507 7.40572 22.281 5.71167 21.2821C6.89199 20.7922 9.10465 20.4629 11.6402 20.4629Z" fill="#CE8829"/>
</g>
<g id="Group_7">
<path id="Vector_6" d="M17.9122 25.5055V27.0039C18.1763 26.9037 18.4213 26.7972 18.6471 26.6842V25.5039L17.9122 25.5055ZM15.9907 27.5511C15.7537 27.602 15.5087 27.6481 15.2574 27.6895V26.2611L15.9907 26.2626V27.5511ZM13.3358 27.9138C13.094 27.9297 12.8491 27.9441 12.6009 27.9536V26.5903L13.3358 26.5919V27.9138ZM10.681 27.9536C10.4328 27.944 10.1863 27.9297 9.94448 27.9138V26.592L10.681 26.5904V27.9536ZM8.02452 27.6895C7.77317 27.6482 7.52823 27.602 7.29121 27.5512V26.2611L8.02452 26.2627V27.6895ZM5.36966 27.0039C5.10563 26.9037 4.85904 26.7972 4.63477 26.6842V25.5055L5.36966 25.5039V27.0039Z" fill="#C85929"/>
</g>
<g id="Group_8">
<path id="Vector_7" d="M24.6426 12.4024V13.2884H25.5286V14.0743H24.6426V14.9603H23.8568V14.0743H22.9707V13.2884H23.8568V12.4024H24.6426ZM5.02928 14.0742H4.14329V14.9602H3.35748V14.0742H2.47144V13.2884H3.35748V12.4023H4.14329V13.2884H5.02928V14.0742Z" fill="#FEA832"/>
</g>
<g id="Group_9">
<path id="Vector_8" d="M4.35173 0.339844V1.22589H5.23772V2.01164H4.35173V2.89769H3.56592V2.01164H2.67993V1.22589H3.56592V0.339844H4.35173Z" fill="#FEA832"/>
</g>
<g id="Group_10">
<path id="Vector_9" fill-rule="evenodd" clip-rule="evenodd" d="M5.40625 16.5109C5.40625 14.8184 9.25412 13.4473 14.0008 13.4473C18.7474 13.4473 22.5953 14.8184 22.5953 16.5109V19.3264C22.5953 21.0173 18.7474 22.3885 14.0008 22.3885C9.25417 22.3885 5.40625 21.0173 5.40625 19.3264C5.40625 18.388 5.40625 17.4495 5.40625 16.5109Z" fill="#FE9923"/>
</g>
<g id="Group_11">
<path id="Vector_10" fill-rule="evenodd" clip-rule="evenodd" d="M14.0008 13.4473C18.7474 13.4473 22.5953 14.8184 22.5953 16.5109C22.5953 18.2034 18.7474 19.5746 14.0008 19.5746C9.25417 19.5746 5.40625 18.2034 5.40625 16.5109C5.40625 14.8184 9.25412 13.4473 14.0008 13.4473Z" fill="#FECD3D"/>
</g>
<g id="Group_12">
<path id="Vector_11" fill-rule="evenodd" clip-rule="evenodd" d="M14.0007 13.4473C17.9679 13.4473 21.3068 14.4065 22.2962 15.7092H14.0007V13.4473Z" fill="#CEA732"/>
</g>
<g id="Group_13">
<path id="Vector_12" fill-rule="evenodd" clip-rule="evenodd" d="M14.0008 14.8789C17.777 14.8789 20.8376 15.6106 20.8376 16.5109C20.8376 17.4129 17.7771 18.143 14.0008 18.143C10.2244 18.143 7.16235 17.4129 7.16235 16.5109C7.16235 15.6106 10.2244 14.8789 14.0008 14.8789Z" fill="#FEA832"/>
</g>
<g id="Group_14">
<path id="Vector_13" fill-rule="evenodd" clip-rule="evenodd" d="M14.0007 14.8789C16.5538 14.8789 18.7807 15.2145 19.9547 15.7092H14.0007V14.8789Z" fill="#CE8829"/>
</g>
<g id="Group_15">
<path id="Vector_14" d="M20.2714 19.9199V21.4184C20.5354 21.3181 20.782 21.2116 21.0063 21.0986V19.9199H20.2714ZM18.3498 21.9671C18.1128 22.0165 17.8678 22.0626 17.6165 22.1039V20.6755L18.3498 20.6771V21.9671ZM15.695 22.3282C15.4532 22.3457 15.2098 22.3584 14.9616 22.368V21.0063L15.695 21.0079V22.3282ZM13.0401 22.368C12.792 22.3584 12.547 22.3457 12.3052 22.3282V21.0064H13.0401V22.368ZM10.3836 22.1039C10.1323 22.0626 9.88736 22.0164 9.65034 21.9671V20.6755L10.3836 20.6771V22.1039ZM7.72879 21.4184C7.4647 21.3181 7.21817 21.2116 6.9939 21.0986V19.9199H7.72879V21.4184Z" fill="#C85929"/>
</g>
<g id="Group_16">
<path id="Vector_15" fill-rule="evenodd" clip-rule="evenodd" d="M14.0007 15.7084C18.3178 15.7084 21.8413 12.1866 21.8413 7.86789C21.8413 3.54916 18.3178 0.0273438 14.0007 0.0273438C9.68198 0.0273438 6.16016 3.54916 6.16016 7.86789C6.16016 12.1867 9.68192 15.7084 14.0007 15.7084Z" fill="#FEDB41"/>
</g>
<g id="Group_17">
<path id="Vector_16" fill-rule="evenodd" clip-rule="evenodd" d="M14.0151 0.0273438C18.3386 0.0352734 21.8414 3.54277 21.8414 7.86789C21.8414 12.193 18.3386 15.7005 14.0151 15.7084V0.0273438Z" fill="#FFCC33"/>
</g>
<g id="Group_18">
<path id="Vector_17" fill-rule="evenodd" clip-rule="evenodd" d="M14.0008 13.1911C16.9324 13.1911 19.3249 10.7986 19.3249 7.86702C19.3249 4.93374 16.9324 2.54297 14.0008 2.54297C11.0676 2.54297 8.67676 4.9338 8.67676 7.86702C8.67676 10.7986 11.0675 13.1911 14.0008 13.1911Z" fill="#FEA832"/>
</g>
<g id="Group_19">
<path id="Vector_18" fill-rule="evenodd" clip-rule="evenodd" d="M14.0151 2.54297C16.9484 2.55095 19.3249 4.93063 19.3249 7.86702C19.3249 10.8018 16.9484 13.1831 14.0151 13.1911V2.54297Z" fill="#FE9923"/>
</g>
</g>
<path id="Vector_19" d="M15.4541 8.13096L14.2862 5.10531C14.1918 4.86073 13.8446 4.86073 13.7502 5.10531L12.5823 8.13096L11.0709 7.00144L10.8828 7.26022L12.0724 10.7734L16.4951 10.4202L17.4861 7.26022C17.5692 6.9951 17.2627 6.77929 17.0396 6.94593L15.4541 8.13096Z" fill="#FFC244"/>
<path id="Vector_20" d="M11.8678 9.61783L11.0397 7.00453L10.9647 6.94911C10.7396 6.78257 10.4301 6.9982 10.5141 7.26313L11.5686 10.5909C11.6442 10.8296 11.8684 10.9922 12.1221 10.9922H15.9081C16.1617 10.9922 16.3859 10.8296 16.4616 10.5909L16.5156 10.4204H12.9747C12.4675 10.4204 12.0191 10.0953 11.8678 9.61783Z" fill="#C85929"/>
</g>
</svg>
