<svg width="26" height="26" viewBox="0 0 26 26" fill="none" xmlns="http://www.w3.org/2000/svg">
<g id="Group">
<path id="Vector" d="M12.9851 3.69864e-10C12.5298 3.69864e-10 12.0747 0.0244814 11.6219 0.0732853C11.2069 0.115677 10.7969 0.1852 10.3925 0.26956C10.3142 0.285934 10.2359 0.303209 10.1577 0.321279C7.77485 0.863791 5.59908 2.08209 3.89126 3.83007C3.73245 3.99285 3.57698 4.16046 3.42495 4.33284C-1.18836 9.62909 -0.634725 17.6624 4.66158 22.2757C9.73209 26.6924 17.3645 26.3985 22.0804 21.6051C22.2395 21.4423 22.395 21.2747 22.5467 21.1023C24.5827 18.7838 25.7046 15.8031 25.7028 12.7176C25.7028 5.69378 20.0089 -5.29897e-05 12.9851 3.69864e-10ZM4.45635 4.46595C4.52333 4.39643 4.59285 4.32987 4.6611 4.26247C4.73995 4.18489 4.81838 4.10689 4.89892 4.03185C4.96972 3.96572 5.04263 3.90213 5.11512 3.8377C5.19694 3.76521 5.27833 3.69272 5.36227 3.62277C5.43603 3.56045 5.51191 3.50068 5.58737 3.44049C5.67215 3.37266 5.75694 3.30483 5.84426 3.23955C5.92142 3.18147 5.99984 3.12509 6.07869 3.06998C6.16644 3.00724 6.25462 2.9428 6.34407 2.8843C6.42419 2.83004 6.50516 2.77747 6.58655 2.72533C6.67727 2.66725 6.76841 2.61003 6.8604 2.55576C6.94322 2.50632 7.02658 2.45768 7.11051 2.40993C7.20436 2.35652 7.29858 2.30438 7.39327 2.25351C7.47805 2.20831 7.56284 2.16406 7.64762 2.12082C7.74427 2.07207 7.84178 2.02502 7.9397 1.97881C8.02449 1.93854 8.11266 1.89826 8.19999 1.86011C8.29961 1.81772 8.4005 1.77533 8.5014 1.73293C8.58915 1.6969 8.67648 1.66172 8.76508 1.6278C8.86766 1.5888 8.97152 1.55234 9.07538 1.51589C9.16398 1.48494 9.25258 1.45399 9.34245 1.42474C9.44801 1.39083 9.55441 1.35946 9.66124 1.32851C9.75069 1.30265 9.83929 1.27595 9.92916 1.25178C9.9635 1.24288 9.99784 1.23568 10.0322 1.22677C8.77737 2.44517 7.84617 3.9573 7.3229 5.62622C6.31672 5.36084 5.34266 4.98599 4.4182 4.50834C4.43218 4.4935 4.44405 4.47867 4.45635 4.46595ZM3.84675 5.14846C4.86506 5.70019 5.94489 6.12994 7.06388 6.4287C6.51533 8.33613 6.22738 10.309 6.20799 12.2936H1.12518C1.21754 9.67651 2.1746 7.16383 3.84675 5.14846ZM3.84675 20.2867C2.1747 18.2712 1.21765 15.7586 1.12518 13.1415H6.20799C6.22738 15.1261 6.51528 17.099 7.06388 19.0064C5.94494 19.3053 4.86511 19.735 3.84675 20.2867ZM9.92662 24.185C9.84099 24.1634 9.75239 24.1354 9.66421 24.1096C9.55696 24.0782 9.44928 24.0468 9.3433 24.0125C9.25385 23.9837 9.16568 23.9527 9.0775 23.9218C8.97322 23.8857 8.86894 23.8489 8.76592 23.8094C8.67775 23.7759 8.59084 23.7408 8.50352 23.7052C8.4022 23.6628 8.30088 23.6204 8.20041 23.578C8.11393 23.5398 8.02788 23.5006 7.94225 23.4601C7.84347 23.4135 7.74512 23.366 7.6455 23.3168C7.56072 23.2745 7.47593 23.2321 7.39115 23.1859C7.29534 23.1346 7.20038 23.082 7.10543 23.0277C7.02064 22.9807 6.9401 22.9323 6.85828 22.8832C6.76502 22.8272 6.67345 22.7696 6.58188 22.7106C6.50134 22.6593 6.42079 22.6072 6.34152 22.5538C6.25123 22.4927 6.16178 22.4292 6.07318 22.3656C5.9956 22.31 5.91803 22.2545 5.84172 22.196C5.75397 22.1299 5.66791 22.0616 5.58228 21.9929C5.50725 21.9332 5.43264 21.8738 5.3593 21.8124C5.27451 21.742 5.1927 21.6686 5.11046 21.5957C5.03839 21.5317 4.9659 21.4686 4.89553 21.4033C4.81456 21.3278 4.73614 21.2494 4.65729 21.1718C4.58904 21.1044 4.51951 21.0378 4.45253 20.9687C4.44024 20.9556 4.42837 20.942 4.41608 20.9293C5.34049 20.4515 6.31455 20.0764 7.32078 19.811C7.84416 21.4799 8.7753 22.992 10.0301 24.2105C9.99572 24.2016 9.96095 24.1944 9.92662 24.185ZM12.5613 24.5538C10.7473 24.2961 9.1572 22.4029 8.15675 19.6071C9.60317 19.2832 11.0792 19.1095 12.5613 19.0887V24.5538ZM12.5613 18.2408C10.9891 18.2615 9.42348 18.4482 7.89053 18.7979C7.35824 16.9587 7.07745 15.056 7.05583 13.1415H12.5613V18.2408ZM12.5613 12.2936H7.05583C7.07739 10.3792 7.35819 8.4764 7.89053 6.63727C9.42348 6.98685 10.9891 7.17358 12.5613 7.1943V12.2936ZM12.5613 6.34646C11.0792 6.32579 9.60317 6.15204 8.15675 5.82801C9.1572 3.03225 10.7473 1.13902 12.5613 0.881278V6.34646ZM22.1237 5.14846C23.7957 7.16388 24.7528 9.67657 24.8452 12.2936H19.7624C19.743 10.309 19.4551 8.33613 18.9065 6.4287C20.0255 6.12978 21.1053 5.70009 22.1237 5.14846ZM16.0404 1.24966C16.1294 1.27171 16.218 1.29969 16.3062 1.32555C16.4134 1.35692 16.5211 1.38829 16.6271 1.42262C16.7166 1.45145 16.8047 1.4824 16.8929 1.51334C16.9972 1.54938 17.1015 1.58626 17.2045 1.62568C17.2927 1.65917 17.3796 1.69436 17.4669 1.72997C17.5682 1.77236 17.6695 1.81475 17.77 1.85714C17.8565 1.8953 17.9425 1.93456 18.0282 1.97499C18.1269 2.02162 18.2253 2.0691 18.3249 2.11828C18.4097 2.16067 18.4945 2.20306 18.5793 2.24927C18.6751 2.30056 18.77 2.35313 18.865 2.40739C18.9498 2.45445 19.0303 2.50277 19.1121 2.55195C19.2054 2.60791 19.297 2.66556 19.3885 2.72448C19.4691 2.77578 19.5496 2.82792 19.6289 2.88133C19.7192 2.94238 19.8082 3.00554 19.8968 3.06913C19.9748 3.12466 20.0524 3.18062 20.1291 3.2387C20.2164 3.30441 20.3021 3.37266 20.3881 3.44133C20.4627 3.50068 20.5378 3.56003 20.6111 3.62192C20.6959 3.69229 20.7777 3.76563 20.8599 3.83855C20.932 3.90256 21.0045 3.96572 21.0749 4.03101C21.1558 4.10646 21.2343 4.18489 21.3131 4.26247C21.3814 4.32987 21.4509 4.39643 21.5179 4.46552C21.5302 4.47867 21.542 4.49223 21.5543 4.50495C20.6299 4.98281 19.6559 5.35782 18.6496 5.62325C18.1252 3.95417 17.1929 2.44221 15.937 1.22423C15.9713 1.23313 16.0061 1.24034 16.0404 1.24966ZM13.4091 0.881278C15.2231 1.13902 16.8132 3.03225 17.8137 5.82801C16.3672 6.15188 14.8912 6.32563 13.4091 6.34646V0.881278ZM13.4091 7.1943C14.9813 7.17364 16.5469 6.9869 18.0799 6.63727C18.6122 8.4764 18.893 10.3792 18.9146 12.2936H13.4091V7.1943ZM13.4091 13.1415H18.9146C18.893 15.056 18.6122 16.9587 18.0799 18.7979C16.5469 18.4483 14.9813 18.2615 13.4091 18.2408V13.1415ZM13.4091 24.5538V19.0887C14.8913 19.1093 16.3672 19.2831 17.8137 19.6071C16.8132 22.4029 15.2231 24.2961 13.4091 24.5538ZM21.5141 20.9692C21.4471 21.0383 21.378 21.1048 21.3097 21.1722C21.2309 21.2498 21.152 21.3282 21.0711 21.4037C21.0007 21.4694 20.9282 21.5309 20.8561 21.5966C20.7739 21.6695 20.6921 21.7424 20.6081 21.8128C20.534 21.8747 20.4585 21.9344 20.383 21.9946C20.2983 22.0625 20.2135 22.1303 20.1261 22.1956C20.049 22.2537 19.9706 22.31 19.8917 22.3651C19.804 22.4279 19.7158 22.4923 19.6263 22.5508C19.5462 22.6051 19.4653 22.6576 19.3839 22.7094C19.2931 22.7679 19.2017 22.8244 19.1096 22.8789C19.0248 22.9285 18.9438 22.9769 18.8603 23.0248C18.7665 23.0782 18.6721 23.1303 18.5771 23.1812C18.4924 23.2264 18.4076 23.2706 18.3228 23.3139C18.2261 23.3626 18.1286 23.4097 18.0307 23.4559C17.9459 23.4962 17.8577 23.5364 17.7704 23.5746C17.6708 23.617 17.5699 23.6594 17.469 23.7018C17.3813 23.7374 17.2939 23.773 17.2058 23.8065C17.1023 23.8459 16.9985 23.8828 16.8942 23.9188C16.806 23.9498 16.7178 23.9807 16.6284 24.0095C16.5224 24.0439 16.4164 24.0752 16.3083 24.1062C16.2197 24.1325 16.1307 24.1588 16.0412 24.1829C16.0069 24.1918 15.9726 24.199 15.9382 24.2079C17.193 22.9895 18.1242 21.4774 18.6475 19.8085C19.6537 20.0739 20.6277 20.4487 21.5522 20.9264C21.5382 20.9416 21.5264 20.9565 21.5141 20.9692ZM22.1237 20.2867C21.1053 19.7349 20.0255 19.3052 18.9065 19.0064C19.4551 17.099 19.743 15.1261 19.7624 13.1415H24.8452C24.7529 15.7586 23.7958 18.2713 22.1237 20.2867Z" fill="#B4B4B4"/>
</g>
</svg>
