<svg width="42" height="42" viewBox="0 0 42 42" fill="none" xmlns="http://www.w3.org/2000/svg">
<g id="fi_3146600" clip-path="url(#clip0_343_71064)">
<g id="Page-1">
<g id="022---Party-Popper">
<g id="Group">
<path id="Shape" d="M29.5254 30.913C28.1985 32.2406 14.127 38.6146 3.52596 41.225C2.5594 41.4651 1.53771 41.1813 0.833476 40.4771C0.129246 39.7728 -0.154575 38.7511 0.0855197 37.7846C2.69593 27.1835 9.07067 13.1128 10.3976 11.7852L29.5254 30.913Z" fill="#F0C419"/>
<path id="Oval" d="M29.5194 30.9112C30.9092 29.5215 27.7546 24.1135 22.4734 18.8323C17.1922 13.5511 11.7843 10.3965 10.3945 11.7863C9.0047 13.1761 12.1593 18.584 17.4405 23.8652C22.7217 29.1464 28.1296 32.301 29.5194 30.9112Z" fill="#D25627"/>
<path id="Oval_2" d="M7.3771 35.3572C8.1634 35.3572 8.80083 34.7198 8.80083 33.9335C8.80083 33.1472 8.1634 32.5098 7.3771 32.5098C6.59079 32.5098 5.95337 33.1472 5.95337 33.9335C5.95337 34.7198 6.59079 35.3572 7.3771 35.3572Z" fill="#955BA5"/>
<path id="Shape_2" d="M16.4377 18.5389C16.1495 18.5391 15.8896 18.3656 15.7794 18.0993C15.6692 17.833 15.7304 17.5266 15.9344 17.323L20.4647 12.7934C22.9015 10.356 23.2118 8.49307 21.472 6.75256C20.7417 5.89763 19.6258 5.47414 18.5121 5.62924C17.7267 5.79553 17.0062 6.18568 16.4377 6.75256C16.1584 7.02233 15.7144 7.01848 15.4398 6.74389C15.1652 6.4693 15.1614 6.0253 15.4312 5.74598C16.205 4.97077 17.1911 4.44216 18.2651 4.22686C19.837 3.97872 21.4267 4.55184 22.4786 5.74598C24.8164 8.08374 24.4775 10.7938 21.4713 13.8L16.9424 18.3303C16.8086 18.4642 16.627 18.5392 16.4377 18.5389Z" fill="#955BA5"/>
<path id="Shape_3" d="M35.0622 26.0889C34.7743 26.0888 34.5148 25.9154 34.4047 25.6494C34.2945 25.3835 34.3554 25.0773 34.5589 24.8737C35.2829 24.2377 35.698 23.3207 35.698 22.3569C35.698 21.3932 35.2829 20.4762 34.5589 19.8402C33.8262 18.9517 32.6507 18.5595 31.5314 18.83C30.3699 19.2308 29.332 19.9256 28.5188 20.8467L24.4917 24.8737C24.2137 25.1516 23.7631 25.1516 23.4852 24.8737C23.2073 24.5958 23.2073 24.1452 23.4852 23.8672L27.5122 19.8402C28.5004 18.7372 29.7616 17.914 31.169 17.4533C32.7777 17.0413 34.481 17.576 35.5655 18.8336C38.3467 21.6141 36.8746 24.5719 35.5655 25.881C35.4323 26.0149 35.251 26.0898 35.0622 26.0889Z" fill="#FF5364"/>
<path id="Shape_4" d="M26.0024 13.0008C25.7149 13.0007 25.4556 12.8277 25.3452 12.5623C25.2348 12.2968 25.295 11.991 25.4977 11.7871C25.6842 11.5991 30.0266 7.1336 26.453 2.66665C26.2784 2.46978 26.2266 2.19265 26.3184 1.94603C26.4102 1.69941 26.6305 1.52353 26.8913 1.4887C27.1522 1.45387 27.4109 1.56577 27.5642 1.77967C31.9393 7.2475 26.5605 12.7424 26.505 12.7951C26.3716 12.9279 26.1906 13.0019 26.0024 13.0008Z" fill="#F0C419"/>
<path id="Oval_3" d="M33.4577 14.9294C34.6372 14.9294 35.5933 13.9733 35.5933 12.7938C35.5933 11.6143 34.6372 10.6582 33.4577 10.6582C32.2783 10.6582 31.3221 11.6143 31.3221 12.7938C31.3221 13.9733 32.2783 14.9294 33.4577 14.9294Z" fill="#FF5364"/>
<path id="Oval_4" d="M22.7798 2.84746C23.5661 2.84746 24.2035 2.21003 24.2035 1.42373C24.2035 0.637425 23.5661 0 22.7798 0C21.9935 0 21.3561 0.637425 21.3561 1.42373C21.3561 2.21003 21.9935 2.84746 22.7798 2.84746Z" fill="#3B97D3"/>
<path id="Oval_5" d="M39.8645 28.4744C40.6508 28.4744 41.2883 27.837 41.2883 27.0507C41.2883 26.2644 40.6508 25.627 39.8645 25.627C39.0782 25.627 38.4408 26.2644 38.4408 27.0507C38.4408 27.837 39.0782 28.4744 39.8645 28.4744Z" fill="#955BA5"/>
<path id="Shape_5" d="M33.4577 4.27036C33.0646 4.27036 32.7458 3.95165 32.7458 3.55849V2.84663C32.7458 2.45348 33.0646 2.13477 33.4577 2.13477C33.8509 2.13477 34.1696 2.45348 34.1696 2.84663V3.55849C34.1696 3.95165 33.8509 4.27036 33.4577 4.27036Z" fill="#955BA5"/>
<path id="Shape_6" d="M35.5933 5.69521H34.8814C34.4883 5.69521 34.1696 5.3765 34.1696 4.98335C34.1696 4.5902 34.4883 4.27148 34.8814 4.27148H35.5933C35.9864 4.27148 36.3051 4.5902 36.3051 4.98335C36.3051 5.3765 35.9864 5.69521 35.5933 5.69521Z" fill="#955BA5"/>
<path id="Shape_7" d="M33.4577 7.83091C33.0646 7.83091 32.7458 7.51219 32.7458 7.11904V6.40718C32.7458 6.01403 33.0646 5.69531 33.4577 5.69531C33.8509 5.69531 34.1696 6.01403 34.1696 6.40718V7.11904C34.1696 7.51219 33.8509 7.83091 33.4577 7.83091Z" fill="#955BA5"/>
<path id="Shape_8" d="M32.034 5.69521H31.3221C30.9289 5.69521 30.6102 5.3765 30.6102 4.98335C30.6102 4.5902 30.9289 4.27148 31.3221 4.27148H32.034C32.4271 4.27148 32.7458 4.5902 32.7458 4.98335C32.7458 5.3765 32.4271 5.69521 32.034 5.69521Z" fill="#955BA5"/>
<path id="Shape_9" d="M39.1527 16.3719C38.7595 16.3719 38.4408 16.0532 38.4408 15.6601V14.9482C38.4408 14.555 38.7595 14.2363 39.1527 14.2363C39.5458 14.2363 39.8645 14.555 39.8645 14.9482V15.6601C39.8645 16.0532 39.5458 16.3719 39.1527 16.3719Z" fill="#3B97D3"/>
<path id="Shape_10" d="M41.2882 17.7968H40.5764C40.1832 17.7968 39.8645 17.4781 39.8645 17.0849C39.8645 16.6918 40.1832 16.373 40.5764 16.373H41.2882C41.6814 16.373 42.0001 16.6918 42.0001 17.0849C42.0001 17.4781 41.6814 17.7968 41.2882 17.7968Z" fill="#3B97D3"/>
<path id="Shape_11" d="M39.1527 19.9325C38.7595 19.9325 38.4408 19.6138 38.4408 19.2206V18.5087C38.4408 18.1156 38.7595 17.7969 39.1527 17.7969C39.5458 17.7969 39.8645 18.1156 39.8645 18.5087V19.2206C39.8645 19.6138 39.5458 19.9325 39.1527 19.9325Z" fill="#3B97D3"/>
<path id="Shape_12" d="M37.7289 17.7968H37.017C36.6239 17.7968 36.3052 17.4781 36.3052 17.0849C36.3052 16.6918 36.6239 16.373 37.017 16.373H37.7289C38.1221 16.373 38.4408 16.6918 38.4408 17.0849C38.4408 17.4781 38.1221 17.7968 37.7289 17.7968Z" fill="#3B97D3"/>
</g>
<path id="Shape_13" d="M23.8617 33.9134C22.018 34.7534 19.8397 35.6788 17.5048 36.6042C17.156 36.3907 16.7858 36.1486 16.4014 35.8852C14.9828 34.9297 13.6274 33.8834 12.3437 32.753C11.7102 32.1836 11.0553 31.5785 10.3932 30.9164C9.63155 30.1571 8.93866 29.412 8.3146 28.6812C6.98576 27.1553 5.77899 25.5272 4.70544 23.812C5.63087 21.4771 6.55629 19.2988 7.40341 17.4551C8.15777 18.9204 9.02157 20.3268 9.98748 21.6622C11.1418 23.276 12.4123 24.8034 13.7888 26.2324C13.9882 26.453 14.2017 26.6666 14.4224 26.8873C15.5274 27.9943 16.6944 29.0377 17.9176 30.0124C19.7641 31.5074 21.7554 32.8143 23.8617 33.9134Z" fill="#FF5364"/>
<path id="Shape_14" d="M17.9176 30.0124C17.0842 31.8704 16.5715 33.8561 16.4014 35.8853C14.9828 34.9297 13.6274 33.8835 12.3438 32.7531C12.3935 30.5058 12.8845 28.2903 13.7888 26.2324C13.9882 26.4531 14.2017 26.6667 14.4224 26.8873C15.5274 27.9944 16.6944 29.0377 17.9176 30.0124Z" fill="#955BA5"/>
<path id="Shape_15" d="M13.7889 26.2323C12.8846 28.2901 12.3936 30.5057 12.3438 32.753C11.7103 32.1835 11.0554 31.5784 10.3933 30.9163C9.63165 30.157 8.93877 29.4119 8.3147 28.6811C8.38843 26.2519 8.9577 23.8634 9.98758 21.6621C11.1419 23.2759 12.4124 24.8033 13.7889 26.2323Z" fill="#B49ACA"/>
<path id="Shape_16" d="M7.79498 40.0343C6.33565 40.4828 4.89769 40.8815 3.52379 41.2232C2.5578 41.4633 1.53659 41.1798 0.832729 40.4759C0.128872 39.7721 -0.154694 38.7509 0.0854841 37.7849C0.427179 36.411 0.825823 34.973 1.2743 33.5137C3.20409 35.918 5.3906 38.1046 7.79498 40.0343Z" fill="#FF5364"/>
</g>
</g>
</g>
<defs>
<clipPath id="clip0_343_71064">
<rect width="42" height="42" fill="white"/>
</clipPath>
</defs>
</svg>
