<svg width="39" height="34" viewBox="0 0 39 34" fill="none" xmlns="http://www.w3.org/2000/svg">
<g id="Group">
<g id="Group_2">
<g id="Group_3">
<path id="Vector" d="M29.9871 0.840127C30.8441 1.62182 30.9982 2.84839 30.9982 2.84839C30.9982 2.84839 29.7627 2.80754 28.9056 2.02585C28.0486 1.24415 27.8945 0.0175781 27.8945 0.0175781C27.8945 0.0175781 29.13 0.058431 29.9871 0.840127Z" fill="url(#paint0_linear_320_69932)"/>
<g id="Group_4">
<g id="Group_5">
<path id="Vector_2" d="M23.9604 29.6422C23.2225 30.5888 23.1781 31.7067 23.1881 31.7102C23.1852 31.7244 24.7363 31.2907 25.4323 30.2466C26.1286 29.2158 25.7895 28.1473 25.7996 28.1504C25.7957 28.1606 24.6973 28.7043 23.9604 29.6422Z" fill="url(#paint1_linear_320_69932)"/>
<path id="Vector_3" d="M25.0464 32.9202C23.685 32.689 23.1773 31.6596 23.1775 31.6688C23.1935 31.6738 24.6524 31.2528 25.9093 31.4006C27.1788 31.5551 27.9246 32.3436 27.9246 32.352C27.9426 32.3561 26.4227 33.1568 25.0464 32.9202Z" fill="url(#paint2_linear_320_69932)"/>
</g>
<g id="Group_6">
<path id="Vector_4" d="M26.6517 28.4642C26.1445 29.5022 26.3266 30.5876 26.336 30.5895C26.3347 30.6039 27.6981 29.9271 28.1572 28.8002C28.6178 27.6862 28.0937 26.7095 28.1033 26.7109C28.101 26.7216 27.1589 27.4349 26.6517 28.4642Z" fill="url(#paint3_linear_320_69932)"/>
<path id="Vector_5" d="M28.3147 31.4472C26.9912 31.4514 26.3178 30.5421 26.3188 30.5511C26.3338 30.5534 27.6125 29.904 28.8327 29.8347C30.0648 29.7699 30.9281 30.4057 30.9291 30.4139C30.9461 30.4151 29.6522 31.4462 28.3147 31.4472Z" fill="url(#paint4_linear_320_69932)"/>
</g>
<g id="Group_7">
<path id="Vector_6" d="M28.9746 26.8627C28.6868 27.9539 29.0701 28.972 29.0788 28.9724C29.0793 28.9866 30.2469 28.1012 30.4805 26.9303C30.7167 25.7718 30.0345 24.9141 30.0433 24.9141C30.0426 24.9249 29.2637 25.78 28.9746 26.8627Z" fill="url(#paint5_linear_320_69932)"/>
<path id="Vector_7" d="M31.1271 29.4661C29.8639 29.6949 29.0527 28.9293 29.0547 28.9379C29.0684 28.9379 30.16 28.0931 31.3213 27.8165C32.4939 27.5425 33.4455 28.0098 33.4474 28.0178C33.4632 28.0163 32.4039 29.2381 31.1271 29.4661Z" fill="url(#paint6_linear_320_69932)"/>
</g>
<g id="Group_8">
<path id="Vector_8" d="M30.9149 24.9127C30.8344 26.0218 31.3926 26.9421 31.4008 26.9412C31.403 26.9551 32.367 25.8956 32.3868 24.7166C32.4106 23.5495 31.5975 22.8335 31.6058 22.832C31.6067 22.8428 30.998 23.8117 30.9149 24.9127Z" fill="url(#paint7_linear_320_69932)"/>
<path id="Vector_9" d="M33.4692 27.0665C32.289 27.5067 31.3687 26.9035 31.3716 26.9117C31.3841 26.9095 32.2816 25.9024 33.3613 25.4312C34.4516 24.9607 35.4615 25.2486 35.4645 25.2561C35.479 25.2523 34.6621 26.6252 33.4692 27.0665Z" fill="url(#paint8_linear_320_69932)"/>
</g>
<g id="Group_9">
<path id="Vector_10" d="M32.4539 22.6793C32.5682 23.7737 33.2746 24.5706 33.282 24.5684C33.2859 24.5818 34.0383 23.3829 33.8567 22.229C33.6803 21.0862 32.7647 20.5301 32.7723 20.5273C32.775 20.5378 32.3434 21.5927 32.4539 22.6793Z" fill="url(#paint9_linear_320_69932)"/>
<path id="Vector_11" d="M35.318 24.3316C34.2442 24.9667 33.2441 24.5403 33.2481 24.5479C33.2593 24.5438 33.9558 23.4074 34.9307 22.7572C35.9156 22.106 36.9531 22.2079 36.957 22.2148C36.9704 22.2088 36.404 23.6932 35.318 24.3316Z" fill="url(#paint10_linear_320_69932)"/>
</g>
<g id="Group_10">
<path id="Vector_12" d="M33.5756 20.2239C33.8718 21.2738 34.6988 21.9262 34.7055 21.9228C34.7112 21.9354 35.2439 20.6318 34.8736 19.5336C34.5099 18.4453 33.5207 18.0624 33.5276 18.0586C33.532 18.0685 33.2844 19.1812 33.5756 20.2239Z" fill="url(#paint11_linear_320_69932)"/>
<path id="Vector_13" d="M36.6569 21.3277C35.7131 22.1388 34.6636 21.8988 34.6685 21.9056C34.6785 21.8998 35.1669 20.6671 36.0135 19.8562C36.8691 19.0428 37.9028 18.9569 37.9077 18.9632C37.9199 18.9553 37.612 20.5117 36.6569 21.3277Z" fill="url(#paint12_linear_320_69932)"/>
</g>
<g id="Group_11">
<path id="Vector_14" d="M34.265 17.6156C34.73 18.594 35.6487 19.0852 35.6548 19.081C35.6622 19.0925 35.9672 17.719 35.4216 16.7039C34.884 15.6978 33.8508 15.497 33.857 15.4922C33.8631 15.5013 33.8064 16.6435 34.265 17.6156Z" fill="url(#paint13_linear_320_69932)"/>
<path id="Vector_15" d="M37.4673 18.1486C36.6778 19.1136 35.6097 19.0649 35.6157 19.071C35.6243 19.0638 35.8978 17.7676 36.592 16.8173C37.2944 15.8632 38.2918 15.5923 38.2977 15.5977C38.3085 15.5881 38.2674 17.177 37.4673 18.1486Z" fill="url(#paint14_linear_320_69932)"/>
</g>
<g id="Group_12">
<path id="Vector_16" d="M34.5047 14.9274C35.1244 15.81 36.1058 16.1283 36.1112 16.1232C36.1205 16.1335 36.1896 14.725 35.4824 13.818C34.7845 12.9186 33.738 12.9041 33.7434 12.8984C33.7514 12.9066 33.8927 14.0502 34.5047 14.9274Z" fill="url(#paint15_linear_320_69932)"/>
<path id="Vector_17" d="M37.7295 14.8781C37.1189 15.9724 36.0642 16.1154 36.0713 16.1205C36.0785 16.1121 36.13 14.7855 36.6472 13.7198C37.1718 12.6492 38.0999 12.2006 38.1068 12.2051C38.1163 12.1941 38.3499 13.7759 37.7295 14.8781Z" fill="url(#paint16_linear_320_69932)"/>
</g>
<g id="Group_13">
<path id="Vector_18" d="M34.2795 12.2209C35.0396 12.9862 36.0539 13.1244 36.0584 13.1185C36.0697 13.1273 35.8948 11.7188 35.0402 10.9419C34.1963 10.1712 33.1677 10.3426 33.1724 10.3363C33.1822 10.3432 33.5284 11.4597 34.2795 12.2209Z" fill="url(#paint17_linear_320_69932)"/>
<path id="Vector_19" d="M37.4265 11.5915C37.0202 12.7872 36.0114 13.1177 36.0195 13.1217C36.0253 13.1124 35.8478 11.7882 36.1629 10.6342C36.4846 9.47406 37.3095 8.85989 37.3175 8.86335C37.3256 8.85107 37.842 10.3864 37.4265 11.5915Z" fill="url(#paint18_linear_320_69932)"/>
</g>
<g id="Group_14">
<path id="Vector_20" d="M33.5709 9.55951C34.4568 10.189 35.473 10.1442 35.4768 10.1378C35.49 10.1449 35.063 8.77149 34.0757 8.14402C33.1004 7.52107 32.1218 7.87344 32.1257 7.86651C32.1374 7.87199 32.6955 8.93289 33.5709 9.55951Z" fill="url(#paint19_linear_320_69932)"/>
<path id="Vector_21" d="M36.5371 8.36967C36.3603 9.63645 35.4309 10.1456 35.4401 10.1483C35.4444 10.1382 35.0311 8.84944 35.1186 7.63677C35.2119 6.41713 35.8989 5.65404 35.908 5.65634C35.9147 5.64312 36.7219 7.09246 36.5371 8.36967Z" fill="url(#paint20_linear_320_69932)"/>
</g>
<g id="Group_15">
<path id="Vector_22" d="M32.3652 7.01938C33.3616 7.49705 34.3482 7.27151 34.3511 7.26462C34.3663 7.26974 33.6792 5.96666 32.5742 5.50502C31.4827 5.04612 30.587 5.56985 30.5901 5.56247C30.6038 5.5663 31.3807 6.54304 32.3652 7.01938Z" fill="url(#paint21_linear_320_69932)"/>
<path id="Vector_23" d="M35.0434 5.30176C35.1226 6.60629 34.3065 7.28041 34.3168 7.28186C34.3197 7.27126 33.6634 6.05074 33.4973 4.81204C33.3362 3.56564 33.8498 2.67488 33.8601 2.67589C33.8653 2.66191 34.9715 3.98582 35.0434 5.30176Z" fill="url(#paint22_linear_320_69932)"/>
</g>
<g id="Group_16">
<path id="Vector_24" d="M30.6435 4.65848C31.7346 4.97133 32.6592 4.57146 32.6614 4.56433C32.6786 4.56723 31.7232 3.36979 30.5162 3.08768C29.3241 2.80642 28.5449 3.48719 28.5471 3.47949C28.5628 3.48139 29.5655 4.34535 30.6435 4.65848Z" fill="url(#paint23_linear_320_69932)"/>
<path id="Vector_25" d="M32.9257 2.46303C33.2874 3.76913 32.6196 4.59015 32.631 4.59015C32.6323 4.57931 31.7262 3.45991 31.2801 2.2306C30.838 0.993067 31.1422 0.000576394 31.1536 0.000133211C31.1573 -0.0142904 32.5705 1.14468 32.9257 2.46303Z" fill="url(#paint24_linear_320_69932)"/>
</g>
</g>
<g id="Group_17">
<path id="Vector_26" d="M18.824 32.0577L18.8457 31.8183C20.8293 31.9979 22.8067 31.7769 24.7231 31.1615C26.5902 30.562 28.3189 29.6154 29.8612 28.3481C33.0618 25.7181 35.1258 21.9652 35.6731 17.7805C36.1213 14.3538 35.8913 11.3001 34.9897 8.70438C34.0216 5.91699 32.2975 3.73588 29.8653 2.22164L29.9924 2.01758C32.4725 3.56163 34.2302 5.78488 35.2169 8.62553C36.1309 11.257 36.3645 14.3476 35.9115 17.8117C35.3563 22.0571 33.2618 25.865 30.0139 28.5339C28.4481 29.8205 26.6927 30.7816 24.7966 31.3905C22.8494 32.0158 20.8399 32.2403 18.824 32.0577Z" fill="url(#paint25_linear_320_69932)"/>
</g>
</g>
<g id="Group_18">
<path id="Vector_27" d="M8.31091 0.840127C7.45387 1.62182 7.2998 2.84839 7.2998 2.84839C7.2998 2.84839 8.53532 2.80754 9.39236 2.02585C10.2494 1.24415 10.4035 0.0175781 10.4035 0.0175781C10.4035 0.0175781 9.16794 0.058431 8.31091 0.840127Z" fill="url(#paint26_linear_320_69932)"/>
<g id="Group_19">
<g id="Group_20">
<path id="Vector_28" d="M14.3385 29.6441C15.0764 30.5907 15.1208 31.7086 15.1108 31.7122C15.1137 31.7264 13.5627 31.2926 12.8666 30.2486C12.1703 29.2177 12.5095 28.1493 12.4993 28.1524C12.5033 28.1625 13.6016 28.7063 14.3385 29.6441Z" fill="url(#paint27_linear_320_69932)"/>
<path id="Vector_29" d="M13.2522 32.9221C14.6136 32.691 15.1213 31.6615 15.1211 31.6708C15.1051 31.6758 13.6462 31.2547 12.3893 31.4026C11.1198 31.5571 10.374 32.3455 10.3739 32.3539C10.356 32.358 11.8759 33.1588 13.2522 32.9221Z" fill="url(#paint28_linear_320_69932)"/>
</g>
<g id="Group_21">
<path id="Vector_30" d="M11.6465 28.4642C12.1536 29.5022 11.9715 30.5876 11.9621 30.5895C11.9634 30.6039 10.6 29.9271 10.1409 28.8002C9.68033 27.6862 10.2044 26.7095 10.1948 26.7109C10.1971 26.7216 11.1392 27.4349 11.6465 28.4642Z" fill="url(#paint29_linear_320_69932)"/>
<path id="Vector_31" d="M9.98401 31.4472C11.3074 31.4514 11.9809 30.5421 11.9798 30.5511C11.9649 30.5534 10.6862 29.904 9.46601 29.8347C8.23388 29.7699 7.3706 30.4057 7.36955 30.4139C7.35259 30.4151 8.64644 31.4462 9.98401 31.4472Z" fill="url(#paint30_linear_320_69932)"/>
</g>
<g id="Group_22">
<path id="Vector_32" d="M9.32343 26.8627C9.61121 27.9539 9.22794 28.972 9.21924 28.9724C9.21871 28.9866 8.05117 28.1012 7.81757 26.9303C7.58135 25.7718 8.26357 24.9141 8.25471 24.9141C8.25547 24.9249 9.03431 25.78 9.32343 26.8627Z" fill="url(#paint31_linear_320_69932)"/>
<path id="Vector_33" d="M7.17107 29.4661C8.43426 29.6949 9.24549 28.9293 9.24352 28.9379C9.22982 28.9379 8.13822 28.0931 6.97691 27.8165C5.80433 27.5425 4.85269 28.0098 4.85076 28.0178C4.83497 28.0163 5.89434 29.2381 7.17107 29.4661Z" fill="url(#paint32_linear_320_69932)"/>
</g>
<g id="Group_23">
<path id="Vector_34" d="M7.385 24.9127C7.46554 26.0218 6.90729 26.9421 6.89915 26.9412C6.89698 26.9551 5.93293 25.8956 5.91311 24.7166C5.88934 23.5495 6.70246 22.8335 6.69416 22.832C6.69323 22.8428 7.30197 23.8117 7.385 24.9127Z" fill="url(#paint33_linear_320_69932)"/>
<path id="Vector_35" d="M4.83069 27.0665C6.01089 27.5067 6.93118 26.9035 6.92828 26.9117C6.91579 26.9095 6.01826 25.9024 4.93855 25.4312C3.84831 24.9607 2.83834 25.2486 2.8354 25.2561C2.82085 25.2523 3.63772 26.6252 4.83069 27.0665Z" fill="url(#paint34_linear_320_69932)"/>
</g>
<g id="Group_24">
<path id="Vector_36" d="M5.84493 22.6793C5.73059 23.7737 5.02419 24.5706 5.01678 24.5684C5.01291 24.5818 4.2605 23.3829 4.44209 22.229C4.61852 21.0862 5.53413 20.5301 5.52652 20.5273C5.52386 20.5378 5.95544 21.5927 5.84493 22.6793Z" fill="url(#paint35_linear_320_69932)"/>
<path id="Vector_37" d="M2.98051 24.3316C4.05439 24.9667 5.05445 24.5403 5.0505 24.5479C5.0393 24.5438 4.34278 23.4074 3.36782 22.7572C2.38298 22.106 1.34545 22.2079 1.34154 22.2148C1.3282 22.2088 1.89455 23.6932 2.98051 24.3316Z" fill="url(#paint36_linear_320_69932)"/>
</g>
<g id="Group_25">
<path id="Vector_38" d="M4.72184 20.2239C4.42559 21.2738 3.59865 21.9262 3.59196 21.9228C3.58624 21.9354 3.05353 20.6318 3.42379 19.5336C3.78749 18.4453 4.77675 18.0624 4.76982 18.0586C4.76547 18.0685 5.01301 19.1812 4.72184 20.2239Z" fill="url(#paint37_linear_320_69932)"/>
<path id="Vector_39" d="M1.6411 21.3277C2.58484 22.1388 3.63438 21.8988 3.62951 21.9056C3.61951 21.8998 3.13109 20.6671 2.28448 19.8562C1.42886 19.0428 0.39511 18.9569 0.390235 18.9632C0.378108 18.9553 0.685959 20.5117 1.6411 21.3277Z" fill="url(#paint38_linear_320_69932)"/>
</g>
<g id="Group_26">
<path id="Vector_40" d="M4.03413 17.6156C3.56911 18.594 2.65047 19.0852 2.64439 19.081C2.63694 19.0925 2.33195 17.719 2.87755 16.7039C3.41513 15.6978 4.44839 15.497 4.44219 15.4922C4.4361 15.5013 4.49275 16.6435 4.03413 17.6156Z" fill="url(#paint39_linear_320_69932)"/>
<path id="Vector_41" d="M0.831748 18.1486C1.62122 19.1136 2.68933 19.0649 2.68325 19.071C2.67467 19.0638 2.40122 17.7676 1.70704 16.8173C1.00455 15.8632 0.00718412 15.5923 0.00126157 15.5977C-0.00953599 15.5881 0.0315995 17.177 0.831748 18.1486Z" fill="url(#paint40_linear_320_69932)"/>
</g>
<g id="Group_27">
<path id="Vector_42" d="M3.79374 14.9274C3.17397 15.81 2.19256 16.1283 2.18724 16.1232C2.1779 16.1335 2.1088 14.725 2.81596 13.818C3.51385 12.9186 4.56045 12.9041 4.55497 12.8984C4.54699 12.9066 4.4057 14.0502 3.79374 14.9274Z" fill="url(#paint41_linear_320_69932)"/>
<path id="Vector_43" d="M0.568332 14.8781C1.17892 15.9724 2.23353 16.1154 2.22648 16.1205C2.21927 16.1121 2.16782 14.7855 1.65063 13.7198C1.12602 12.6492 0.197951 12.2006 0.190981 12.2051C0.181513 12.1941 -0.0520853 13.7759 0.568332 14.8781Z" fill="url(#paint42_linear_320_69932)"/>
</g>
<g id="Group_28">
<path id="Vector_44" d="M4.01919 12.2209C3.25904 12.9862 2.24472 13.1244 2.24025 13.1185C2.22896 13.1273 2.40386 11.7188 3.25844 10.9419C4.10234 10.1712 5.13101 10.3426 5.1263 10.3363C5.11651 10.3432 4.77026 11.4597 4.01919 12.2209Z" fill="url(#paint43_linear_320_69932)"/>
<path id="Vector_45" d="M0.872912 11.5915C1.27931 12.7872 2.28804 13.1177 2.27998 13.1217C2.27418 13.1124 2.45169 11.7882 2.13651 10.6342C1.81484 9.47406 0.989953 8.85989 0.981935 8.86335C0.973877 8.85107 0.457447 10.3864 0.872912 11.5915Z" fill="url(#paint44_linear_320_69932)"/>
</g>
<g id="Group_29">
<path id="Vector_46" d="M4.72622 9.55951C3.84033 10.189 2.82419 10.1442 2.82037 10.1378C2.80715 10.1449 3.2341 8.77149 4.22143 8.14402C5.19672 7.52107 6.17535 7.87344 6.1714 7.86651C6.15972 7.87199 5.60167 8.93289 4.72622 9.55951Z" fill="url(#paint45_linear_320_69932)"/>
<path id="Vector_47" d="M1.76139 8.36967C1.93814 9.63645 2.86758 10.1456 2.85835 10.1483C2.85404 10.1382 3.26737 8.84944 3.17982 7.63677C3.08655 6.41713 2.39953 5.65404 2.39047 5.65634C2.38378 5.64312 1.57654 7.09246 1.76139 8.36967Z" fill="url(#paint46_linear_320_69932)"/>
</g>
<g id="Group_30">
<path id="Vector_48" d="M5.93513 7.01938C4.93873 7.49705 3.95212 7.27151 3.94922 7.26462C3.93399 7.26974 4.62109 5.96666 5.72611 5.50502C6.81759 5.04612 7.71334 5.56985 7.71024 5.56247C7.69658 5.5663 6.91964 6.54304 5.93513 7.01938Z" fill="url(#paint47_linear_320_69932)"/>
<path id="Vector_49" d="M3.25689 5.30176C3.17764 6.60629 3.99378 7.28041 3.9835 7.28186C3.9806 7.27126 4.63688 6.05074 4.80291 4.81204C4.96411 3.56564 4.45042 2.67488 4.44019 2.67589C4.43499 2.66191 3.3288 3.98582 3.25689 5.30176Z" fill="url(#paint48_linear_320_69932)"/>
</g>
<g id="Group_31">
<path id="Vector_50" d="M7.65631 4.65848C6.56515 4.97133 5.64055 4.57146 5.63841 4.56433C5.62125 4.56723 6.57659 3.36979 7.78362 3.08768C8.97567 2.80642 9.75494 3.48719 9.75269 3.47949C9.73702 3.48139 8.73425 4.34535 7.65631 4.65848Z" fill="url(#paint49_linear_320_69932)"/>
<path id="Vector_51" d="M5.37363 2.46303C5.01191 3.76913 5.67979 4.59015 5.66839 4.59015C5.66706 4.57931 6.57313 3.45991 7.01921 2.2306C7.46135 0.993067 7.15716 0.000576394 7.1458 0.000133211C7.14201 -0.0142904 5.7289 1.14468 5.37363 2.46303Z" fill="url(#paint50_linear_320_69932)"/>
</g>
</g>
<g id="Group_32">
<path id="Vector_52" d="M19.474 32.0577L19.4524 31.8183C17.4687 31.9979 15.4913 31.7769 13.5749 31.1615C11.7078 30.562 9.97906 29.6154 8.43679 28.3481C5.23619 25.7181 3.17221 21.9652 2.62487 17.7805C2.17673 14.3538 2.40667 11.3001 3.30826 8.70438C4.27638 5.91699 6.00052 3.73588 8.43276 2.22164L8.30564 2.01758C5.82555 3.56163 4.06776 5.78488 3.08111 8.62553C2.16715 11.257 1.93347 14.3476 2.38648 17.8117C2.94175 22.0571 5.03624 25.865 8.28413 28.5339C9.84994 29.8205 11.6053 30.7816 13.5014 31.3905C15.4486 32.0158 17.4581 32.2403 19.474 32.0577Z" fill="url(#paint51_linear_320_69932)"/>
</g>
</g>
</g>
<path id="Vector_53" d="M19.0773 30.832L17.2605 32.1679L19.0773 33.5039L20.894 32.1679L19.0773 30.832Z" fill="url(#paint52_linear_320_69932)"/>
</g>
<defs>
<linearGradient id="paint0_linear_320_69932" x1="27.8945" y1="1.43298" x2="30.9982" y2="1.43298" gradientUnits="userSpaceOnUse">
<stop stop-color="#A57D24"/>
<stop offset="0.2112" stop-color="#D8BE62"/>
<stop offset="0.328" stop-color="#F1DD80"/>
<stop offset="0.524" stop-color="#FBF2A8"/>
<stop offset="0.7298" stop-color="#F1DD80"/>
<stop offset="1" stop-color="#A57D24"/>
</linearGradient>
<linearGradient id="paint1_linear_320_69932" x1="23.187" y1="29.9304" x2="25.8734" y2="29.9304" gradientUnits="userSpaceOnUse">
<stop stop-color="#A57D24"/>
<stop offset="0.2112" stop-color="#D8BE62"/>
<stop offset="0.328" stop-color="#F1DD80"/>
<stop offset="0.524" stop-color="#FBF2A8"/>
<stop offset="0.7298" stop-color="#F1DD80"/>
<stop offset="1" stop-color="#A57D24"/>
</linearGradient>
<linearGradient id="paint2_linear_320_69932" x1="23.1775" y1="32.1665" x2="27.9248" y2="32.1665" gradientUnits="userSpaceOnUse">
<stop stop-color="#A57D24"/>
<stop offset="0.2112" stop-color="#D8BE62"/>
<stop offset="0.328" stop-color="#F1DD80"/>
<stop offset="0.524" stop-color="#FBF2A8"/>
<stop offset="0.7298" stop-color="#F1DD80"/>
<stop offset="1" stop-color="#A57D24"/>
</linearGradient>
<linearGradient id="paint3_linear_320_69932" x1="26.2966" y1="28.6503" x2="28.3469" y2="28.6503" gradientUnits="userSpaceOnUse">
<stop stop-color="#A57D24"/>
<stop offset="0.2112" stop-color="#D8BE62"/>
<stop offset="0.328" stop-color="#F1DD80"/>
<stop offset="0.524" stop-color="#FBF2A8"/>
<stop offset="0.7298" stop-color="#F1DD80"/>
<stop offset="1" stop-color="#A57D24"/>
</linearGradient>
<linearGradient id="paint4_linear_320_69932" x1="26.3189" y1="30.6387" x2="30.9293" y2="30.6387" gradientUnits="userSpaceOnUse">
<stop stop-color="#A57D24"/>
<stop offset="0.2112" stop-color="#D8BE62"/>
<stop offset="0.328" stop-color="#F1DD80"/>
<stop offset="0.524" stop-color="#FBF2A8"/>
<stop offset="0.7298" stop-color="#F1DD80"/>
<stop offset="1" stop-color="#A57D24"/>
</linearGradient>
<linearGradient id="paint5_linear_320_69932" x1="28.8677" y1="26.9433" x2="30.5302" y2="26.9433" gradientUnits="userSpaceOnUse">
<stop stop-color="#A57D24"/>
<stop offset="0.2112" stop-color="#D8BE62"/>
<stop offset="0.328" stop-color="#F1DD80"/>
<stop offset="0.524" stop-color="#FBF2A8"/>
<stop offset="0.7298" stop-color="#F1DD80"/>
<stop offset="1" stop-color="#A57D24"/>
</linearGradient>
<linearGradient id="paint6_linear_320_69932" x1="29.0547" y1="28.6196" x2="33.4477" y2="28.6196" gradientUnits="userSpaceOnUse">
<stop stop-color="#A57D24"/>
<stop offset="0.2112" stop-color="#D8BE62"/>
<stop offset="0.328" stop-color="#F1DD80"/>
<stop offset="0.524" stop-color="#FBF2A8"/>
<stop offset="0.7298" stop-color="#F1DD80"/>
<stop offset="1" stop-color="#A57D24"/>
</linearGradient>
<linearGradient id="paint7_linear_320_69932" x1="30.907" y1="24.8867" x2="32.3873" y2="24.8867" gradientUnits="userSpaceOnUse">
<stop stop-color="#A57D24"/>
<stop offset="0.2112" stop-color="#D8BE62"/>
<stop offset="0.328" stop-color="#F1DD80"/>
<stop offset="0.524" stop-color="#FBF2A8"/>
<stop offset="0.7298" stop-color="#F1DD80"/>
<stop offset="1" stop-color="#A57D24"/>
</linearGradient>
<linearGradient id="paint8_linear_320_69932" x1="31.3716" y1="26.1948" x2="35.4647" y2="26.1948" gradientUnits="userSpaceOnUse">
<stop stop-color="#A57D24"/>
<stop offset="0.2112" stop-color="#D8BE62"/>
<stop offset="0.328" stop-color="#F1DD80"/>
<stop offset="0.524" stop-color="#FBF2A8"/>
<stop offset="0.7298" stop-color="#F1DD80"/>
<stop offset="1" stop-color="#A57D24"/>
</linearGradient>
<linearGradient id="paint9_linear_320_69932" x1="32.4358" y1="22.548" x2="33.885" y2="22.548" gradientUnits="userSpaceOnUse">
<stop stop-color="#A57D24"/>
<stop offset="0.2112" stop-color="#D8BE62"/>
<stop offset="0.328" stop-color="#F1DD80"/>
<stop offset="0.524" stop-color="#FBF2A8"/>
<stop offset="0.7298" stop-color="#F1DD80"/>
<stop offset="1" stop-color="#A57D24"/>
</linearGradient>
<linearGradient id="paint10_linear_320_69932" x1="33.2481" y1="23.443" x2="36.9573" y2="23.443" gradientUnits="userSpaceOnUse">
<stop stop-color="#A57D24"/>
<stop offset="0.2112" stop-color="#D8BE62"/>
<stop offset="0.328" stop-color="#F1DD80"/>
<stop offset="0.524" stop-color="#FBF2A8"/>
<stop offset="0.7298" stop-color="#F1DD80"/>
<stop offset="1" stop-color="#A57D24"/>
</linearGradient>
<linearGradient id="paint11_linear_320_69932" x1="33.4336" y1="19.9908" x2="35.0045" y2="19.9908" gradientUnits="userSpaceOnUse">
<stop stop-color="#A57D24"/>
<stop offset="0.2112" stop-color="#D8BE62"/>
<stop offset="0.328" stop-color="#F1DD80"/>
<stop offset="0.524" stop-color="#FBF2A8"/>
<stop offset="0.7298" stop-color="#F1DD80"/>
<stop offset="1" stop-color="#A57D24"/>
</linearGradient>
<linearGradient id="paint12_linear_320_69932" x1="34.6685" y1="20.4483" x2="37.9081" y2="20.4483" gradientUnits="userSpaceOnUse">
<stop stop-color="#A57D24"/>
<stop offset="0.2112" stop-color="#D8BE62"/>
<stop offset="0.328" stop-color="#F1DD80"/>
<stop offset="0.524" stop-color="#FBF2A8"/>
<stop offset="0.7298" stop-color="#F1DD80"/>
<stop offset="1" stop-color="#A57D24"/>
</linearGradient>
<linearGradient id="paint13_linear_320_69932" x1="33.857" y1="17.2866" x2="35.7464" y2="17.2866" gradientUnits="userSpaceOnUse">
<stop stop-color="#A57D24"/>
<stop offset="0.2112" stop-color="#D8BE62"/>
<stop offset="0.328" stop-color="#F1DD80"/>
<stop offset="0.524" stop-color="#FBF2A8"/>
<stop offset="0.7298" stop-color="#F1DD80"/>
<stop offset="1" stop-color="#A57D24"/>
</linearGradient>
<linearGradient id="paint14_linear_320_69932" x1="35.6157" y1="17.3343" x2="38.299" y2="17.3343" gradientUnits="userSpaceOnUse">
<stop stop-color="#A57D24"/>
<stop offset="0.2112" stop-color="#D8BE62"/>
<stop offset="0.328" stop-color="#F1DD80"/>
<stop offset="0.524" stop-color="#FBF2A8"/>
<stop offset="0.7298" stop-color="#F1DD80"/>
<stop offset="1" stop-color="#A57D24"/>
</linearGradient>
<linearGradient id="paint15_linear_320_69932" x1="33.7434" y1="14.5108" x2="36.1173" y2="14.5108" gradientUnits="userSpaceOnUse">
<stop stop-color="#A57D24"/>
<stop offset="0.2112" stop-color="#D8BE62"/>
<stop offset="0.328" stop-color="#F1DD80"/>
<stop offset="0.524" stop-color="#FBF2A8"/>
<stop offset="0.7298" stop-color="#F1DD80"/>
<stop offset="1" stop-color="#A57D24"/>
</linearGradient>
<linearGradient id="paint16_linear_320_69932" x1="36.0713" y1="14.1628" x2="38.1577" y2="14.1628" gradientUnits="userSpaceOnUse">
<stop stop-color="#A57D24"/>
<stop offset="0.2112" stop-color="#D8BE62"/>
<stop offset="0.328" stop-color="#F1DD80"/>
<stop offset="0.524" stop-color="#FBF2A8"/>
<stop offset="0.7298" stop-color="#F1DD80"/>
<stop offset="1" stop-color="#A57D24"/>
</linearGradient>
<linearGradient id="paint17_linear_320_69932" x1="33.1724" y1="11.7214" x2="36.0589" y2="11.7214" gradientUnits="userSpaceOnUse">
<stop stop-color="#A57D24"/>
<stop offset="0.2112" stop-color="#D8BE62"/>
<stop offset="0.328" stop-color="#F1DD80"/>
<stop offset="0.524" stop-color="#FBF2A8"/>
<stop offset="0.7298" stop-color="#F1DD80"/>
<stop offset="1" stop-color="#A57D24"/>
</linearGradient>
<linearGradient id="paint18_linear_320_69932" x1="35.9749" y1="10.9925" x2="37.588" y2="10.9925" gradientUnits="userSpaceOnUse">
<stop stop-color="#A57D24"/>
<stop offset="0.2112" stop-color="#D8BE62"/>
<stop offset="0.328" stop-color="#F1DD80"/>
<stop offset="0.524" stop-color="#FBF2A8"/>
<stop offset="0.7298" stop-color="#F1DD80"/>
<stop offset="1" stop-color="#A57D24"/>
</linearGradient>
<linearGradient id="paint19_linear_320_69932" x1="32.1257" y1="8.95717" x2="35.4771" y2="8.95717" gradientUnits="userSpaceOnUse">
<stop stop-color="#A57D24"/>
<stop offset="0.2112" stop-color="#D8BE62"/>
<stop offset="0.328" stop-color="#F1DD80"/>
<stop offset="0.524" stop-color="#FBF2A8"/>
<stop offset="0.7298" stop-color="#F1DD80"/>
<stop offset="1" stop-color="#A57D24"/>
</linearGradient>
<linearGradient id="paint20_linear_320_69932" x1="35.1064" y1="7.9023" x2="36.5645" y2="7.9023" gradientUnits="userSpaceOnUse">
<stop stop-color="#A57D24"/>
<stop offset="0.2112" stop-color="#D8BE62"/>
<stop offset="0.328" stop-color="#F1DD80"/>
<stop offset="0.524" stop-color="#FBF2A8"/>
<stop offset="0.7298" stop-color="#F1DD80"/>
<stop offset="1" stop-color="#A57D24"/>
</linearGradient>
<linearGradient id="paint21_linear_320_69932" x1="30.5901" y1="6.32011" x2="34.3514" y2="6.32011" gradientUnits="userSpaceOnUse">
<stop stop-color="#A57D24"/>
<stop offset="0.2112" stop-color="#D8BE62"/>
<stop offset="0.328" stop-color="#F1DD80"/>
<stop offset="0.524" stop-color="#FBF2A8"/>
<stop offset="0.7298" stop-color="#F1DD80"/>
<stop offset="1" stop-color="#A57D24"/>
</linearGradient>
<linearGradient id="paint22_linear_320_69932" x1="33.4661" y1="4.97883" x2="35.0488" y2="4.97883" gradientUnits="userSpaceOnUse">
<stop stop-color="#A57D24"/>
<stop offset="0.2112" stop-color="#D8BE62"/>
<stop offset="0.328" stop-color="#F1DD80"/>
<stop offset="0.524" stop-color="#FBF2A8"/>
<stop offset="0.7298" stop-color="#F1DD80"/>
<stop offset="1" stop-color="#A57D24"/>
</linearGradient>
<linearGradient id="paint23_linear_320_69932" x1="28.5471" y1="3.89872" x2="32.6616" y2="3.89872" gradientUnits="userSpaceOnUse">
<stop stop-color="#A57D24"/>
<stop offset="0.2112" stop-color="#D8BE62"/>
<stop offset="0.328" stop-color="#F1DD80"/>
<stop offset="0.524" stop-color="#FBF2A8"/>
<stop offset="0.7298" stop-color="#F1DD80"/>
<stop offset="1" stop-color="#A57D24"/>
</linearGradient>
<linearGradient id="paint24_linear_320_69932" x1="31.041" y1="2.29509" x2="33.0332" y2="2.29509" gradientUnits="userSpaceOnUse">
<stop stop-color="#A57D24"/>
<stop offset="0.2112" stop-color="#D8BE62"/>
<stop offset="0.328" stop-color="#F1DD80"/>
<stop offset="0.524" stop-color="#FBF2A8"/>
<stop offset="0.7298" stop-color="#F1DD80"/>
<stop offset="1" stop-color="#A57D24"/>
</linearGradient>
<linearGradient id="paint25_linear_320_69932" x1="18.824" y1="17.0684" x2="36.1359" y2="17.0684" gradientUnits="userSpaceOnUse">
<stop stop-color="#A57D24"/>
<stop offset="0.2112" stop-color="#D8BE62"/>
<stop offset="0.328" stop-color="#F1DD80"/>
<stop offset="0.524" stop-color="#FBF2A8"/>
<stop offset="0.7298" stop-color="#F1DD80"/>
<stop offset="1" stop-color="#A57D24"/>
</linearGradient>
<linearGradient id="paint26_linear_320_69932" x1="7.2998" y1="1.43298" x2="10.4035" y2="1.43298" gradientUnits="userSpaceOnUse">
<stop stop-color="#A57D24"/>
<stop offset="0.2112" stop-color="#D8BE62"/>
<stop offset="0.328" stop-color="#F1DD80"/>
<stop offset="0.524" stop-color="#FBF2A8"/>
<stop offset="0.7298" stop-color="#F1DD80"/>
<stop offset="1" stop-color="#A57D24"/>
</linearGradient>
<linearGradient id="paint27_linear_320_69932" x1="12.4255" y1="29.9324" x2="15.1119" y2="29.9324" gradientUnits="userSpaceOnUse">
<stop stop-color="#A57D24"/>
<stop offset="0.2112" stop-color="#D8BE62"/>
<stop offset="0.328" stop-color="#F1DD80"/>
<stop offset="0.524" stop-color="#FBF2A8"/>
<stop offset="0.7298" stop-color="#F1DD80"/>
<stop offset="1" stop-color="#A57D24"/>
</linearGradient>
<linearGradient id="paint28_linear_320_69932" x1="10.3738" y1="32.1685" x2="15.1211" y2="32.1685" gradientUnits="userSpaceOnUse">
<stop stop-color="#A57D24"/>
<stop offset="0.2112" stop-color="#D8BE62"/>
<stop offset="0.328" stop-color="#F1DD80"/>
<stop offset="0.524" stop-color="#FBF2A8"/>
<stop offset="0.7298" stop-color="#F1DD80"/>
<stop offset="1" stop-color="#A57D24"/>
</linearGradient>
<linearGradient id="paint29_linear_320_69932" x1="9.95117" y1="28.6503" x2="12.0015" y2="28.6503" gradientUnits="userSpaceOnUse">
<stop stop-color="#A57D24"/>
<stop offset="0.2112" stop-color="#D8BE62"/>
<stop offset="0.328" stop-color="#F1DD80"/>
<stop offset="0.524" stop-color="#FBF2A8"/>
<stop offset="0.7298" stop-color="#F1DD80"/>
<stop offset="1" stop-color="#A57D24"/>
</linearGradient>
<linearGradient id="paint30_linear_320_69932" x1="7.36936" y1="30.6387" x2="11.9798" y2="30.6387" gradientUnits="userSpaceOnUse">
<stop stop-color="#A57D24"/>
<stop offset="0.2112" stop-color="#D8BE62"/>
<stop offset="0.328" stop-color="#F1DD80"/>
<stop offset="0.524" stop-color="#FBF2A8"/>
<stop offset="0.7298" stop-color="#F1DD80"/>
<stop offset="1" stop-color="#A57D24"/>
</linearGradient>
<linearGradient id="paint31_linear_320_69932" x1="7.76785" y1="26.9433" x2="9.43037" y2="26.9433" gradientUnits="userSpaceOnUse">
<stop stop-color="#A57D24"/>
<stop offset="0.2112" stop-color="#D8BE62"/>
<stop offset="0.328" stop-color="#F1DD80"/>
<stop offset="0.524" stop-color="#FBF2A8"/>
<stop offset="0.7298" stop-color="#F1DD80"/>
<stop offset="1" stop-color="#A57D24"/>
</linearGradient>
<linearGradient id="paint32_linear_320_69932" x1="4.85056" y1="28.6196" x2="9.2435" y2="28.6196" gradientUnits="userSpaceOnUse">
<stop stop-color="#A57D24"/>
<stop offset="0.2112" stop-color="#D8BE62"/>
<stop offset="0.328" stop-color="#F1DD80"/>
<stop offset="0.524" stop-color="#FBF2A8"/>
<stop offset="0.7298" stop-color="#F1DD80"/>
<stop offset="1" stop-color="#A57D24"/>
</linearGradient>
<linearGradient id="paint33_linear_320_69932" x1="5.91261" y1="24.8867" x2="7.39294" y2="24.8867" gradientUnits="userSpaceOnUse">
<stop stop-color="#A57D24"/>
<stop offset="0.2112" stop-color="#D8BE62"/>
<stop offset="0.328" stop-color="#F1DD80"/>
<stop offset="0.524" stop-color="#FBF2A8"/>
<stop offset="0.7298" stop-color="#F1DD80"/>
<stop offset="1" stop-color="#A57D24"/>
</linearGradient>
<linearGradient id="paint34_linear_320_69932" x1="2.83519" y1="26.1948" x2="6.92828" y2="26.1948" gradientUnits="userSpaceOnUse">
<stop stop-color="#A57D24"/>
<stop offset="0.2112" stop-color="#D8BE62"/>
<stop offset="0.328" stop-color="#F1DD80"/>
<stop offset="0.524" stop-color="#FBF2A8"/>
<stop offset="0.7298" stop-color="#F1DD80"/>
<stop offset="1" stop-color="#A57D24"/>
</linearGradient>
<linearGradient id="paint35_linear_320_69932" x1="4.41378" y1="22.548" x2="5.86302" y2="22.548" gradientUnits="userSpaceOnUse">
<stop stop-color="#A57D24"/>
<stop offset="0.2112" stop-color="#D8BE62"/>
<stop offset="0.328" stop-color="#F1DD80"/>
<stop offset="0.524" stop-color="#FBF2A8"/>
<stop offset="0.7298" stop-color="#F1DD80"/>
<stop offset="1" stop-color="#A57D24"/>
</linearGradient>
<linearGradient id="paint36_linear_320_69932" x1="1.34129" y1="23.443" x2="5.0505" y2="23.443" gradientUnits="userSpaceOnUse">
<stop stop-color="#A57D24"/>
<stop offset="0.2112" stop-color="#D8BE62"/>
<stop offset="0.328" stop-color="#F1DD80"/>
<stop offset="0.524" stop-color="#FBF2A8"/>
<stop offset="0.7298" stop-color="#F1DD80"/>
<stop offset="1" stop-color="#A57D24"/>
</linearGradient>
<linearGradient id="paint37_linear_320_69932" x1="3.29297" y1="19.9908" x2="4.86384" y2="19.9908" gradientUnits="userSpaceOnUse">
<stop stop-color="#A57D24"/>
<stop offset="0.2112" stop-color="#D8BE62"/>
<stop offset="0.328" stop-color="#F1DD80"/>
<stop offset="0.524" stop-color="#FBF2A8"/>
<stop offset="0.7298" stop-color="#F1DD80"/>
<stop offset="1" stop-color="#A57D24"/>
</linearGradient>
<linearGradient id="paint38_linear_320_69932" x1="0.389917" y1="20.4483" x2="3.62952" y2="20.4483" gradientUnits="userSpaceOnUse">
<stop stop-color="#A57D24"/>
<stop offset="0.2112" stop-color="#D8BE62"/>
<stop offset="0.328" stop-color="#F1DD80"/>
<stop offset="0.524" stop-color="#FBF2A8"/>
<stop offset="0.7298" stop-color="#F1DD80"/>
<stop offset="1" stop-color="#A57D24"/>
</linearGradient>
<linearGradient id="paint39_linear_320_69932" x1="2.55274" y1="17.2866" x2="4.4422" y2="17.2866" gradientUnits="userSpaceOnUse">
<stop stop-color="#A57D24"/>
<stop offset="0.2112" stop-color="#D8BE62"/>
<stop offset="0.328" stop-color="#F1DD80"/>
<stop offset="0.524" stop-color="#FBF2A8"/>
<stop offset="0.7298" stop-color="#F1DD80"/>
<stop offset="1" stop-color="#A57D24"/>
</linearGradient>
<linearGradient id="paint40_linear_320_69932" x1="1.26009e-05" y1="17.3343" x2="2.68328" y2="17.3343" gradientUnits="userSpaceOnUse">
<stop stop-color="#A57D24"/>
<stop offset="0.2112" stop-color="#D8BE62"/>
<stop offset="0.328" stop-color="#F1DD80"/>
<stop offset="0.524" stop-color="#FBF2A8"/>
<stop offset="0.7298" stop-color="#F1DD80"/>
<stop offset="1" stop-color="#A57D24"/>
</linearGradient>
<linearGradient id="paint41_linear_320_69932" x1="2.18113" y1="14.5108" x2="4.55498" y2="14.5108" gradientUnits="userSpaceOnUse">
<stop stop-color="#A57D24"/>
<stop offset="0.2112" stop-color="#D8BE62"/>
<stop offset="0.328" stop-color="#F1DD80"/>
<stop offset="0.524" stop-color="#FBF2A8"/>
<stop offset="0.7298" stop-color="#F1DD80"/>
<stop offset="1" stop-color="#A57D24"/>
</linearGradient>
<linearGradient id="paint42_linear_320_69932" x1="0.14014" y1="14.1628" x2="2.22651" y2="14.1628" gradientUnits="userSpaceOnUse">
<stop stop-color="#A57D24"/>
<stop offset="0.2112" stop-color="#D8BE62"/>
<stop offset="0.328" stop-color="#F1DD80"/>
<stop offset="0.524" stop-color="#FBF2A8"/>
<stop offset="0.7298" stop-color="#F1DD80"/>
<stop offset="1" stop-color="#A57D24"/>
</linearGradient>
<linearGradient id="paint43_linear_320_69932" x1="2.23974" y1="11.7214" x2="5.1263" y2="11.7214" gradientUnits="userSpaceOnUse">
<stop stop-color="#A57D24"/>
<stop offset="0.2112" stop-color="#D8BE62"/>
<stop offset="0.328" stop-color="#F1DD80"/>
<stop offset="0.524" stop-color="#FBF2A8"/>
<stop offset="0.7298" stop-color="#F1DD80"/>
<stop offset="1" stop-color="#A57D24"/>
</linearGradient>
<linearGradient id="paint44_linear_320_69932" x1="0.711424" y1="10.9925" x2="2.32457" y2="10.9925" gradientUnits="userSpaceOnUse">
<stop stop-color="#A57D24"/>
<stop offset="0.2112" stop-color="#D8BE62"/>
<stop offset="0.328" stop-color="#F1DD80"/>
<stop offset="0.524" stop-color="#FBF2A8"/>
<stop offset="0.7298" stop-color="#F1DD80"/>
<stop offset="1" stop-color="#A57D24"/>
</linearGradient>
<linearGradient id="paint45_linear_320_69932" x1="2.82007" y1="8.95717" x2="6.17141" y2="8.95717" gradientUnits="userSpaceOnUse">
<stop stop-color="#A57D24"/>
<stop offset="0.2112" stop-color="#D8BE62"/>
<stop offset="0.328" stop-color="#F1DD80"/>
<stop offset="0.524" stop-color="#FBF2A8"/>
<stop offset="0.7298" stop-color="#F1DD80"/>
<stop offset="1" stop-color="#A57D24"/>
</linearGradient>
<linearGradient id="paint46_linear_320_69932" x1="1.7339" y1="7.9023" x2="3.19202" y2="7.9023" gradientUnits="userSpaceOnUse">
<stop stop-color="#A57D24"/>
<stop offset="0.2112" stop-color="#D8BE62"/>
<stop offset="0.328" stop-color="#F1DD80"/>
<stop offset="0.524" stop-color="#FBF2A8"/>
<stop offset="0.7298" stop-color="#F1DD80"/>
<stop offset="1" stop-color="#A57D24"/>
</linearGradient>
<linearGradient id="paint47_linear_320_69932" x1="3.94897" y1="6.32011" x2="7.71025" y2="6.32011" gradientUnits="userSpaceOnUse">
<stop stop-color="#A57D24"/>
<stop offset="0.2112" stop-color="#D8BE62"/>
<stop offset="0.328" stop-color="#F1DD80"/>
<stop offset="0.524" stop-color="#FBF2A8"/>
<stop offset="0.7298" stop-color="#F1DD80"/>
<stop offset="1" stop-color="#A57D24"/>
</linearGradient>
<linearGradient id="paint48_linear_320_69932" x1="3.25148" y1="4.97883" x2="4.83419" y2="4.97883" gradientUnits="userSpaceOnUse">
<stop stop-color="#A57D24"/>
<stop offset="0.2112" stop-color="#D8BE62"/>
<stop offset="0.328" stop-color="#F1DD80"/>
<stop offset="0.524" stop-color="#FBF2A8"/>
<stop offset="0.7298" stop-color="#F1DD80"/>
<stop offset="1" stop-color="#A57D24"/>
</linearGradient>
<linearGradient id="paint49_linear_320_69932" x1="5.63818" y1="3.89872" x2="9.75267" y2="3.89872" gradientUnits="userSpaceOnUse">
<stop stop-color="#A57D24"/>
<stop offset="0.2112" stop-color="#D8BE62"/>
<stop offset="0.328" stop-color="#F1DD80"/>
<stop offset="0.524" stop-color="#FBF2A8"/>
<stop offset="0.7298" stop-color="#F1DD80"/>
<stop offset="1" stop-color="#A57D24"/>
</linearGradient>
<linearGradient id="paint50_linear_320_69932" x1="5.26611" y1="2.29509" x2="7.25831" y2="2.29509" gradientUnits="userSpaceOnUse">
<stop stop-color="#A57D24"/>
<stop offset="0.2112" stop-color="#D8BE62"/>
<stop offset="0.328" stop-color="#F1DD80"/>
<stop offset="0.524" stop-color="#FBF2A8"/>
<stop offset="0.7298" stop-color="#F1DD80"/>
<stop offset="1" stop-color="#A57D24"/>
</linearGradient>
<linearGradient id="paint51_linear_320_69932" x1="2.16211" y1="17.0684" x2="19.474" y2="17.0684" gradientUnits="userSpaceOnUse">
<stop stop-color="#A57D24"/>
<stop offset="0.2112" stop-color="#D8BE62"/>
<stop offset="0.328" stop-color="#F1DD80"/>
<stop offset="0.524" stop-color="#FBF2A8"/>
<stop offset="0.7298" stop-color="#F1DD80"/>
<stop offset="1" stop-color="#A57D24"/>
</linearGradient>
<linearGradient id="paint52_linear_320_69932" x1="17.2605" y1="32.168" x2="20.894" y2="32.168" gradientUnits="userSpaceOnUse">
<stop stop-color="#A57D24"/>
<stop offset="0.2112" stop-color="#D8BE62"/>
<stop offset="0.328" stop-color="#F1DD80"/>
<stop offset="0.524" stop-color="#FBF2A8"/>
<stop offset="0.7298" stop-color="#F1DD80"/>
<stop offset="1" stop-color="#A57D24"/>
</linearGradient>
</defs>
</svg>
