<svg width="52" height="14" viewBox="0 0 52 14" fill="none" xmlns="http://www.w3.org/2000/svg">
<g id="Group 61">
<path id="Star 37" d="M6.79969 0.517578L8.25156 4.98595H12.9499L9.14886 7.74755L10.6007 12.2159L6.79969 9.45432L2.99867 12.2159L4.45053 7.74755L0.64951 4.98595H5.34783L6.79969 0.517578Z" fill="#FFC83D"/>
<path id="Star 38" d="M31.9329 0.517517L33.3847 4.98589H38.083L34.282 7.74749L35.7339 12.2159L31.9329 9.45426L28.1318 12.2159L29.5837 7.74749L25.7827 4.98589H30.481L31.9329 0.517517Z" fill="#FFC83D"/>
<path id="Star 39" d="M19.733 0.518555L21.1849 4.98693H25.8832L22.0822 7.74853L23.5341 12.2169L19.733 9.4553L15.932 12.2169L17.3839 7.74853L13.5829 4.98693H18.2812L19.733 0.518555Z" fill="#FFC83D"/>
<path id="Star 40" d="M44.8663 0.518555L46.3182 4.98693H51.0165L47.2155 7.74853L48.6674 12.2169L44.8663 9.4553L41.0653 12.2169L42.5172 7.74853L38.7162 4.98693H43.4145L44.8663 0.518555Z" fill="#FFC83D"/>
</g>
</svg>
