<svg width="54" height="54" viewBox="0 0 54 54" fill="none" xmlns="http://www.w3.org/2000/svg">
<g id="Instagram">
<circle id="Ellipse 7" cx="26.6916" cy="26.6911" r="26.4977" stroke="black" stroke-width="0.387737"/>
<path id="Insta" d="M34.393 13.2134H18.99C15.8047 13.2134 13.2139 15.8042 13.2139 18.9895V34.3925C13.2139 37.5779 15.8047 40.1687 18.99 40.1687H34.393C37.5784 40.1687 40.1692 37.5778 40.1692 34.3925V18.9895C40.1692 15.8042 37.5783 13.2134 34.393 13.2134ZM38.2438 34.3925C38.2438 36.5165 36.5169 38.2433 34.393 38.2433H18.99C16.8661 38.2433 15.1392 36.5165 15.1392 34.3925V18.9895C15.1392 16.8656 16.8661 15.1388 18.99 15.1388H34.393C36.5169 15.1388 38.2438 16.8656 38.2438 18.9895V34.3925ZM26.6915 18.9895C22.4449 18.9895 18.99 22.4444 18.99 26.691C18.99 30.9376 22.4449 34.3925 26.6915 34.3925C30.9381 34.3925 34.393 30.9376 34.393 26.691C34.393 22.4444 30.9381 18.9895 26.6915 18.9895ZM26.6915 32.4672C23.5062 32.4672 20.9154 29.8763 20.9154 26.691C20.9154 23.5057 23.5062 20.9149 26.6915 20.9149C29.8768 20.9149 32.4676 23.5057 32.4676 26.691C32.4676 29.8763 29.8768 32.4672 26.6915 32.4672ZM35.0766 18.3059C35.2499 18.4888 35.3558 18.7391 35.3558 18.9895C35.3558 19.2398 35.2499 19.49 35.0766 19.673C34.8937 19.8463 34.6434 19.9522 34.3931 19.9522C34.1428 19.9522 33.8925 19.8463 33.7096 19.673C33.5363 19.4901 33.4304 19.2398 33.4304 18.9895C33.4304 18.7391 33.5363 18.4889 33.7096 18.3059C34.0657 17.9594 34.7108 17.9497 35.0766 18.3059Z" fill="black"/>
</g>
</svg>
