<svg width="60" height="60" viewBox="0 0 60 60" fill="none" xmlns="http://www.w3.org/2000/svg">
<g id="Group 76">
<path id="Vector" d="M24 45.9999C23.207 45.9999 22.443 45.6859 21.879 45.1208L13.879 37.1208C12.707 35.9499 12.707 34.0499 13.879 32.8789C15.05 31.7069 16.95 31.7069 18.121 32.8789L23.675 38.4328L39.599 17.1999C40.595 15.8739 42.477 15.6069 43.799 16.5999C45.125 17.5939 45.394 19.4748 44.4 20.7998L26.4 44.7999C25.879 45.4958 25.08 45.9309 24.213 45.9919C24.142 45.9969 24.07 45.9999 24 45.9999Z" fill="white"/>
<g id="Group">
<path id="Vector_2" d="M6 31H1C0.447 31 0 30.553 0 30C0 29.447 0.447 29 1 29H6C6.553 29 7 29.447 7 30C7 30.553 6.553 31 6 31Z" fill="white"/>
<path id="Vector_3" d="M4.88701 45.4998C4.54101 45.4998 4.20501 45.3208 4.02001 44.9998C3.74401 44.5208 3.90801 43.9098 4.38601 43.6338L8.71601 41.1338C9.19301 40.8588 9.80501 41.0208 10.082 41.4998C10.358 41.9788 10.194 42.5898 9.71601 42.8658L5.38601 45.3658C5.22901 45.4568 5.05701 45.4998 4.88701 45.4998Z" fill="white"/>
<path id="Vector_4" d="M15.499 56.1139C15.329 56.1139 15.157 56.0709 15 55.9799C14.521 55.7039 14.357 55.0919 14.634 54.6139L17.134 50.2839C17.411 49.8049 18.022 49.6409 18.5 49.9179C18.978 50.1949 19.143 50.8059 18.866 51.2839L16.366 55.6139C16.18 55.9339 15.845 56.1139 15.499 56.1139Z" fill="white"/>
<path id="Vector_5" d="M30 60C29.447 60 29 59.553 29 59V54C29 53.447 29.447 53 30 53C30.553 53 31 53.447 31 54V59C31 59.553 30.553 60 30 60Z" fill="white"/>
<path id="Vector_6" d="M44.501 56.1134C44.155 56.1134 43.819 55.9344 43.634 55.6134L41.134 51.2834C40.858 50.8044 41.022 50.1934 41.5 49.9174C41.976 49.6414 42.589 49.8044 42.866 50.2834L45.366 54.6134C45.642 55.0924 45.478 55.7034 45 55.9794C44.843 56.0704 44.671 56.1134 44.501 56.1134Z" fill="white"/>
<path id="Vector_7" d="M55.113 45.5002C54.943 45.5002 54.771 45.4572 54.614 45.3662L50.284 42.8662C49.805 42.5902 49.641 41.9782 49.918 41.5002C50.194 41.0212 50.807 40.8582 51.284 41.1342L55.614 43.6342C56.093 43.9102 56.257 44.5222 55.98 45.0002C55.794 45.3212 55.459 45.5002 55.113 45.5002Z" fill="white"/>
<path id="Vector_8" d="M59 31H54C53.447 31 53 30.553 53 30C53 29.447 53.447 29 54 29H59C59.553 29 60 29.447 60 30C60 30.553 59.553 31 59 31Z" fill="white"/>
<path id="Vector_9" d="M50.785 19.0007C50.439 19.0007 50.103 18.8217 49.918 18.5007C49.642 18.0217 49.806 17.4107 50.284 17.1347L54.614 14.6347C55.091 14.3577 55.704 14.5217 55.98 15.0007C56.256 15.4797 56.092 16.0907 55.614 16.3667L51.284 18.8667C51.127 18.9577 50.955 19.0007 50.785 19.0007Z" fill="white"/>
<path id="Vector_10" d="M41.999 10.2154C41.829 10.2154 41.657 10.1724 41.5 10.0814C41.021 9.80545 40.857 9.19345 41.134 8.71545L43.634 4.38545C43.91 3.90645 44.522 3.74245 45 4.01945C45.478 4.29645 45.643 4.90745 45.366 5.38545L42.866 9.71545C42.68 10.0354 42.345 10.2154 41.999 10.2154Z" fill="white"/>
<path id="Vector_11" d="M30 7C29.447 7 29 6.553 29 6V1C29 0.447 29.447 0 30 0C30.553 0 31 0.447 31 1V6C31 6.553 30.553 7 30 7Z" fill="white"/>
<path id="Vector_12" d="M18.001 10.217C17.655 10.217 17.319 10.038 17.134 9.71696L14.634 5.38696C14.358 4.90796 14.522 4.29696 15 4.02096C15.477 3.74496 16.09 3.90796 16.366 4.38696L18.866 8.71696C19.142 9.19596 18.978 9.80696 18.5 10.083C18.343 10.174 18.171 10.217 18.001 10.217Z" fill="white"/>
<path id="Vector_13" d="M9.21506 18.9992C9.04506 18.9992 8.87306 18.9562 8.71606 18.8652L4.38606 16.3652C3.90706 16.0892 3.74306 15.4772 4.02006 14.9992C4.29606 14.5202 4.90806 14.3552 5.38606 14.6332L9.71606 17.1332C10.1951 17.4092 10.3591 18.0212 10.0821 18.4992C9.89606 18.8202 9.56106 18.9992 9.21506 18.9992Z" fill="white"/>
</g>
</g>
</svg>
