<svg width="31" height="41" viewBox="0 0 31 41" fill="none" xmlns="http://www.w3.org/2000/svg">
<g id="Group 72">
<path id="Vector" d="M15.5 0C9.04167 0 3.875 5.125 3.875 11.5312V16.6562C1.67917 16.6562 0 18.3219 0 20.5V37.1562C0 39.3344 1.67917 41 3.875 41H27.125C29.3208 41 31 39.3344 31 37.1562V20.5C31 18.3219 29.3208 16.6562 27.125 16.6562V11.5312C27.125 5.125 21.9583 0 15.5 0ZM28.4167 20.5V37.1562C28.4167 37.925 27.9 38.4375 27.125 38.4375H3.875C3.1 38.4375 2.58333 37.925 2.58333 37.1562V20.5C2.58333 19.7313 3.1 19.2188 3.875 19.2188H5.16667H25.8333H27.125C27.9 19.2188 28.4167 19.7313 28.4167 20.5ZM6.45833 16.6562V11.5312C6.45833 6.53437 10.4625 2.5625 15.5 2.5625C20.5375 2.5625 24.5417 6.53437 24.5417 11.5312V16.6562H6.45833Z" fill="white"/>
<path id="Vector_2" d="M16 23C13.7333 23 12 24.7333 12 27C12 28.7333 13.0667 30.2 14.6667 30.7333V33.6667C14.6667 34.4667 15.2 35 16 35C16.8 35 17.3333 34.4667 17.3333 33.6667V30.7333C18.9333 30.2 20 28.7333 20 27C20 24.7333 18.2667 23 16 23ZM16 28.3333C15.2 28.3333 14.6667 27.8 14.6667 27C14.6667 26.2 15.2 25.6667 16 25.6667C16.8 25.6667 17.3333 26.2 17.3333 27C17.3333 27.8 16.8 28.3333 16 28.3333Z" fill="white"/>
</g>
</svg>
