<svg width="54" height="54" viewBox="0 0 54 54" fill="none" xmlns="http://www.w3.org/2000/svg">
<g id="LinkedIn">
<circle id="Ellipse 7" cx="26.8801" cy="26.6911" r="26.4977" stroke="black" stroke-width="0.387737"/>
<path id="Vector" d="M20.9326 37.4738H16.4797V23.0972H20.9326V37.4738ZM21.3769 18.5168C21.3769 17.0773 20.209 15.9089 18.7703 15.9089C17.326 15.9089 16.1611 17.0773 16.1611 18.5168C16.1611 19.9568 17.326 21.1252 18.7703 21.1252C20.209 21.1252 21.3769 19.9568 21.3769 18.5168ZM37.5987 29.5644C37.5987 25.7051 36.7835 22.8428 32.2751 22.8428C30.1088 22.8428 28.6546 23.9262 28.061 25.0528H28.0568V23.0972H23.7311V37.4738H28.0568V30.3357C28.0568 28.4663 28.5326 26.6553 30.8498 26.6553C33.1354 26.6553 33.2094 28.7931 33.2094 30.4545V37.4738H37.5987V29.5644Z" fill="black"/>
</g>
</svg>
