<svg width="200" height="37" viewBox="0 0 200 37" fill="none" xmlns="http://www.w3.org/2000/svg">
<path d="M16.0771 0.855572V5.34785H7.95647V8.91864H13.9462V13.2093H7.95647V21.1572H2.31232V0.855572H16.0771ZM24.5591 0.855572V12.6334C24.5591 13.7277 24.8087 14.5724 25.3078 15.1675C25.8262 15.7627 26.6037 16.0602 27.6403 16.0602C28.677 16.0602 29.4545 15.7627 29.9729 15.1675C30.5104 14.5532 30.7792 13.7085 30.7792 12.6334V0.855572H36.4233V12.6334C36.4233 14.4956 36.0298 16.089 35.2427 17.4137C34.4556 18.7191 33.3805 19.7078 32.0174 20.3797C30.6736 21.0324 29.1762 21.3588 27.5252 21.3588C25.8741 21.3588 24.3959 21.0324 23.0905 20.3797C21.8042 19.7078 20.7867 18.7191 20.038 17.4137C19.3085 16.1082 18.9437 14.5148 18.9437 12.6334V0.855572H24.5591ZM55.3979 0.855572V5.34785H49.9841V21.1572H44.3399V5.34785H38.9838V0.855572H55.3979ZM63.591 0.855572V12.6334C63.591 13.7277 63.8405 14.5724 64.3397 15.1675C64.858 15.7627 65.6355 16.0602 66.6722 16.0602C67.7089 16.0602 68.4864 15.7627 69.0047 15.1675C69.5423 14.5532 69.811 13.7085 69.811 12.6334V0.855572H75.4552V12.6334C75.4552 14.4956 75.0616 16.089 74.2745 17.4137C73.4874 18.7191 72.4123 19.7078 71.0493 20.3797C69.7055 21.0324 68.208 21.3588 66.557 21.3588C64.906 21.3588 63.4278 21.0324 62.1223 20.3797C60.8361 19.7078 59.8186 18.7191 59.0699 17.4137C58.3404 16.1082 57.9756 14.5148 57.9756 12.6334V0.855572H63.591ZM89.4191 21.1572L85.3876 13.6701H84.7828V21.1572H79.1387V0.855572H88.0369C89.6687 0.855572 91.0509 1.14354 92.1836 1.71947C93.3163 2.27621 94.1706 3.05372 94.7465 4.052C95.3224 5.03109 95.6104 6.13496 95.6104 7.36362C95.6104 8.74586 95.2264 9.96492 94.4585 11.0208C93.7098 12.0575 92.6059 12.7966 91.1469 13.2381L95.7256 21.1572H89.4191ZM84.7828 9.81134H87.5761C88.344 9.81134 88.92 9.62896 89.3039 9.2642C89.6879 8.89944 89.8798 8.3715 89.8798 7.68038C89.8798 7.02766 89.6783 6.51892 89.2751 6.15416C88.8912 5.7702 88.3248 5.57823 87.5761 5.57823H84.7828V9.81134ZM104.397 5.37665V8.68827H110.876V12.979H104.397V16.6361H111.74V21.1572H98.753V0.855572H111.74V5.37665H104.397ZM137.233 7.62279C137.233 8.85145 136.945 9.97452 136.369 10.992C135.812 11.9903 134.958 12.7966 133.806 13.4109C132.673 14.0061 131.282 14.3036 129.63 14.3036H126.837V21.1572H121.193V0.855572H129.63C131.262 0.855572 132.645 1.14354 133.777 1.71947C134.929 2.29541 135.793 3.09211 136.369 4.1096C136.945 5.12708 137.233 6.29814 137.233 7.62279ZM129.083 9.81134C130.677 9.81134 131.473 9.08182 131.473 7.62279C131.473 6.14456 130.677 5.40545 129.083 5.40545H126.837V9.81134H129.083ZM152.92 17.8456H145.72L144.626 21.1572H138.694L146.095 0.855572H152.603L159.975 21.1572H154.014L152.92 17.8456ZM151.509 13.5261L149.32 6.96047L147.16 13.5261H151.509ZM180.849 0.855572L173.707 14.7068V21.1572H168.034V14.7068L160.893 0.855572H167.343L170.914 8.68827L174.485 0.855572H180.849ZM190.818 21.3588C188.456 21.3588 186.517 20.8021 185.001 19.6886C183.484 18.5559 182.668 16.9433 182.553 14.8508H188.571C188.629 15.5611 188.84 16.0794 189.205 16.4058C189.57 16.7321 190.04 16.8953 190.616 16.8953C191.134 16.8953 191.557 16.7705 191.883 16.521C192.229 16.2522 192.401 15.8874 192.401 15.4267C192.401 14.8316 192.123 14.3708 191.566 14.0444C191.01 13.7181 190.107 13.3533 188.859 12.9502C187.535 12.5086 186.46 12.0863 185.634 11.6831C184.828 11.2608 184.118 10.656 183.503 9.86893C182.908 9.06262 182.611 8.01634 182.611 6.73009C182.611 5.42464 182.937 4.31117 183.59 3.38968C184.242 2.44899 185.145 1.73867 186.296 1.25873C187.448 0.778782 188.754 0.53881 190.213 0.53881C192.574 0.53881 194.456 1.09554 195.857 2.20902C197.278 3.30329 198.036 4.84871 198.132 6.84528H191.998C191.979 6.23095 191.787 5.7702 191.422 5.46304C191.077 5.15588 190.626 5.00229 190.069 5.00229C189.647 5.00229 189.301 5.12708 189.032 5.37665C188.763 5.62622 188.629 5.98138 188.629 6.44213C188.629 6.82608 188.773 7.16204 189.061 7.45001C189.368 7.71878 189.742 7.95875 190.184 8.16993C190.626 8.36191 191.278 8.61148 192.142 8.91864C193.428 9.36019 194.484 9.80174 195.31 10.2433C196.155 10.6656 196.874 11.2704 197.47 12.0575C198.084 12.8254 198.391 13.8045 198.391 14.9947C198.391 16.2042 198.084 17.2889 197.47 18.2488C196.874 19.2087 196.001 19.967 194.849 20.5237C193.716 21.0804 192.373 21.3588 190.818 21.3588Z" fill="white"/>
<path d="M50.9947 27.5436V33.7979H49.9689V27.5436H50.9947ZM55.0233 28.7584C55.4133 28.7584 55.7612 28.8394 56.0672 29.0014C56.3792 29.1634 56.6221 29.4034 56.7961 29.7213C56.9701 30.0393 57.0571 30.4232 57.0571 30.8732V33.7979H56.0402V31.0262C56.0402 30.5822 55.9292 30.2433 55.7073 30.0093C55.4853 29.7693 55.1823 29.6493 54.7984 29.6493C54.4144 29.6493 54.1084 29.7693 53.8805 30.0093C53.6585 30.2433 53.5475 30.5822 53.5475 31.0262V33.7979H52.5216V28.8394H53.5475V29.4064C53.7155 29.2024 53.9285 29.0434 54.1864 28.9294C54.4504 28.8154 54.7294 28.7584 55.0233 28.7584ZM60.4624 32.88L61.8663 28.8394H62.9551L61.0654 33.7979H59.8415L57.9607 28.8394H59.0586L60.4624 32.88ZM68.4551 31.1972C68.4551 31.3831 68.4431 31.5511 68.4191 31.7011H64.6305C64.6605 32.097 64.8075 32.415 65.0714 32.655C65.3354 32.895 65.6594 33.0149 66.0433 33.0149C66.5953 33.0149 66.9852 32.784 67.2132 32.322H68.3201C68.1701 32.778 67.8971 33.1529 67.5012 33.4469C67.1112 33.7349 66.6253 33.8788 66.0433 33.8788C65.5694 33.8788 65.1434 33.7739 64.7655 33.5639C64.3935 33.3479 64.0996 33.0479 63.8836 32.664C63.6736 32.274 63.5686 31.8241 63.5686 31.3141C63.5686 30.8042 63.6706 30.3572 63.8746 29.9733C64.0846 29.5833 64.3755 29.2834 64.7475 29.0734C65.1254 28.8634 65.5574 28.7584 66.0433 28.7584C66.5113 28.7584 66.9282 28.8604 67.2942 29.0644C67.6601 29.2684 67.9451 29.5563 68.1491 29.9283C68.3531 30.2943 68.4551 30.7172 68.4551 31.1972ZM67.3842 30.8732C67.3782 30.4952 67.2432 30.1923 66.9792 29.9643C66.7153 29.7363 66.3883 29.6223 65.9983 29.6223C65.6444 29.6223 65.3414 29.7363 65.0894 29.9643C64.8375 30.1863 64.6875 30.4892 64.6395 30.8732H67.3842ZM71.4444 33.8788C71.0544 33.8788 70.7035 33.8099 70.3915 33.6719C70.0855 33.5279 69.8426 33.3359 69.6626 33.0959C69.4826 32.85 69.3866 32.577 69.3746 32.277H70.4365C70.4545 32.487 70.5535 32.664 70.7335 32.808C70.9195 32.946 71.1504 33.0149 71.4264 33.0149C71.7144 33.0149 71.9363 32.9609 72.0923 32.853C72.2543 32.739 72.3353 32.595 72.3353 32.421C72.3353 32.235 72.2453 32.097 72.0653 32.0071C71.8913 31.9171 71.6124 31.8181 71.2284 31.7101C70.8565 31.6081 70.5535 31.5091 70.3195 31.4131C70.0855 31.3171 69.8816 31.1702 69.7076 30.9722C69.5396 30.7742 69.4556 30.5132 69.4556 30.1893C69.4556 29.9253 69.5336 29.6853 69.6896 29.4694C69.8456 29.2474 70.0676 29.0734 70.3555 28.9474C70.6495 28.8214 70.9854 28.7584 71.3634 28.7584C71.9273 28.7584 72.3803 28.9024 72.7222 29.1904C73.0702 29.4724 73.2562 29.8593 73.2802 30.3512H72.2543C72.2363 30.1293 72.1463 29.9523 71.9843 29.8203C71.8223 29.6883 71.6034 29.6223 71.3274 29.6223C71.0574 29.6223 70.8505 29.6733 70.7065 29.7753C70.5625 29.8773 70.4905 30.0123 70.4905 30.1803C70.4905 30.3123 70.5385 30.4232 70.6345 30.5132C70.7305 30.6032 70.8475 30.6752 70.9854 30.7292C71.1234 30.7772 71.3274 30.8402 71.5974 30.9182C71.9573 31.0142 72.2513 31.1132 72.4793 31.2152C72.7132 31.3111 72.9142 31.4551 73.0822 31.6471C73.2502 31.8391 73.3372 32.094 73.3432 32.412C73.3432 32.694 73.2652 32.946 73.1092 33.1679C72.9532 33.3899 72.7312 33.5639 72.4433 33.6899C72.1613 33.8158 71.8283 33.8788 71.4444 33.8788ZM75.8285 29.6763V32.421C75.8285 32.607 75.8705 32.742 75.9545 32.826C76.0445 32.904 76.1945 32.943 76.4044 32.943H77.0344V33.7979H76.2245C75.7625 33.7979 75.4086 33.6899 75.1626 33.4739C74.9166 33.2579 74.7936 32.907 74.7936 32.421V29.6763H74.2087V28.8394H74.7936V27.6066H75.8285V28.8394H77.0344V29.6763H75.8285ZM84.718 27.5436V28.3805H83.0532V33.7979H82.0273V28.3805H80.3535V27.5436H84.718ZM88.0877 33.8788C87.6197 33.8788 87.1968 33.7739 86.8188 33.5639C86.4409 33.3479 86.1439 33.0479 85.9279 32.664C85.712 32.274 85.604 31.8241 85.604 31.3141C85.604 30.8102 85.715 30.3632 85.9369 29.9733C86.1589 29.5833 86.4619 29.2834 86.8458 29.0734C87.2298 28.8634 87.6587 28.7584 88.1327 28.7584C88.6066 28.7584 89.0356 28.8634 89.4195 29.0734C89.8035 29.2834 90.1065 29.5833 90.3284 29.9733C90.5504 30.3632 90.6614 30.8102 90.6614 31.3141C90.6614 31.8181 90.5474 32.265 90.3194 32.655C90.0915 33.0449 89.7795 33.3479 89.3835 33.5639C88.9936 33.7739 88.5616 33.8788 88.0877 33.8788ZM88.0877 32.9879C88.3517 32.9879 88.5976 32.925 88.8256 32.799C89.0596 32.673 89.2486 32.484 89.3925 32.232C89.5365 31.9801 89.6085 31.6741 89.6085 31.3141C89.6085 30.9542 89.5395 30.6512 89.4015 30.4052C89.2635 30.1533 89.0806 29.9643 88.8526 29.8383C88.6246 29.7123 88.3787 29.6493 88.1147 29.6493C87.8507 29.6493 87.6047 29.7123 87.3768 29.8383C87.1548 29.9643 86.9778 30.1533 86.8458 30.4052C86.7138 30.6512 86.6479 30.9542 86.6479 31.3141C86.6479 31.8481 86.7828 32.262 87.0528 32.556C87.3288 32.844 87.6737 32.9879 88.0877 32.9879ZM91.5135 31.2961C91.5135 30.7982 91.6155 30.3572 91.8195 29.9733C92.0295 29.5893 92.3115 29.2924 92.6654 29.0824C93.0254 28.8664 93.4243 28.7584 93.8623 28.7584C94.1862 28.7584 94.5042 28.8304 94.8162 28.9744C95.1341 29.1124 95.3861 29.2984 95.5721 29.5323V27.1386H96.607V33.7979H95.5721V33.0509C95.4041 33.2909 95.1701 33.4889 94.8702 33.6449C94.5762 33.8009 94.2372 33.8788 93.8533 33.8788C93.4213 33.8788 93.0254 33.7709 92.6654 33.5549C92.3115 33.3329 92.0295 33.0269 91.8195 32.637C91.6155 32.241 91.5135 31.7941 91.5135 31.2961ZM95.5721 31.3141C95.5721 30.9722 95.5001 30.6752 95.3561 30.4232C95.2181 30.1713 95.0351 29.9793 94.8072 29.8473C94.5792 29.7153 94.3332 29.6493 94.0693 29.6493C93.8053 29.6493 93.5593 29.7153 93.3313 29.8473C93.1034 29.9733 92.9174 30.1623 92.7734 30.4142C92.6354 30.6602 92.5664 30.9542 92.5664 31.2961C92.5664 31.6381 92.6354 31.9381 92.7734 32.196C92.9174 32.454 93.1034 32.652 93.3313 32.79C93.5653 32.922 93.8113 32.9879 94.0693 32.9879C94.3332 32.9879 94.5792 32.922 94.8072 32.79C95.0351 32.658 95.2181 32.466 95.3561 32.214C95.5001 31.9561 95.5721 31.6561 95.5721 31.3141ZM97.7924 31.2961C97.7924 30.7982 97.8944 30.3572 98.0984 29.9733C98.3084 29.5893 98.5903 29.2924 98.9443 29.0824C99.3043 28.8664 99.7002 28.7584 100.132 28.7584C100.522 28.7584 100.861 28.8364 101.149 28.9924C101.443 29.1424 101.677 29.3314 101.851 29.5593V28.8394H102.886V33.7979H101.851V33.0599C101.677 33.2939 101.44 33.4889 101.14 33.6449C100.84 33.8009 100.498 33.8788 100.114 33.8788C99.6882 33.8788 99.2983 33.7709 98.9443 33.5549C98.5903 33.3329 98.3084 33.0269 98.0984 32.637C97.8944 32.241 97.7924 31.7941 97.7924 31.2961ZM101.851 31.3141C101.851 30.9722 101.779 30.6752 101.635 30.4232C101.497 30.1713 101.314 29.9793 101.086 29.8473C100.858 29.7153 100.612 29.6493 100.348 29.6493C100.084 29.6493 99.8382 29.7153 99.6102 29.8473C99.3822 29.9733 99.1963 30.1623 99.0523 30.4142C98.9143 30.6602 98.8453 30.9542 98.8453 31.2961C98.8453 31.6381 98.9143 31.9381 99.0523 32.196C99.1963 32.454 99.3822 32.652 99.6102 32.79C99.8442 32.922 100.09 32.9879 100.348 32.9879C100.612 32.9879 100.858 32.922 101.086 32.79C101.314 32.658 101.497 32.466 101.635 32.214C101.779 31.9561 101.851 31.6561 101.851 31.3141ZM108.877 28.8394L105.835 36.1286H104.773L105.781 33.7169L103.828 28.8394H104.971L106.366 32.619L107.815 28.8394H108.877ZM110.956 32.565L109.867 35.0487H109.201L109.84 32.565H110.956ZM118.923 29.4064C118.923 29.7243 118.848 30.0243 118.698 30.3063C118.548 30.5882 118.308 30.8192 117.978 30.9992C117.648 31.1732 117.225 31.2601 116.71 31.2601H115.576V33.7979H114.55V27.5436H116.71C117.189 27.5436 117.594 27.6276 117.924 27.7955C118.26 27.9575 118.509 28.1795 118.671 28.4615C118.839 28.7434 118.923 29.0584 118.923 29.4064ZM116.71 30.4232C117.099 30.4232 117.39 30.3363 117.582 30.1623C117.774 29.9823 117.87 29.7303 117.87 29.4064C117.87 28.7224 117.483 28.3805 116.71 28.3805H115.576V30.4232H116.71ZM121.108 29.5593C121.258 29.3074 121.456 29.1124 121.701 28.9744C121.953 28.8304 122.25 28.7584 122.592 28.7584V29.8203H122.331C121.929 29.8203 121.623 29.9223 121.414 30.1263C121.21 30.3303 121.108 30.6842 121.108 31.1882V33.7979H120.082V28.8394H121.108V29.5593ZM125.866 33.8788C125.398 33.8788 124.975 33.7739 124.597 33.5639C124.219 33.3479 123.922 33.0479 123.706 32.664C123.49 32.274 123.382 31.8241 123.382 31.3141C123.382 30.8102 123.493 30.3632 123.715 29.9733C123.937 29.5833 124.24 29.2834 124.624 29.0734C125.008 28.8634 125.437 28.7584 125.911 28.7584C126.385 28.7584 126.814 28.8634 127.198 29.0734C127.582 29.2834 127.885 29.5833 128.107 29.9733C128.329 30.3632 128.44 30.8102 128.44 31.3141C128.44 31.8181 128.326 32.265 128.098 32.655C127.87 33.0449 127.558 33.3479 127.162 33.5639C126.772 33.7739 126.34 33.8788 125.866 33.8788ZM125.866 32.9879C126.13 32.9879 126.376 32.925 126.604 32.799C126.838 32.673 127.027 32.484 127.171 32.232C127.315 31.9801 127.387 31.6741 127.387 31.3141C127.387 30.9542 127.318 30.6512 127.18 30.4052C127.042 30.1533 126.859 29.9643 126.631 29.8383C126.403 29.7123 126.157 29.6493 125.893 29.6493C125.629 29.6493 125.383 29.7123 125.155 29.8383C124.933 29.9643 124.756 30.1533 124.624 30.4052C124.492 30.6512 124.426 30.9542 124.426 31.3141C124.426 31.8481 124.561 32.262 124.831 32.556C125.107 32.844 125.452 32.9879 125.866 32.9879ZM131.434 33.8788C131.044 33.8788 130.693 33.8099 130.381 33.6719C130.075 33.5279 129.832 33.3359 129.652 33.0959C129.472 32.85 129.376 32.577 129.364 32.277H130.426C130.444 32.487 130.543 32.664 130.723 32.808C130.909 32.946 131.14 33.0149 131.416 33.0149C131.704 33.0149 131.926 32.9609 132.082 32.853C132.244 32.739 132.325 32.595 132.325 32.421C132.325 32.235 132.235 32.097 132.055 32.0071C131.881 31.9171 131.602 31.8181 131.218 31.7101C130.846 31.6081 130.543 31.5091 130.309 31.4131C130.075 31.3171 129.871 31.1702 129.697 30.9722C129.529 30.7742 129.445 30.5132 129.445 30.1893C129.445 29.9253 129.523 29.6853 129.679 29.4694C129.835 29.2474 130.057 29.0734 130.345 28.9474C130.639 28.8214 130.975 28.7584 131.353 28.7584C131.917 28.7584 132.37 28.9024 132.712 29.1904C133.06 29.4724 133.245 29.8593 133.269 30.3512H132.244C132.226 30.1293 132.136 29.9523 131.974 29.8203C131.812 29.6883 131.593 29.6223 131.317 29.6223C131.047 29.6223 130.84 29.6733 130.696 29.7753C130.552 29.8773 130.48 30.0123 130.48 30.1803C130.48 30.3123 130.528 30.4232 130.624 30.5132C130.72 30.6032 130.837 30.6752 130.975 30.7292C131.113 30.7772 131.317 30.8402 131.587 30.9182C131.947 31.0142 132.241 31.1132 132.469 31.2152C132.703 31.3111 132.904 31.4551 133.072 31.6471C133.239 31.8391 133.326 32.094 133.332 32.412C133.332 32.694 133.254 32.946 133.099 33.1679C132.943 33.3899 132.721 33.5639 132.433 33.6899C132.151 33.8158 131.818 33.8788 131.434 33.8788ZM135.647 29.5683C135.821 29.3404 136.058 29.1484 136.358 28.9924C136.658 28.8364 136.997 28.7584 137.375 28.7584C137.807 28.7584 138.2 28.8664 138.553 29.0824C138.913 29.2924 139.195 29.5893 139.399 29.9733C139.603 30.3572 139.705 30.7982 139.705 31.2961C139.705 31.7941 139.603 32.241 139.399 32.637C139.195 33.0269 138.913 33.3329 138.553 33.5549C138.2 33.7709 137.807 33.8788 137.375 33.8788C136.997 33.8788 136.661 33.8039 136.367 33.6539C136.073 33.4979 135.833 33.3059 135.647 33.0779V36.1556H134.621V28.8394H135.647V29.5683ZM138.661 31.2961C138.661 30.9542 138.589 30.6602 138.446 30.4142C138.308 30.1623 138.122 29.9733 137.888 29.8473C137.66 29.7153 137.414 29.6493 137.15 29.6493C136.892 29.6493 136.646 29.7153 136.412 29.8473C136.184 29.9793 135.998 30.1713 135.854 30.4232C135.716 30.6752 135.647 30.9722 135.647 31.3141C135.647 31.6561 135.716 31.9561 135.854 32.214C135.998 32.466 136.184 32.658 136.412 32.79C136.646 32.922 136.892 32.9879 137.15 32.9879C137.414 32.9879 137.66 32.922 137.888 32.79C138.122 32.652 138.308 32.454 138.446 32.196C138.589 31.9381 138.661 31.6381 138.661 31.2961ZM145.444 31.1972C145.444 31.3831 145.432 31.5511 145.408 31.7011H141.62C141.65 32.097 141.797 32.415 142.061 32.655C142.325 32.895 142.649 33.0149 143.033 33.0149C143.585 33.0149 143.974 32.784 144.202 32.322H145.309C145.159 32.778 144.886 33.1529 144.49 33.4469C144.1 33.7349 143.615 33.8788 143.033 33.8788C142.559 33.8788 142.133 33.7739 141.755 33.5639C141.383 33.3479 141.089 33.0479 140.873 32.664C140.663 32.274 140.558 31.8241 140.558 31.3141C140.558 30.8042 140.66 30.3572 140.864 29.9733C141.074 29.5833 141.365 29.2834 141.737 29.0734C142.115 28.8634 142.547 28.7584 143.033 28.7584C143.501 28.7584 143.917 28.8604 144.283 29.0644C144.649 29.2684 144.934 29.5563 145.138 29.9283C145.342 30.2943 145.444 30.7172 145.444 31.1972ZM144.373 30.8732C144.367 30.4952 144.232 30.1923 143.968 29.9643C143.705 29.7363 143.378 29.6223 142.988 29.6223C142.634 29.6223 142.331 29.7363 142.079 29.9643C141.827 30.1863 141.677 30.4892 141.629 30.8732H144.373ZM147.66 29.5593C147.81 29.3074 148.008 29.1124 148.254 28.9744C148.506 28.8304 148.803 28.7584 149.145 28.7584V29.8203H148.884C148.482 29.8203 148.176 29.9223 147.966 30.1263C147.762 30.3303 147.66 30.6842 147.66 31.1882V33.7979H146.634V28.8394H147.66V29.5593ZM156.826 27.5436V28.3805H155.161V33.7979H154.135V28.3805H152.461V27.5436H156.826ZM160.195 33.8788C159.727 33.8788 159.304 33.7739 158.927 33.5639C158.549 33.3479 158.252 33.0479 158.036 32.664C157.82 32.274 157.712 31.8241 157.712 31.3141C157.712 30.8102 157.823 30.3632 158.045 29.9733C158.267 29.5833 158.57 29.2834 158.954 29.0734C159.337 28.8634 159.766 28.7584 160.24 28.7584C160.714 28.7584 161.143 28.8634 161.527 29.0734C161.911 29.2834 162.214 29.5833 162.436 29.9733C162.658 30.3632 162.769 30.8102 162.769 31.3141C162.769 31.8181 162.655 32.265 162.427 32.655C162.199 33.0449 161.887 33.3479 161.491 33.5639C161.101 33.7739 160.669 33.8788 160.195 33.8788ZM160.195 32.9879C160.459 32.9879 160.705 32.925 160.933 32.799C161.167 32.673 161.356 32.484 161.5 32.232C161.644 31.9801 161.716 31.6741 161.716 31.3141C161.716 30.9542 161.647 30.6512 161.509 30.4052C161.371 30.1533 161.188 29.9643 160.96 29.8383C160.732 29.7123 160.486 29.6493 160.222 29.6493C159.958 29.6493 159.712 29.7123 159.484 29.8383C159.262 29.9643 159.085 30.1533 158.954 30.4052C158.822 30.6512 158.756 30.9542 158.756 31.3141C158.756 31.8481 158.891 32.262 159.16 32.556C159.436 32.844 159.781 32.9879 160.195 32.9879ZM169.965 28.7584C170.355 28.7584 170.703 28.8394 171.009 29.0014C171.321 29.1634 171.564 29.4034 171.738 29.7213C171.918 30.0393 172.008 30.4232 172.008 30.8732V33.7979H170.991V31.0262C170.991 30.5822 170.88 30.2433 170.658 30.0093C170.436 29.7693 170.133 29.6493 169.75 29.6493C169.366 29.6493 169.06 29.7693 168.832 30.0093C168.61 30.2433 168.499 30.5822 168.499 31.0262V33.7979H167.482V31.0262C167.482 30.5822 167.371 30.2433 167.149 30.0093C166.927 29.7693 166.624 29.6493 166.24 29.6493C165.856 29.6493 165.55 29.7693 165.322 30.0093C165.1 30.2433 164.989 30.5822 164.989 31.0262V33.7979H163.963V28.8394H164.989V29.4064C165.157 29.2024 165.37 29.0434 165.628 28.9294C165.886 28.8154 166.162 28.7584 166.456 28.7584C166.852 28.7584 167.206 28.8424 167.518 29.0104C167.83 29.1784 168.07 29.4214 168.238 29.7393C168.388 29.4394 168.622 29.2024 168.94 29.0284C169.258 28.8484 169.6 28.7584 169.965 28.7584ZM175.644 33.8788C175.176 33.8788 174.754 33.7739 174.376 33.5639C173.998 33.3479 173.701 33.0479 173.485 32.664C173.269 32.274 173.161 31.8241 173.161 31.3141C173.161 30.8102 173.272 30.3632 173.494 29.9733C173.716 29.5833 174.019 29.2834 174.403 29.0734C174.786 28.8634 175.215 28.7584 175.689 28.7584C176.163 28.7584 176.592 28.8634 176.976 29.0734C177.36 29.2834 177.663 29.5833 177.885 29.9733C178.107 30.3632 178.218 30.8102 178.218 31.3141C178.218 31.8181 178.104 32.265 177.876 32.655C177.648 33.0449 177.336 33.3479 176.94 33.5639C176.55 33.7739 176.118 33.8788 175.644 33.8788ZM175.644 32.9879C175.908 32.9879 176.154 32.925 176.382 32.799C176.616 32.673 176.805 32.484 176.949 32.232C177.093 31.9801 177.165 31.6741 177.165 31.3141C177.165 30.9542 177.096 30.6512 176.958 30.4052C176.82 30.1533 176.637 29.9643 176.409 29.8383C176.181 29.7123 175.935 29.6493 175.671 29.6493C175.407 29.6493 175.161 29.7123 174.933 29.8383C174.712 29.9643 174.535 30.1533 174.403 30.4052C174.271 30.6512 174.205 30.9542 174.205 31.3141C174.205 31.8481 174.34 32.262 174.61 32.556C174.885 32.844 175.23 32.9879 175.644 32.9879ZM180.438 29.5593C180.588 29.3074 180.786 29.1124 181.032 28.9744C181.284 28.8304 181.581 28.7584 181.923 28.7584V29.8203H181.662C181.26 29.8203 180.954 29.9223 180.744 30.1263C180.54 30.3303 180.438 30.6842 180.438 31.1882V33.7979H179.412V28.8394H180.438V29.5593ZM184.072 29.5593C184.222 29.3074 184.42 29.1124 184.666 28.9744C184.918 28.8304 185.215 28.7584 185.557 28.7584V29.8203H185.296C184.894 29.8203 184.588 29.9223 184.378 30.1263C184.174 30.3303 184.072 30.6842 184.072 31.1882V33.7979H183.046V28.8394H184.072V29.5593ZM188.83 33.8788C188.362 33.8788 187.939 33.7739 187.561 33.5639C187.184 33.3479 186.887 33.0479 186.671 32.664C186.455 32.274 186.347 31.8241 186.347 31.3141C186.347 30.8102 186.458 30.3632 186.68 29.9733C186.902 29.5833 187.205 29.2834 187.588 29.0734C187.972 28.8634 188.401 28.7584 188.875 28.7584C189.349 28.7584 189.778 28.8634 190.162 29.0734C190.546 29.2834 190.849 29.5833 191.071 29.9733C191.293 30.3632 191.404 30.8102 191.404 31.3141C191.404 31.8181 191.29 32.265 191.062 32.655C190.834 33.0449 190.522 33.3479 190.126 33.5639C189.736 33.7739 189.304 33.8788 188.83 33.8788ZM188.83 32.9879C189.094 32.9879 189.34 32.925 189.568 32.799C189.802 32.673 189.991 32.484 190.135 32.232C190.279 31.9801 190.351 31.6741 190.351 31.3141C190.351 30.9542 190.282 30.6512 190.144 30.4052C190.006 30.1533 189.823 29.9643 189.595 29.8383C189.367 29.7123 189.121 29.6493 188.857 29.6493C188.593 29.6493 188.347 29.7123 188.119 29.8383C187.897 29.9643 187.72 30.1533 187.588 30.4052C187.456 30.6512 187.39 30.9542 187.39 31.3141C187.39 31.8481 187.525 32.262 187.795 32.556C188.071 32.844 188.416 32.9879 188.83 32.9879ZM199.257 28.8394L197.719 33.7979H196.639L195.64 30.1353L194.641 33.7979H193.561L192.013 28.8394H193.057L194.092 32.826L195.145 28.8394H196.216L197.224 32.808L198.25 28.8394H199.257Z" fill="white"/>
</svg>
