<svg width="28" height="28" viewBox="0 0 28 28" fill="none" xmlns="http://www.w3.org/2000/svg">
<path id="Vector" d="M18.999 10.46L15.409 14L18.999 17.54C19.0989 17.6335 19.1785 17.7466 19.233 17.8722C19.2874 17.9977 19.3155 18.1331 19.3155 18.27C19.3155 18.4069 19.2874 18.5423 19.233 18.6678C19.1785 18.7934 19.0989 18.9065 18.999 19C18.9055 19.0927 18.7947 19.166 18.6729 19.2158C18.5511 19.2655 18.4206 19.2908 18.289 19.29C18.0266 19.2889 17.7752 19.1847 17.589 19L13.999 15.41L10.459 19C10.2727 19.1847 10.0213 19.2889 9.75899 19.29C9.62738 19.2908 9.49692 19.2655 9.37508 19.2158C9.25325 19.166 9.14243 19.0927 9.04899 19C8.86274 18.8126 8.7582 18.5592 8.7582 18.295C8.7582 18.0308 8.86274 17.7774 9.04899 17.59L12.589 14L9.04899 10.46C8.88516 10.2687 8.79956 10.0226 8.80928 9.77095C8.819 9.51927 8.92333 9.28053 9.10143 9.10244C9.27952 8.92435 9.51826 8.82001 9.76994 8.81029C10.0216 8.80057 10.2677 8.88618 10.459 9.05L13.999 12.59L17.539 9.05C17.6316 8.95414 17.7421 8.87745 17.8643 8.82431C17.9866 8.77117 18.1181 8.74263 18.2513 8.7403C18.3846 8.73798 18.517 8.76193 18.641 8.81078C18.765 8.85963 18.8781 8.93242 18.974 9.025C19.0699 9.11758 19.1465 9.22814 19.1997 9.35036C19.2528 9.47258 19.2814 9.60407 19.2837 9.73732C19.286 9.87058 19.2621 10.003 19.2132 10.127C19.1644 10.251 19.0916 10.3641 18.999 10.46ZM23.899 23.9C21.941 25.8578 19.4464 27.191 16.7307 27.7311C14.015 28.2712 11.2002 27.9938 8.6421 26.9342C6.08402 25.8745 3.8976 24.0801 2.35933 21.7778C0.82105 19.4756 0 16.7689 0 14C0 11.2311 0.82105 8.52442 2.35933 6.22217C3.8976 3.91991 6.08402 2.1255 8.6421 1.06583C11.2002 0.00616073 14.015 -0.271169 16.7307 0.268908C19.4464 0.808985 21.941 2.14221 23.899 4.1C25.1992 5.40004 26.2305 6.94345 26.9342 8.64211C27.6378 10.3408 28 12.1614 28 14C28 15.8386 27.6378 17.6592 26.9342 19.3579C26.2305 21.0565 25.1992 22.6 23.899 23.9ZM22.489 5.51C20.8091 3.83594 18.6708 2.69719 16.3442 2.23754C14.0176 1.7779 11.6069 2.01797 9.41663 2.92744C7.22634 3.83691 5.35466 5.37501 4.03792 7.34749C2.72119 9.31998 2.01845 11.6384 2.01845 14.01C2.01845 16.3816 2.72119 18.7 4.03792 20.6725C5.35466 22.645 7.22634 24.1831 9.41663 25.0926C11.6069 26.002 14.0176 26.2421 16.3442 25.7825C18.6708 25.3228 20.8091 24.1841 22.489 22.51C23.6077 21.3952 24.4953 20.0704 25.101 18.6118C25.7067 17.1532 26.0185 15.5894 26.0185 14.01C26.0185 12.4306 25.7067 10.8668 25.101 9.40818C24.4953 7.94956 23.6077 6.62485 22.489 5.51Z" fill="white"/>
</svg>
