<svg width="32" height="29" viewBox="0 0 32 29" fill="none" xmlns="http://www.w3.org/2000/svg">
<g id="Group">
<path id="Vector" d="M17.9244 1.94992L30.8779 24.3843C31.1119 24.7894 31.2351 25.249 31.2351 25.7169C31.2352 26.1847 31.112 26.6444 30.8781 27.0495C30.6442 27.4547 30.3078 27.7912 29.9026 28.0251C29.4974 28.259 29.0378 28.3821 28.57 28.3821H2.66516C2.19731 28.3821 1.7377 28.259 1.33253 28.0251C0.927353 27.7912 0.590899 27.4547 0.356987 27.0495C0.123077 26.6444 -4.3869e-05 26.1847 0 25.7169C4.19617e-05 25.249 0.123249 24.7894 0.357235 24.3843L13.3093 1.94992C13.5432 1.54487 13.8795 1.20851 14.2846 0.974649C14.6897 0.740791 15.1491 0.617676 15.6169 0.617676C16.0846 0.617676 16.5441 0.740791 16.9491 0.974649C17.3542 1.20851 17.6906 1.54487 17.9244 1.94992Z" fill="#EE404C"/>
<g id="Group_2">
<path id="Vector_2" d="M15.448 8.86865H15.7859C16.6178 8.86865 17.2921 9.54304 17.2921 10.3749V17.5747C17.2921 18.4066 16.6178 19.081 15.7859 19.081H15.448C14.6161 19.081 13.9417 18.4066 13.9417 17.5747V10.3749C13.9417 9.54304 14.6161 8.86865 15.448 8.86865Z" fill="#FFF7ED"/>
<path id="Vector_3" d="M15.6168 24.7914C14.6916 24.7914 13.9416 24.0414 13.9416 23.1162C13.9416 22.1909 14.6916 21.4409 15.6168 21.4409C16.542 21.4409 17.292 22.1909 17.292 23.1162C17.292 24.0414 16.542 24.7914 15.6168 24.7914Z" fill="#FFF7ED"/>
</g>
</g>
</svg>
