<svg width="28" height="28" viewBox="0 0 28 28" fill="none" xmlns="http://www.w3.org/2000/svg">
<g id="fi_3179608" clip-path="url(#clip0_861_15211)">
<g id="Group 68">
<path id="Vector" d="M23.9168 28H4.0835C3.11866 28 2.3335 27.2148 2.3335 26.25V14.5833C2.3335 14.2613 2.59483 14 2.91683 14H25.0835C25.4055 14 25.6668 14.2613 25.6668 14.5833V26.25C25.6668 27.2148 24.8817 28 23.9168 28ZM3.50016 15.1667V26.25C3.50016 26.5708 3.76266 26.8333 4.0835 26.8333H23.9168C24.2377 26.8333 24.5002 26.5708 24.5002 26.25V15.1667H3.50016Z" fill="#B4B4B4"/>
<path id="Vector_2" d="M26.25 15.168H1.75C0.785167 15.168 0 14.3828 0 13.418V9.91797C0 8.95314 0.785167 8.16797 1.75 8.16797H26.25C27.2148 8.16797 28 8.95314 28 9.91797V13.418C28 14.3828 27.2148 15.168 26.25 15.168ZM1.75 9.33464C1.42917 9.33464 1.16667 9.59714 1.16667 9.91797V13.418C1.16667 13.7388 1.42917 14.0013 1.75 14.0013H26.25C26.5708 14.0013 26.8333 13.7388 26.8333 13.418V9.91797C26.8333 9.59714 26.5708 9.33464 26.25 9.33464H1.75Z" fill="#B4B4B4"/>
<path id="Vector_3" d="M14.0001 9.33333C13.8309 9.33333 13.6699 9.261 13.5591 9.1315C13.4483 9.00433 13.3981 8.83517 13.4226 8.66833C13.4354 8.58083 14.7398 0 21.5834 0C24.5981 0 25.6679 1.62867 25.6679 3.02283C25.6679 5.64317 22.0478 9.33333 14.0001 9.33333ZM21.5834 1.16667C16.7861 1.16667 15.1504 6.2825 14.7129 8.155C21.1051 7.95667 24.5013 5.103 24.5013 3.02283C24.5013 2.50483 24.2831 2.07783 23.8549 1.757C23.3416 1.37083 22.5553 1.16667 21.5834 1.16667Z" fill="#B4B4B4"/>
<path id="Vector_4" d="M14.0013 9.33333C5.95366 9.33333 2.3335 5.64317 2.3335 3.02283C2.3335 2.14317 2.729 1.3615 3.44533 0.823667C4.16283 0.284667 5.19066 0 6.418 0C13.2617 0 14.566 8.58083 14.5788 8.66833C14.6033 8.83633 14.5532 9.00433 14.4423 9.1315C14.3315 9.261 14.1705 9.33333 14.0013 9.33333ZM6.418 1.16667C4.61783 1.16667 3.50016 1.87717 3.50016 3.02283C3.50016 5.10417 6.89866 7.95783 13.2943 8.15617C12.8708 6.272 11.276 1.16667 6.418 1.16667Z" fill="#B4B4B4"/>
<path id="Vector_5" d="M13.9998 28.0013C13.6778 28.0013 13.4165 27.74 13.4165 27.418V8.7513C13.4165 8.4293 13.6778 8.16797 13.9998 8.16797C14.3218 8.16797 14.5832 8.4293 14.5832 8.7513V27.418C14.5832 27.74 14.3218 28.0013 13.9998 28.0013Z" fill="#B4B4B4"/>
</g>
</g>
<defs>
<clipPath id="clip0_861_15211">
<rect width="28" height="28" fill="white"/>
</clipPath>
</defs>
</svg>
