<svg width="1541" height="856" viewBox="0 0 1541 856" fill="none" xmlns="http://www.w3.org/2000/svg">
<rect width="1541" height="856" rx="20" fill="#19141B"/>
<g clip-path="url(#clip0_348_71957)">
<path d="M472.475 102.913C473.802 104.241 487.873 110.615 498.474 113.225C499.441 113.465 500.462 113.181 501.167 112.477C501.871 111.773 502.155 110.751 501.915 109.785C499.304 99.1835 492.929 85.1128 491.603 83.7852L472.475 102.913Z" fill="#F0C419"/>
<path d="M472.481 102.911C471.091 101.521 474.246 96.1135 479.527 90.8323C484.808 85.5511 490.216 82.3965 491.606 83.7863C492.996 85.1761 489.841 90.584 484.56 95.8652C479.278 101.146 473.871 104.301 472.481 102.911Z" fill="#D25627"/>
<path d="M494.623 107.357C493.837 107.357 493.199 106.72 493.199 105.933C493.199 105.147 493.837 104.51 494.623 104.51C495.409 104.51 496.047 105.147 496.047 105.933C496.047 106.72 495.409 107.357 494.623 107.357Z" fill="#955BA5"/>
<path d="M485.562 90.5389C485.85 90.5391 486.11 90.3656 486.221 90.0993C486.331 89.833 486.27 89.5266 486.066 89.323L481.535 84.7934C479.099 82.356 478.788 80.4931 480.528 78.7526C481.258 77.8976 482.374 77.4741 483.488 77.6292C484.273 77.7955 484.994 78.1857 485.562 78.7526C485.842 79.0223 486.286 79.0185 486.56 78.7439C486.835 78.4693 486.839 78.0253 486.569 77.746C485.795 76.9708 484.809 76.4422 483.735 76.2269C482.163 75.9787 480.573 76.5518 479.521 77.746C477.184 80.0837 477.522 82.7938 480.529 85.8L485.058 90.3303C485.191 90.4642 485.373 90.5392 485.562 90.5389Z" fill="#955BA5"/>
<path d="M466.938 98.0889C467.226 98.0888 467.485 97.9154 467.595 97.6494C467.705 97.3835 467.645 97.0773 467.441 96.8737C466.717 96.2377 466.302 95.3207 466.302 94.3569C466.302 93.3932 466.717 92.4762 467.441 91.8402C468.174 90.9517 469.349 90.5595 470.469 90.83C471.63 91.2308 472.668 91.9256 473.481 92.8467L477.508 96.8737C477.786 97.1516 478.237 97.1516 478.515 96.8737C478.793 96.5958 478.793 96.1452 478.515 95.8672L474.488 91.8402C473.5 90.7372 472.238 89.914 470.831 89.4533C469.222 89.0413 467.519 89.576 466.434 90.8336C463.653 93.6141 465.125 96.5719 466.434 97.881C466.568 98.0149 466.749 98.0898 466.938 98.0889Z" fill="#FF5364"/>
<path d="M475.998 85.0008C476.285 85.0007 476.544 84.8277 476.655 84.5623C476.765 84.2968 476.705 83.991 476.502 83.7871C476.316 83.5991 471.974 79.1336 475.547 74.6667C475.722 74.4698 475.773 74.1926 475.682 73.946C475.59 73.6994 475.37 73.5235 475.109 73.4887C474.848 73.4539 474.589 73.5658 474.436 73.7797C470.061 79.2475 475.44 84.7424 475.495 84.7951C475.629 84.9279 475.809 85.0019 475.998 85.0008Z" fill="#F0C419"/>
<path d="M468.542 86.9294C467.363 86.9294 466.407 85.9733 466.407 84.7938C466.407 83.6143 467.363 82.6582 468.542 82.6582C469.722 82.6582 470.678 83.6143 470.678 84.7938C470.678 85.9733 469.722 86.9294 468.542 86.9294Z" fill="#FF5364"/>
<path d="M479.22 74.8475C478.434 74.8475 477.797 74.21 477.797 73.4237C477.797 72.6374 478.434 72 479.22 72C480.007 72 480.644 72.6374 480.644 73.4237C480.644 74.21 480.007 74.8475 479.22 74.8475Z" fill="#3B97D3"/>
<path d="M462.136 100.474C461.349 100.474 460.712 99.837 460.712 99.0507C460.712 98.2644 461.349 97.627 462.136 97.627C462.922 97.627 463.559 98.2644 463.559 99.0507C463.559 99.837 462.922 100.474 462.136 100.474Z" fill="#955BA5"/>
<path d="M468.542 76.2704C468.936 76.2704 469.254 75.9516 469.254 75.5585V74.8466C469.254 74.4535 468.936 74.1348 468.542 74.1348C468.149 74.1348 467.831 74.4535 467.831 74.8466V75.5585C467.831 75.9516 468.149 76.2704 468.542 76.2704Z" fill="#955BA5"/>
<path d="M466.407 77.6952H467.119C467.512 77.6952 467.83 77.3765 467.83 76.9833C467.83 76.5902 467.512 76.2715 467.119 76.2715H466.407C466.014 76.2715 465.695 76.5902 465.695 76.9833C465.695 77.3765 466.014 77.6952 466.407 77.6952Z" fill="#955BA5"/>
<path d="M468.542 79.8309C468.936 79.8309 469.254 79.5122 469.254 79.119V78.4072C469.254 78.014 468.936 77.6953 468.542 77.6953C468.149 77.6953 467.831 78.014 467.831 78.4072V79.119C467.831 79.5122 468.149 79.8309 468.542 79.8309Z" fill="#955BA5"/>
<path d="M469.966 77.6952H470.678C471.071 77.6952 471.39 77.3765 471.39 76.9833C471.39 76.5902 471.071 76.2715 470.678 76.2715H469.966C469.573 76.2715 469.254 76.5902 469.254 76.9833C469.254 77.3765 469.573 77.6952 469.966 77.6952Z" fill="#955BA5"/>
<path d="M462.848 88.3719C463.241 88.3719 463.559 88.0532 463.559 87.6601V86.9482C463.559 86.555 463.241 86.2363 462.848 86.2363C462.454 86.2363 462.136 86.555 462.136 86.9482V87.6601C462.136 88.0532 462.454 88.3719 462.848 88.3719Z" fill="#3B97D3"/>
<path d="M460.712 89.7968H461.424C461.817 89.7968 462.136 89.4781 462.136 89.0849C462.136 88.6918 461.817 88.373 461.424 88.373H460.712C460.319 88.373 460 88.6918 460 89.0849C460 89.4781 460.319 89.7968 460.712 89.7968Z" fill="#3B97D3"/>
<path d="M462.848 91.9325C463.241 91.9325 463.559 91.6138 463.559 91.2206V90.5087C463.559 90.1156 463.241 89.7969 462.848 89.7969C462.454 89.7969 462.136 90.1156 462.136 90.5087V91.2206C462.136 91.6138 462.454 91.9325 462.848 91.9325Z" fill="#3B97D3"/>
<path d="M464.271 89.7968H464.983C465.376 89.7968 465.695 89.4781 465.695 89.0849C465.695 88.6918 465.376 88.373 464.983 88.373H464.271C463.878 88.373 463.559 88.6918 463.559 89.0849C463.559 89.4781 463.878 89.7968 464.271 89.7968Z" fill="#3B97D3"/>
<path d="M478.138 105.913C479.982 106.753 482.16 107.679 484.495 108.604C484.844 108.391 485.214 108.149 485.599 107.885C487.017 106.93 488.373 105.883 489.656 104.753C490.29 104.184 490.945 103.578 491.607 102.916C492.368 102.157 493.061 101.412 493.685 100.681C495.014 99.1553 496.221 97.5272 497.295 95.812C496.369 93.4771 495.444 91.2988 494.597 89.4551C493.842 90.9204 492.978 92.3268 492.013 93.6622C490.858 95.276 489.588 96.8034 488.211 98.2324C488.012 98.453 487.798 98.6666 487.578 98.8873C486.473 99.9943 485.306 101.038 484.082 102.012C482.236 103.507 480.245 104.814 478.138 105.913Z" fill="#FF5364"/>
<path d="M484.082 102.012C484.916 103.87 485.428 105.856 485.599 107.885C487.017 106.93 488.373 105.883 489.656 104.753C489.607 102.506 489.116 100.29 488.211 98.2324C488.012 98.4531 487.798 98.6667 487.578 98.8873C486.473 99.9944 485.306 101.038 484.082 102.012Z" fill="#955BA5"/>
<path d="M488.211 98.2323C489.116 100.29 489.607 102.506 489.656 104.753C490.29 104.183 490.945 103.578 491.607 102.916C492.368 102.157 493.061 101.412 493.685 100.681C493.612 98.2519 493.042 95.8634 492.013 93.6621C490.858 95.2759 489.588 96.8033 488.211 98.2323Z" fill="#B49ACA"/>
<path d="M494.205 112.034C495.664 112.483 497.102 112.881 498.476 113.223C499.442 113.463 500.463 113.18 501.167 112.476C501.871 111.772 502.155 110.751 501.915 109.785C501.573 108.411 501.174 106.973 500.726 105.514C498.796 107.918 496.609 110.105 494.205 112.034Z" fill="#FF5364"/>
</g>
<path d="M570.136 72.304V106H561.928V85.792L554.392 106H547.768L540.184 85.744V106H531.976V72.304H541.672L551.128 95.632L560.488 72.304H570.136ZM581.126 76.432C579.686 76.432 578.502 76.016 577.574 75.184C576.678 74.32 576.23 73.264 576.23 72.016C576.23 70.736 576.678 69.68 577.574 68.848C578.502 67.984 579.686 67.552 581.126 67.552C582.534 67.552 583.686 67.984 584.582 68.848C585.51 69.68 585.974 70.736 585.974 72.016C585.974 73.264 585.51 74.32 584.582 75.184C583.686 76.016 582.534 76.432 581.126 76.432ZM585.206 79.216V106H576.998V79.216H585.206ZM600.323 70.48V106H592.115V70.48H600.323ZM632.479 92.176C632.479 92.944 632.431 93.744 632.335 94.576H613.759C613.887 96.24 614.415 97.52 615.343 98.416C616.303 99.28 617.471 99.712 618.847 99.712C620.895 99.712 622.319 98.848 623.119 97.12H631.855C631.407 98.88 630.591 100.464 629.407 101.872C628.255 103.28 626.799 104.384 625.039 105.184C623.279 105.984 621.311 106.384 619.135 106.384C616.511 106.384 614.175 105.824 612.127 104.704C610.079 103.584 608.479 101.984 607.327 99.904C606.175 97.824 605.599 95.392 605.599 92.608C605.599 89.824 606.159 87.392 607.279 85.312C608.431 83.232 610.031 81.632 612.079 80.512C614.127 79.392 616.479 78.832 619.135 78.832C621.727 78.832 624.031 79.376 626.047 80.464C628.063 81.552 629.631 83.104 630.751 85.12C631.903 87.136 632.479 89.488 632.479 92.176ZM624.079 90.016C624.079 88.608 623.599 87.488 622.639 86.656C621.679 85.824 620.479 85.408 619.039 85.408C617.663 85.408 616.495 85.808 615.535 86.608C614.607 87.408 614.031 88.544 613.807 90.016H624.079ZM648.665 106.384C646.329 106.384 644.249 105.984 642.425 105.184C640.601 104.384 639.161 103.296 638.105 101.92C637.049 100.512 636.457 98.944 636.329 97.216H644.441C644.537 98.144 644.969 98.896 645.737 99.472C646.505 100.048 647.449 100.336 648.569 100.336C649.593 100.336 650.377 100.144 650.921 99.76C651.497 99.344 651.785 98.816 651.785 98.176C651.785 97.408 651.385 96.848 650.585 96.496C649.785 96.112 648.489 95.696 646.697 95.248C644.777 94.8 643.177 94.336 641.897 93.856C640.617 93.344 639.513 92.56 638.585 91.504C637.657 90.416 637.193 88.96 637.193 87.136C637.193 85.6 637.609 84.208 638.441 82.96C639.305 81.68 640.553 80.672 642.185 79.936C643.849 79.2 645.817 78.832 648.089 78.832C651.449 78.832 654.089 79.664 656.009 81.328C657.961 82.992 659.081 85.2 659.369 87.952H651.785C651.657 87.024 651.241 86.288 650.537 85.744C649.865 85.2 648.969 84.928 647.849 84.928C646.889 84.928 646.153 85.12 645.641 85.504C645.129 85.856 644.873 86.352 644.873 86.992C644.873 87.76 645.273 88.336 646.073 88.72C646.905 89.104 648.185 89.488 649.913 89.872C651.897 90.384 653.513 90.896 654.761 91.408C656.009 91.888 657.097 92.688 658.025 93.808C658.985 94.896 659.481 96.368 659.513 98.224C659.513 99.792 659.065 101.2 658.169 102.448C657.305 103.664 656.041 104.624 654.377 105.328C652.745 106.032 650.841 106.384 648.665 106.384ZM680.423 99.04V106H676.247C673.271 106 670.951 105.28 669.287 103.84C667.623 102.368 666.791 99.984 666.791 96.688V86.032H663.527V79.216H666.791V72.688H674.999V79.216H680.375V86.032H674.999V96.784C674.999 97.584 675.191 98.16 675.575 98.512C675.959 98.864 676.599 99.04 677.495 99.04H680.423ZM698.147 106.384C695.523 106.384 693.155 105.824 691.043 104.704C688.963 103.584 687.315 101.984 686.099 99.904C684.915 97.824 684.323 95.392 684.323 92.608C684.323 89.856 684.931 87.44 686.147 85.36C687.363 83.248 689.027 81.632 691.139 80.512C693.251 79.392 695.619 78.832 698.243 78.832C700.867 78.832 703.235 79.392 705.347 80.512C707.459 81.632 709.123 83.248 710.339 85.36C711.555 87.44 712.163 89.856 712.163 92.608C712.163 95.36 711.539 97.792 710.291 99.904C709.075 101.984 707.395 103.584 705.251 104.704C703.139 105.824 700.771 106.384 698.147 106.384ZM698.147 99.28C699.715 99.28 701.043 98.704 702.131 97.552C703.251 96.4 703.811 94.752 703.811 92.608C703.811 90.464 703.267 88.816 702.179 87.664C701.123 86.512 699.811 85.936 698.243 85.936C696.643 85.936 695.315 86.512 694.259 87.664C693.203 88.784 692.675 90.432 692.675 92.608C692.675 94.752 693.187 96.4 694.211 97.552C695.267 98.704 696.579 99.28 698.147 99.28ZM733.797 78.928C736.933 78.928 739.429 79.952 741.285 82C743.173 84.016 744.117 86.8 744.117 90.352V106H735.957V91.456C735.957 89.664 735.493 88.272 734.565 87.28C733.637 86.288 732.389 85.792 730.821 85.792C729.253 85.792 728.005 86.288 727.077 87.28C726.149 88.272 725.685 89.664 725.685 91.456V106H717.477V79.216H725.685V82.768C726.517 81.584 727.637 80.656 729.045 79.984C730.453 79.28 732.037 78.928 733.797 78.928ZM776.029 92.176C776.029 92.944 775.981 93.744 775.885 94.576H757.309C757.437 96.24 757.965 97.52 758.893 98.416C759.853 99.28 761.021 99.712 762.397 99.712C764.445 99.712 765.869 98.848 766.669 97.12H775.405C774.957 98.88 774.141 100.464 772.957 101.872C771.805 103.28 770.349 104.384 768.589 105.184C766.829 105.984 764.861 106.384 762.685 106.384C760.061 106.384 757.725 105.824 755.677 104.704C753.629 103.584 752.029 101.984 750.877 99.904C749.725 97.824 749.149 95.392 749.149 92.608C749.149 89.824 749.709 87.392 750.829 85.312C751.981 83.232 753.581 81.632 755.629 80.512C757.677 79.392 760.029 78.832 762.685 78.832C765.277 78.832 767.581 79.376 769.597 80.464C771.613 81.552 773.181 83.104 774.301 85.12C775.453 87.136 776.029 89.488 776.029 92.176ZM767.629 90.016C767.629 88.608 767.149 87.488 766.189 86.656C765.229 85.824 764.029 85.408 762.589 85.408C761.213 85.408 760.045 85.808 759.085 86.608C758.157 87.408 757.581 88.544 757.357 90.016H767.629ZM809.635 106L802.627 93.28H800.659V106H792.451V72.304H806.227C808.883 72.304 811.139 72.768 812.995 73.696C814.883 74.624 816.291 75.904 817.219 77.536C818.147 79.136 818.611 80.928 818.611 82.912C818.611 85.152 817.971 87.152 816.691 88.912C815.443 90.672 813.587 91.92 811.123 92.656L818.899 106H809.635ZM800.659 87.472H805.747C807.251 87.472 808.371 87.104 809.107 86.368C809.875 85.632 810.259 84.592 810.259 83.248C810.259 81.968 809.875 80.96 809.107 80.224C808.371 79.488 807.251 79.12 805.747 79.12H800.659V87.472ZM849.971 92.176C849.971 92.944 849.923 93.744 849.827 94.576H831.251C831.379 96.24 831.907 97.52 832.835 98.416C833.795 99.28 834.963 99.712 836.339 99.712C838.387 99.712 839.811 98.848 840.611 97.12H849.347C848.899 98.88 848.083 100.464 846.899 101.872C845.747 103.28 844.291 104.384 842.531 105.184C840.771 105.984 838.803 106.384 836.627 106.384C834.003 106.384 831.667 105.824 829.619 104.704C827.571 103.584 825.971 101.984 824.819 99.904C823.667 97.824 823.091 95.392 823.091 92.608C823.091 89.824 823.651 87.392 824.771 85.312C825.923 83.232 827.523 81.632 829.571 80.512C831.619 79.392 833.971 78.832 836.627 78.832C839.219 78.832 841.523 79.376 843.539 80.464C845.555 81.552 847.123 83.104 848.243 85.12C849.395 87.136 849.971 89.488 849.971 92.176ZM841.571 90.016C841.571 88.608 841.091 87.488 840.131 86.656C839.171 85.824 837.971 85.408 836.531 85.408C835.155 85.408 833.987 85.808 833.027 86.608C832.099 87.408 831.523 88.544 831.299 90.016H841.571ZM893.71 79.216L886.462 106H877.39L873.166 88.624L868.798 106H859.774L852.478 79.216H860.686L864.478 98.368L868.99 79.216H877.678L882.238 98.272L885.982 79.216H893.71ZM896.168 92.56C896.168 89.808 896.68 87.392 897.704 85.312C898.76 83.232 900.184 81.632 901.976 80.512C903.768 79.392 905.768 78.832 907.976 78.832C909.864 78.832 911.512 79.216 912.92 79.984C914.36 80.752 915.464 81.76 916.232 83.008V79.216H924.44V106H916.232V102.208C915.432 103.456 914.312 104.464 912.872 105.232C911.464 106 909.816 106.384 907.928 106.384C905.752 106.384 903.768 105.824 901.976 104.704C900.184 103.552 898.76 101.936 897.704 99.856C896.68 97.744 896.168 95.312 896.168 92.56ZM916.232 92.608C916.232 90.56 915.656 88.944 914.504 87.76C913.384 86.576 912.008 85.984 910.376 85.984C908.744 85.984 907.352 86.576 906.2 87.76C905.08 88.912 904.52 90.512 904.52 92.56C904.52 94.608 905.08 96.24 906.2 97.456C907.352 98.64 908.744 99.232 910.376 99.232C912.008 99.232 913.384 98.64 914.504 97.456C915.656 96.272 916.232 94.656 916.232 92.608ZM939.546 83.68C940.506 82.208 941.706 81.056 943.146 80.224C944.586 79.36 946.186 78.928 947.946 78.928V87.616H945.69C943.642 87.616 942.106 88.064 941.082 88.96C940.058 89.824 939.546 91.36 939.546 93.568V106H931.338V79.216H939.546V83.68ZM951.197 92.56C951.197 89.808 951.709 87.392 952.733 85.312C953.789 83.232 955.213 81.632 957.005 80.512C958.797 79.392 960.797 78.832 963.005 78.832C964.765 78.832 966.365 79.2 967.805 79.936C969.277 80.672 970.429 81.664 971.261 82.912V70.48H979.469V106H971.261V102.16C970.493 103.44 969.389 104.464 967.949 105.232C966.541 106 964.893 106.384 963.005 106.384C960.797 106.384 958.797 105.824 957.005 104.704C955.213 103.552 953.789 101.936 952.733 99.856C951.709 97.744 951.197 95.312 951.197 92.56ZM971.261 92.608C971.261 90.56 970.685 88.944 969.533 87.76C968.413 86.576 967.037 85.984 965.405 85.984C963.773 85.984 962.381 86.576 961.229 87.76C960.109 88.912 959.549 90.512 959.549 92.56C959.549 94.608 960.109 96.24 961.229 97.456C962.381 98.64 963.773 99.232 965.405 99.232C967.037 99.232 968.413 98.64 969.533 97.456C970.685 96.272 971.261 94.656 971.261 92.608ZM997.263 106.384C994.927 106.384 992.847 105.984 991.023 105.184C989.199 104.384 987.759 103.296 986.703 101.92C985.647 100.512 985.055 98.944 984.927 97.216H993.039C993.135 98.144 993.567 98.896 994.335 99.472C995.103 100.048 996.047 100.336 997.167 100.336C998.191 100.336 998.975 100.144 999.519 99.76C1000.1 99.344 1000.38 98.816 1000.38 98.176C1000.38 97.408 999.983 96.848 999.183 96.496C998.383 96.112 997.087 95.696 995.295 95.248C993.375 94.8 991.775 94.336 990.495 93.856C989.215 93.344 988.111 92.56 987.183 91.504C986.255 90.416 985.791 88.96 985.791 87.136C985.791 85.6 986.207 84.208 987.039 82.96C987.903 81.68 989.151 80.672 990.783 79.936C992.447 79.2 994.415 78.832 996.687 78.832C1000.05 78.832 1002.69 79.664 1004.61 81.328C1006.56 82.992 1007.68 85.2 1007.97 87.952H1000.38C1000.26 87.024 999.839 86.288 999.135 85.744C998.463 85.2 997.567 84.928 996.447 84.928C995.487 84.928 994.751 85.12 994.239 85.504C993.727 85.856 993.471 86.352 993.471 86.992C993.471 87.76 993.871 88.336 994.671 88.72C995.503 89.104 996.783 89.488 998.511 89.872C1000.5 90.384 1002.11 90.896 1003.36 91.408C1004.61 91.888 1005.7 92.688 1006.62 93.808C1007.58 94.896 1008.08 96.368 1008.11 98.224C1008.11 99.792 1007.66 101.2 1006.77 102.448C1005.9 103.664 1004.64 104.624 1002.98 105.328C1001.34 106.032 999.439 106.384 997.263 106.384Z" fill="#E6E6E6"/>
<g clip-path="url(#clip1_348_71957)">
<path d="M1067.53 102.913C1066.2 104.241 1052.13 110.615 1041.53 113.225C1040.56 113.465 1039.54 113.181 1038.83 112.477C1038.13 111.773 1037.85 110.751 1038.09 109.785C1040.7 99.1835 1047.07 85.1128 1048.4 83.7852L1067.53 102.913Z" fill="#F0C419"/>
<path d="M1067.52 102.911C1068.91 101.521 1065.75 96.1135 1060.47 90.8323C1055.19 85.5511 1049.78 82.3965 1048.39 83.7863C1047 85.1761 1050.16 90.584 1055.44 95.8652C1060.72 101.146 1066.13 104.301 1067.52 102.911Z" fill="#D25627"/>
<path d="M1045.38 107.357C1046.16 107.357 1046.8 106.72 1046.8 105.933C1046.8 105.147 1046.16 104.51 1045.38 104.51C1044.59 104.51 1043.95 105.147 1043.95 105.933C1043.95 106.72 1044.59 107.357 1045.38 107.357Z" fill="#955BA5"/>
<path d="M1054.44 90.5389C1054.15 90.5391 1053.89 90.3656 1053.78 90.0993C1053.67 89.833 1053.73 89.5266 1053.93 89.323L1058.46 84.7934C1060.9 82.356 1061.21 80.4931 1059.47 78.7526C1058.74 77.8976 1057.63 77.4741 1056.51 77.6292C1055.73 77.7955 1055.01 78.1857 1054.44 78.7526C1054.16 79.0223 1053.71 79.0185 1053.44 78.7439C1053.17 78.4693 1053.16 78.0253 1053.43 77.746C1054.2 76.9708 1055.19 76.4422 1056.26 76.2269C1057.84 75.9787 1059.43 76.5518 1060.48 77.746C1062.82 80.0837 1062.48 82.7938 1059.47 85.8L1054.94 90.3303C1054.81 90.4642 1054.63 90.5392 1054.44 90.5389Z" fill="#955BA5"/>
<path d="M1073.06 98.0889C1072.77 98.0888 1072.51 97.9154 1072.4 97.6494C1072.29 97.3835 1072.36 97.0773 1072.56 96.8737C1073.28 96.2377 1073.7 95.3207 1073.7 94.3569C1073.7 93.3932 1073.28 92.4762 1072.56 91.8402C1071.83 90.9517 1070.65 90.5595 1069.53 90.83C1068.37 91.2308 1067.33 91.9256 1066.52 92.8467L1062.49 96.8737C1062.21 97.1516 1061.76 97.1516 1061.49 96.8737C1061.21 96.5958 1061.21 96.1452 1061.49 95.8672L1065.51 91.8402C1066.5 90.7372 1067.76 89.914 1069.17 89.4533C1070.78 89.0413 1072.48 89.576 1073.57 90.8336C1076.35 93.6141 1074.87 96.5719 1073.57 97.881C1073.43 98.0149 1073.25 98.0898 1073.06 98.0889Z" fill="#FF5364"/>
<path d="M1064 85.0008C1063.71 85.0007 1063.46 84.8277 1063.35 84.5623C1063.23 84.2968 1063.29 83.991 1063.5 83.7871C1063.68 83.5991 1068.03 79.1336 1064.45 74.6667C1064.28 74.4698 1064.23 74.1926 1064.32 73.946C1064.41 73.6994 1064.63 73.5235 1064.89 73.4887C1065.15 73.4539 1065.41 73.5658 1065.56 73.7797C1069.94 79.2475 1064.56 84.7424 1064.5 84.7951C1064.37 84.9279 1064.19 85.0019 1064 85.0008Z" fill="#F0C419"/>
<path d="M1071.46 86.9294C1072.64 86.9294 1073.59 85.9733 1073.59 84.7938C1073.59 83.6143 1072.64 82.6582 1071.46 82.6582C1070.28 82.6582 1069.32 83.6143 1069.32 84.7938C1069.32 85.9733 1070.28 86.9294 1071.46 86.9294Z" fill="#FF5364"/>
<path d="M1060.78 74.8475C1061.57 74.8475 1062.2 74.21 1062.2 73.4237C1062.2 72.6374 1061.57 72 1060.78 72C1059.99 72 1059.36 72.6374 1059.36 73.4237C1059.36 74.21 1059.99 74.8475 1060.78 74.8475Z" fill="#3B97D3"/>
<path d="M1077.86 100.474C1078.65 100.474 1079.29 99.837 1079.29 99.0507C1079.29 98.2644 1078.65 97.627 1077.86 97.627C1077.08 97.627 1076.44 98.2644 1076.44 99.0507C1076.44 99.837 1077.08 100.474 1077.86 100.474Z" fill="#955BA5"/>
<path d="M1071.46 76.2704C1071.06 76.2704 1070.75 75.9516 1070.75 75.5585V74.8466C1070.75 74.4535 1071.06 74.1348 1071.46 74.1348C1071.85 74.1348 1072.17 74.4535 1072.17 74.8466V75.5585C1072.17 75.9516 1071.85 76.2704 1071.46 76.2704Z" fill="#955BA5"/>
<path d="M1073.59 77.6952H1072.88C1072.49 77.6952 1072.17 77.3765 1072.17 76.9833C1072.17 76.5902 1072.49 76.2715 1072.88 76.2715H1073.59C1073.99 76.2715 1074.31 76.5902 1074.31 76.9833C1074.31 77.3765 1073.99 77.6952 1073.59 77.6952Z" fill="#955BA5"/>
<path d="M1071.46 79.8309C1071.06 79.8309 1070.75 79.5122 1070.75 79.119V78.4072C1070.75 78.014 1071.06 77.6953 1071.46 77.6953C1071.85 77.6953 1072.17 78.014 1072.17 78.4072V79.119C1072.17 79.5122 1071.85 79.8309 1071.46 79.8309Z" fill="#955BA5"/>
<path d="M1070.03 77.6952H1069.32C1068.93 77.6952 1068.61 77.3765 1068.61 76.9833C1068.61 76.5902 1068.93 76.2715 1069.32 76.2715H1070.03C1070.43 76.2715 1070.75 76.5902 1070.75 76.9833C1070.75 77.3765 1070.43 77.6952 1070.03 77.6952Z" fill="#955BA5"/>
<path d="M1077.15 88.3719C1076.76 88.3719 1076.44 88.0532 1076.44 87.6601V86.9482C1076.44 86.555 1076.76 86.2363 1077.15 86.2363C1077.55 86.2363 1077.86 86.555 1077.86 86.9482V87.6601C1077.86 88.0532 1077.55 88.3719 1077.15 88.3719Z" fill="#3B97D3"/>
<path d="M1079.29 89.7968H1078.58C1078.18 89.7968 1077.86 89.4781 1077.86 89.0849C1077.86 88.6918 1078.18 88.373 1078.58 88.373H1079.29C1079.68 88.373 1080 88.6918 1080 89.0849C1080 89.4781 1079.68 89.7968 1079.29 89.7968Z" fill="#3B97D3"/>
<path d="M1077.15 91.9325C1076.76 91.9325 1076.44 91.6138 1076.44 91.2206V90.5087C1076.44 90.1156 1076.76 89.7969 1077.15 89.7969C1077.55 89.7969 1077.86 90.1156 1077.86 90.5087V91.2206C1077.86 91.6138 1077.55 91.9325 1077.15 91.9325Z" fill="#3B97D3"/>
<path d="M1075.73 89.7968H1075.02C1074.62 89.7968 1074.31 89.4781 1074.31 89.0849C1074.31 88.6918 1074.62 88.373 1075.02 88.373H1075.73C1076.12 88.373 1076.44 88.6918 1076.44 89.0849C1076.44 89.4781 1076.12 89.7968 1075.73 89.7968Z" fill="#3B97D3"/>
<path d="M1061.86 105.913C1060.02 106.753 1057.84 107.679 1055.5 108.604C1055.16 108.391 1054.79 108.149 1054.4 107.885C1052.98 106.93 1051.63 105.883 1050.34 104.753C1049.71 104.184 1049.06 103.578 1048.39 102.916C1047.63 102.157 1046.94 101.412 1046.31 100.681C1044.99 99.1553 1043.78 97.5272 1042.71 95.812C1043.63 93.4771 1044.56 91.2988 1045.4 89.4551C1046.16 90.9204 1047.02 92.3268 1047.99 93.6622C1049.14 95.276 1050.41 96.8034 1051.79 98.2324C1051.99 98.453 1052.2 98.6666 1052.42 98.8873C1053.53 99.9943 1054.69 101.038 1055.92 102.012C1057.76 103.507 1059.76 104.814 1061.86 105.913Z" fill="#FF5364"/>
<path d="M1055.92 102.012C1055.08 103.87 1054.57 105.856 1054.4 107.885C1052.98 106.93 1051.63 105.883 1050.34 104.753C1050.39 102.506 1050.88 100.29 1051.79 98.2324C1051.99 98.4531 1052.2 98.6667 1052.42 98.8873C1053.53 99.9944 1054.69 101.038 1055.92 102.012Z" fill="#955BA5"/>
<path d="M1051.79 98.2323C1050.88 100.29 1050.39 102.506 1050.34 104.753C1049.71 104.183 1049.06 103.578 1048.39 102.916C1047.63 102.157 1046.94 101.412 1046.31 100.681C1046.39 98.2519 1046.96 95.8634 1047.99 93.6621C1049.14 95.2759 1050.41 96.8033 1051.79 98.2323Z" fill="#B49ACA"/>
<path d="M1045.79 112.034C1044.34 112.483 1042.9 112.881 1041.52 113.223C1040.56 113.463 1039.54 113.18 1038.83 112.476C1038.13 111.772 1037.85 110.751 1038.09 109.785C1038.43 108.411 1038.83 106.973 1039.27 105.514C1041.2 107.918 1043.39 110.105 1045.79 112.034Z" fill="#FF5364"/>
</g>
<path d="M809.655 289.721C816.258 278.732 823.548 267.786 835.166 258.763C838.121 256.567 841.383 254.436 845.201 252.78C849.001 251.138 853.43 249.83 858.315 249.715C863.184 249.54 868.39 250.68 872.747 252.849C877.121 255.004 880.63 257.95 883.465 260.982L884.055 261.627L884.43 262.06L885.351 263.154C886.091 264.023 886.638 264.742 887.243 265.583C888.439 267.227 889.557 268.976 890.56 270.846C892.603 274.592 894.102 278.922 894.722 283.466C895.397 288.011 895.015 292.676 893.967 296.906C892.941 301.136 891.176 304.936 889.193 308.293C885.146 315.006 880.091 320.104 874.863 324.478C869.586 328.828 864.036 332.396 858.434 335.65C847.112 341.952 835.429 346.81 823.618 350.956C817.715 353.066 811.762 354.893 805.773 356.583C799.792 358.307 793.772 359.862 787.573 360.81L787.473 360.831L787.152 360.875C786.905 360.878 786.638 360.907 786.418 360.834C785.944 360.761 785.501 360.467 785.204 360.146C784.652 359.465 784.543 358.881 784.421 358.386C784.263 357.383 784.275 356.54 784.312 355.695C784.419 354.025 784.696 352.456 785.006 350.894C785.642 347.767 786.473 344.74 787.378 341.752C789.188 335.759 791.202 329.834 793.498 323.996C798.036 312.319 803.275 300.851 809.655 289.721ZM786.86 358.324C786.886 358.343 786.949 358.321 787.013 358.325C787.01 358.315 787.025 358.311 787.025 358.311C786.987 358.306 786.906 358.301 786.86 358.324ZM823.158 299.378C815.318 308.195 808.075 317.898 801.553 328.063C798.335 333.161 795.209 338.381 792.532 343.782C791.189 346.476 789.933 349.22 788.877 351.98C788.358 353.371 787.875 354.762 787.557 356.136C787.403 356.805 787.308 357.496 787.294 358.012C787.29 358.098 787.296 358.138 787.307 358.199C798.642 354.327 809.482 348.788 819.79 342.699C830.161 336.493 840.08 329.584 848.892 321.932C853.335 318.175 857.452 314.168 861.03 310.041C864.625 305.957 867.654 301.654 869.489 297.604C871.353 293.487 871.812 290.016 871.183 287.075C870.595 284.133 868.747 280.783 865.664 277.496C864.343 276.033 863.055 275.011 861.937 274.444C860.806 273.871 859.88 273.549 858.618 273.507C856.167 273.287 852.037 274.626 847.853 277.162C843.655 279.665 839.368 283.116 835.226 286.93C831.064 290.733 827.016 294.938 823.158 299.378ZM738.602 271.695C735.5 259.251 732.913 246.363 734.751 231.761C735.284 228.117 736.086 224.311 737.621 220.441C739.148 216.584 741.345 212.542 744.72 208.997C748.05 205.443 752.537 202.562 757.143 201.011C761.763 199.451 766.333 199.045 770.484 199.184L771.353 199.215L771.922 199.269L773.351 199.382C774.499 199.487 775.374 199.6 776.408 199.772C778.404 200.088 780.433 200.526 782.477 201.14C786.557 202.355 790.686 204.343 794.332 207.131C798.026 209.863 801.056 213.424 803.297 217.159C805.562 220.882 807.008 224.798 807.978 228.578C809.871 236.192 809.894 243.373 809.298 250.175C808.639 256.979 807.245 263.425 805.573 269.677C802.024 282.15 797.194 293.841 791.784 305.123C789.102 310.784 786.176 316.3 783.145 321.738C780.123 327.173 776.963 332.524 773.263 337.576L773.199 337.673L773 337.932C772.837 338.113 772.649 338.316 772.449 338.418C772.068 338.694 771.543 338.803 771.11 338.782C770.242 338.697 769.753 338.369 769.313 338.086C768.489 337.514 767.904 336.889 767.346 336.263C766.237 335.023 765.314 333.707 764.425 332.377C762.674 329.726 761.115 327.002 759.641 324.239C756.684 318.721 753.923 313.108 751.417 307.364C746.367 295.885 741.962 284.076 738.602 271.695ZM770.994 336.32C771.027 336.306 771.059 336.266 771.09 336.205L771.087 336.195C771.069 336.226 771.007 336.269 770.994 336.32ZM754.976 268.971C755.661 280.753 757.398 292.734 759.985 304.535C761.319 310.419 762.797 316.312 764.723 322.022C765.683 324.875 766.735 327.698 767.944 330.415C768.555 331.751 769.209 333.086 769.955 334.275C770.311 334.856 770.727 335.42 771.098 335.801C771.147 335.846 771.187 335.878 771.24 335.916C776.518 325.166 780.261 313.576 783.242 301.978C786.192 290.268 788.321 278.365 789.139 266.719C789.613 260.92 789.696 255.179 789.316 249.742C788.964 244.308 788.066 239.125 786.504 234.95C784.912 230.724 782.78 227.948 780.259 226.305C777.756 224.631 774.074 223.579 769.566 223.43C767.614 223.335 765.976 223.531 764.784 223.909C763.585 224.304 762.688 224.719 761.776 225.591C759.889 227.18 757.904 231.027 756.75 235.783C755.554 240.544 754.963 246.004 754.721 251.624C754.458 257.266 754.569 263.097 754.976 268.971ZM685.99 333.687C675.001 327.084 664.056 319.799 655.027 308.172C652.832 305.223 650.697 301.966 649.048 298.136C647.411 294.334 646.103 289.906 645.983 285.022C645.814 280.156 646.954 274.951 649.115 270.601C651.281 266.229 654.222 262.722 657.255 259.871L657.896 259.287L658.332 258.901L659.432 257.983C660.299 257.239 661.023 256.707 661.86 256.087C663.497 254.903 665.251 253.784 667.129 252.774C670.866 250.737 675.189 249.231 679.741 248.602C684.288 247.933 688.954 248.32 693.183 249.362C697.424 250.391 701.216 252.147 704.569 254.137C711.276 258.18 716.381 263.239 720.771 268.468C725.116 273.746 728.69 279.299 731.928 284.9C738.23 296.223 743.09 307.895 747.238 319.71C749.348 325.613 751.173 331.577 752.873 337.569C754.575 343.545 756.141 349.567 757.087 355.756L757.109 355.861L757.153 356.182C757.161 356.428 757.183 356.707 757.112 356.916C757.037 357.385 756.74 357.835 756.426 358.14C755.748 358.681 755.17 358.794 754.664 358.914C753.679 359.082 752.819 359.065 751.98 359.026C750.317 358.911 748.734 358.639 747.169 358.335C744.059 357.705 741.018 356.862 738.031 355.962C732.037 354.146 726.11 352.128 720.281 349.845C708.585 345.312 697.121 340.072 685.99 333.687ZM754.595 356.487C754.608 356.457 754.594 356.387 754.583 356.327C754.573 356.329 754.573 356.329 754.573 356.329C754.583 356.364 754.564 356.432 754.595 356.487ZM695.644 320.191C704.459 328.02 714.155 335.276 724.333 341.789C729.431 345.012 734.651 348.134 740.039 350.803C742.739 352.15 745.483 353.421 748.247 354.476C749.636 354.991 751.033 355.472 752.405 355.786C753.071 355.945 753.759 356.051 754.294 356.056C754.363 356.058 754.415 356.055 754.476 356.044C750.598 344.705 745.065 333.869 738.972 323.546C732.773 313.183 725.863 303.275 718.204 294.46C714.45 290.006 710.439 285.895 706.321 282.314C702.221 278.719 697.924 275.688 693.873 273.853C689.755 272.005 686.29 271.545 683.341 272.166C680.402 272.747 677.044 274.603 673.758 277.691C672.301 279.01 671.289 280.301 670.714 281.405C670.134 282.532 669.806 283.455 669.765 284.722C669.549 287.188 670.874 291.306 673.42 295.487C675.939 299.686 679.381 303.975 683.194 308.118C686.997 312.279 691.206 316.321 695.644 320.191Z" fill="black"/>
<path d="M569 395.08C569 384.034 577.954 375.08 589 375.08H951.948C962.994 375.08 971.948 384.034 971.948 395.08V425.782H569V395.08Z" fill="black"/>
<g clip-path="url(#clip2_348_71957)">
<path d="M589 436.184H951.92V657.672C951.92 672.409 939.973 684.357 925.235 684.357H615.685C600.947 684.357 589 672.409 589 657.672V436.184Z" fill="black"/>
<path d="M589 538.803C685.957 493.883 670.39 666.002 951.92 538.803C1233.45 411.603 951.92 695.356 951.92 695.356H589C589 695.356 492.043 583.723 589 538.803Z" fill="url(#paint0_linear_348_71957)"/>
</g>
<path d="M705.199 745.2V739.008H716.767V774H709.855V745.2H705.199ZM726.477 766.416C729.549 763.856 731.997 761.728 733.821 760.032C735.645 758.304 737.165 756.512 738.381 754.656C739.597 752.8 740.205 750.976 740.205 749.184C740.205 747.552 739.821 746.272 739.053 745.344C738.285 744.416 737.101 743.952 735.501 743.952C733.901 743.952 732.669 744.496 731.805 745.584C730.941 746.64 730.493 748.096 730.461 749.952H723.933C724.061 746.112 725.197 743.2 727.341 741.216C729.517 739.232 732.269 738.24 735.597 738.24C739.245 738.24 742.045 739.216 743.997 741.168C745.949 743.088 746.925 745.632 746.925 748.8C746.925 751.296 746.253 753.68 744.909 755.952C743.565 758.224 742.029 760.208 740.301 761.904C738.573 763.568 736.317 765.584 733.533 767.952H747.693V773.52H723.981V768.528L726.477 766.416ZM771.656 728.544L758.696 782.688H752.12L765.08 728.544H771.656ZM800.712 744.816H785.159V753.024C785.831 752.192 786.791 751.52 788.039 751.008C789.287 750.464 790.615 750.192 792.023 750.192C794.584 750.192 796.68 750.752 798.312 751.872C799.944 752.992 801.128 754.432 801.864 756.192C802.6 757.92 802.968 759.776 802.968 761.76C802.968 765.44 801.912 768.4 799.8 770.64C797.72 772.88 794.744 774 790.872 774C787.223 774 784.311 773.088 782.135 771.264C779.959 769.44 778.727 767.056 778.439 764.112H784.967C785.255 765.392 785.895 766.416 786.888 767.184C787.911 767.952 789.207 768.336 790.776 768.336C792.663 768.336 794.087 767.744 795.047 766.56C796.007 765.376 796.487 763.808 796.487 761.856C796.487 759.872 795.991 758.368 795 757.344C794.04 756.288 792.615 755.76 790.727 755.76C789.383 755.76 788.263 756.096 787.367 756.768C786.471 757.44 785.831 758.336 785.447 759.456H779.015V738.912H800.712V744.816ZM809.042 756.048C809.042 750.512 810.034 746.176 812.018 743.04C814.034 739.904 817.362 738.336 822.002 738.336C826.642 738.336 829.954 739.904 831.938 743.04C833.954 746.176 834.962 750.512 834.962 756.048C834.962 761.616 833.954 765.984 831.938 769.152C829.954 772.32 826.642 773.904 822.002 773.904C817.362 773.904 814.034 772.32 812.018 769.152C810.034 765.984 809.042 761.616 809.042 756.048ZM828.338 756.048C828.338 753.68 828.178 751.696 827.858 750.096C827.57 748.464 826.962 747.136 826.034 746.112C825.138 745.088 823.794 744.576 822.002 744.576C820.21 744.576 818.85 745.088 817.922 746.112C817.026 747.136 816.418 748.464 816.098 750.096C815.81 751.696 815.666 753.68 815.666 756.048C815.666 758.48 815.81 760.528 816.098 762.192C816.386 763.824 816.994 765.152 817.922 766.176C818.85 767.168 820.21 767.664 822.002 767.664C823.794 767.664 825.154 767.168 826.082 766.176C827.01 765.152 827.618 763.824 827.906 762.192C828.194 760.528 828.338 758.48 828.338 756.048Z" fill="#FF6B00"/>
<path d="M671.768 808.06V816.88C671.768 818.12 672.068 819.04 672.668 819.64C673.281 820.24 674.128 820.54 675.208 820.54C676.274 820.54 677.108 820.24 677.708 819.64C678.321 819.04 678.628 818.12 678.628 816.88V808.06H680.448V816.86C680.448 818.02 680.214 819 679.748 819.8C679.281 820.587 678.648 821.173 677.848 821.56C677.061 821.947 676.174 822.14 675.188 822.14C674.201 822.14 673.308 821.947 672.508 821.56C671.721 821.173 671.094 820.587 670.628 819.8C670.174 819 669.948 818.02 669.948 816.86V808.06H671.768ZM689.224 810.84C690.557 810.84 691.637 811.247 692.464 812.06C693.29 812.86 693.704 814.02 693.704 815.54V822H691.904V815.8C691.904 814.707 691.63 813.873 691.084 813.3C690.537 812.713 689.79 812.42 688.844 812.42C687.884 812.42 687.117 812.72 686.544 813.32C685.984 813.92 685.704 814.793 685.704 815.94V822H683.884V811.04H685.704V812.6C686.064 812.04 686.55 811.607 687.164 811.3C687.79 810.993 688.477 810.84 689.224 810.84ZM698.897 807.2V822H697.077V807.2H698.897ZM707.179 822.18C706.152 822.18 705.219 821.947 704.379 821.48C703.552 821.013 702.899 820.353 702.419 819.5C701.952 818.633 701.719 817.633 701.719 816.5C701.719 815.38 701.959 814.393 702.439 813.54C702.932 812.673 703.599 812.013 704.439 811.56C705.279 811.093 706.219 810.86 707.259 810.86C708.299 810.86 709.239 811.093 710.079 811.56C710.919 812.013 711.579 812.667 712.059 813.52C712.552 814.373 712.799 815.367 712.799 816.5C712.799 817.633 712.545 818.633 712.039 819.5C711.545 820.353 710.872 821.013 710.019 821.48C709.165 821.947 708.219 822.18 707.179 822.18ZM707.179 820.58C707.832 820.58 708.445 820.427 709.019 820.12C709.592 819.813 710.052 819.353 710.399 818.74C710.759 818.127 710.939 817.38 710.939 816.5C710.939 815.62 710.765 814.873 710.419 814.26C710.072 813.647 709.619 813.193 709.059 812.9C708.499 812.593 707.892 812.44 707.239 812.44C706.572 812.44 705.959 812.593 705.399 812.9C704.852 813.193 704.412 813.647 704.079 814.26C703.745 814.873 703.579 815.62 703.579 816.5C703.579 817.393 703.739 818.147 704.059 818.76C704.392 819.373 704.832 819.833 705.379 820.14C705.925 820.433 706.525 820.58 707.179 820.58ZM714.912 816.5C714.912 815.367 715.138 814.38 715.592 813.54C716.045 812.687 716.672 812.027 717.472 811.56C718.285 811.093 719.212 810.86 720.252 810.86C721.598 810.86 722.705 811.187 723.572 811.84C724.452 812.493 725.032 813.4 725.312 814.56H723.352C723.165 813.893 722.798 813.367 722.252 812.98C721.718 812.593 721.052 812.4 720.252 812.4C719.212 812.4 718.372 812.76 717.732 813.48C717.092 814.187 716.772 815.193 716.772 816.5C716.772 817.82 717.092 818.84 717.732 819.56C718.372 820.28 719.212 820.64 720.252 820.64C721.052 820.64 721.718 820.453 722.252 820.08C722.785 819.707 723.152 819.173 723.352 818.48H725.312C725.018 819.6 724.432 820.5 723.552 821.18C722.672 821.847 721.572 822.18 720.252 822.18C719.212 822.18 718.285 821.947 717.472 821.48C716.672 821.013 716.045 820.353 715.592 819.5C715.138 818.647 714.912 817.647 714.912 816.5ZM734.26 822L729.96 817.16V822H728.14V807.2H729.96V815.9L734.18 811.04H736.72L731.56 816.5L736.74 822H734.26ZM754.325 808.06L749.785 816.74V822H747.965V816.74L743.405 808.06H745.425L748.865 815.12L752.305 808.06H754.325ZM761.425 822.18C760.398 822.18 759.465 821.947 758.625 821.48C757.798 821.013 757.145 820.353 756.665 819.5C756.198 818.633 755.965 817.633 755.965 816.5C755.965 815.38 756.205 814.393 756.685 813.54C757.178 812.673 757.845 812.013 758.685 811.56C759.525 811.093 760.465 810.86 761.505 810.86C762.545 810.86 763.485 811.093 764.325 811.56C765.165 812.013 765.825 812.667 766.305 813.52C766.798 814.373 767.045 815.367 767.045 816.5C767.045 817.633 766.791 818.633 766.285 819.5C765.791 820.353 765.118 821.013 764.265 821.48C763.411 821.947 762.465 822.18 761.425 822.18ZM761.425 820.58C762.078 820.58 762.691 820.427 763.265 820.12C763.838 819.813 764.298 819.353 764.645 818.74C765.005 818.127 765.185 817.38 765.185 816.5C765.185 815.62 765.011 814.873 764.665 814.26C764.318 813.647 763.865 813.193 763.305 812.9C762.745 812.593 762.138 812.44 761.485 812.44C760.818 812.44 760.205 812.593 759.645 812.9C759.098 813.193 758.658 813.647 758.325 814.26C757.991 814.873 757.825 815.62 757.825 816.5C757.825 817.393 757.985 818.147 758.305 818.76C758.638 819.373 759.078 819.833 759.625 820.14C760.171 820.433 760.771 820.58 761.425 820.58ZM779.558 811.04V822H777.738V820.38C777.391 820.94 776.904 821.38 776.278 821.7C775.664 822.007 774.984 822.16 774.238 822.16C773.384 822.16 772.618 821.987 771.938 821.64C771.258 821.28 770.718 820.747 770.318 820.04C769.931 819.333 769.738 818.473 769.738 817.46V811.04H771.538V817.22C771.538 818.3 771.811 819.133 772.358 819.72C772.904 820.293 773.651 820.58 774.598 820.58C775.571 820.58 776.338 820.28 776.898 819.68C777.458 819.08 777.738 818.207 777.738 817.06V811.04H779.558ZM784.851 812.82C785.171 812.193 785.624 811.707 786.211 811.36C786.811 811.013 787.537 810.84 788.391 810.84V812.72H787.911C785.871 812.72 784.851 813.827 784.851 816.04V822H783.031V811.04H784.851V812.82ZM803.964 822L800.644 816.3H798.444V822H796.624V808.06H801.124C802.177 808.06 803.064 808.24 803.784 808.6C804.517 808.96 805.064 809.447 805.424 810.06C805.784 810.673 805.964 811.373 805.964 812.16C805.964 813.12 805.684 813.967 805.124 814.7C804.577 815.433 803.75 815.92 802.644 816.16L806.144 822H803.964ZM798.444 814.84H801.124C802.11 814.84 802.85 814.6 803.344 814.12C803.837 813.627 804.084 812.973 804.084 812.16C804.084 811.333 803.837 810.693 803.344 810.24C802.864 809.787 802.124 809.56 801.124 809.56H798.444V814.84ZM819.192 816.1C819.192 816.447 819.172 816.813 819.132 817.2H810.372C810.438 818.28 810.805 819.127 811.472 819.74C812.152 820.34 812.972 820.64 813.932 820.64C814.718 820.64 815.372 820.46 815.892 820.1C816.425 819.727 816.798 819.233 817.012 818.62H818.972C818.678 819.673 818.092 820.533 817.212 821.2C816.332 821.853 815.238 822.18 813.932 822.18C812.892 822.18 811.958 821.947 811.132 821.48C810.318 821.013 809.678 820.353 809.212 819.5C808.745 818.633 808.512 817.633 808.512 816.5C808.512 815.367 808.738 814.373 809.192 813.52C809.645 812.667 810.278 812.013 811.092 811.56C811.918 811.093 812.865 810.86 813.932 810.86C814.972 810.86 815.892 811.087 816.692 811.54C817.492 811.993 818.105 812.62 818.532 813.42C818.972 814.207 819.192 815.1 819.192 816.1ZM817.312 815.72C817.312 815.027 817.158 814.433 816.852 813.94C816.545 813.433 816.125 813.053 815.592 812.8C815.072 812.533 814.492 812.4 813.852 812.4C812.932 812.4 812.145 812.693 811.492 813.28C810.852 813.867 810.485 814.68 810.392 815.72H817.312ZM836.594 811.04L833.174 822H831.294L828.654 813.3L826.014 822H824.134L820.694 811.04H822.554L825.074 820.24L827.794 811.04H829.654L832.314 820.26L834.794 811.04H836.594ZM838.12 816.48C838.12 815.36 838.347 814.38 838.8 813.54C839.253 812.687 839.873 812.027 840.66 811.56C841.46 811.093 842.347 810.86 843.32 810.86C844.28 810.86 845.113 811.067 845.82 811.48C846.527 811.893 847.053 812.413 847.4 813.04V811.04H849.24V822H847.4V819.96C847.04 820.6 846.5 821.133 845.78 821.56C845.073 821.973 844.247 822.18 843.3 822.18C842.327 822.18 841.447 821.94 840.66 821.46C839.873 820.98 839.253 820.307 838.8 819.44C838.347 818.573 838.12 817.587 838.12 816.48ZM847.4 816.5C847.4 815.673 847.233 814.953 846.9 814.34C846.567 813.727 846.113 813.26 845.54 812.94C844.98 812.607 844.36 812.44 843.68 812.44C843 812.44 842.38 812.6 841.82 812.92C841.26 813.24 840.813 813.707 840.48 814.32C840.147 814.933 839.98 815.653 839.98 816.48C839.98 817.32 840.147 818.053 840.48 818.68C840.813 819.293 841.26 819.767 841.82 820.1C842.38 820.42 843 820.58 843.68 820.58C844.36 820.58 844.98 820.42 845.54 820.1C846.113 819.767 846.567 819.293 846.9 818.68C847.233 818.053 847.4 817.327 847.4 816.5ZM854.536 812.82C854.856 812.193 855.309 811.707 855.896 811.36C856.496 811.013 857.222 810.84 858.076 810.84V812.72H857.596C855.556 812.72 854.536 813.827 854.536 816.04V822H852.716V811.04H854.536V812.82ZM859.897 816.48C859.897 815.36 860.123 814.38 860.577 813.54C861.03 812.687 861.65 812.027 862.437 811.56C863.237 811.093 864.13 810.86 865.117 810.86C865.97 810.86 866.763 811.06 867.497 811.46C868.23 811.847 868.79 812.36 869.177 813V807.2H871.017V822H869.177V819.94C868.817 820.593 868.283 821.133 867.577 821.56C866.87 821.973 866.043 822.18 865.097 822.18C864.123 822.18 863.237 821.94 862.437 821.46C861.65 820.98 861.03 820.307 860.577 819.44C860.123 818.573 859.897 817.587 859.897 816.48ZM869.177 816.5C869.177 815.673 869.01 814.953 868.677 814.34C868.343 813.727 867.89 813.26 867.317 812.94C866.757 812.607 866.137 812.44 865.457 812.44C864.777 812.44 864.157 812.6 863.597 812.92C863.037 813.24 862.59 813.707 862.257 814.32C861.923 814.933 861.757 815.653 861.757 816.48C861.757 817.32 861.923 818.053 862.257 818.68C862.59 819.293 863.037 819.767 863.597 820.1C864.157 820.42 864.777 820.58 865.457 820.58C866.137 820.58 866.757 820.42 867.317 820.1C867.89 819.767 868.343 819.293 868.677 818.68C869.01 818.053 869.177 817.327 869.177 816.5Z" fill="white"/>
<path d="M473.541 138.06V152H471.721V145.68H464.621V152H462.801V138.06H464.621V144.18H471.721V138.06H473.541ZM477.989 139.26C477.642 139.26 477.349 139.14 477.109 138.9C476.869 138.66 476.749 138.367 476.749 138.02C476.749 137.673 476.869 137.38 477.109 137.14C477.349 136.9 477.642 136.78 477.989 136.78C478.322 136.78 478.602 136.9 478.829 137.14C479.069 137.38 479.189 137.673 479.189 138.02C479.189 138.367 479.069 138.66 478.829 138.9C478.602 139.14 478.322 139.26 477.989 139.26ZM478.869 141.04V152H477.049V141.04H478.869ZM484.591 142.54V149C484.591 149.533 484.704 149.913 484.931 150.14C485.158 150.353 485.551 150.46 486.111 150.46H487.451V152H485.811C484.798 152 484.038 151.767 483.531 151.3C483.024 150.833 482.771 150.067 482.771 149V142.54H481.351V141.04H482.771V138.28H484.591V141.04H487.451V142.54H484.591ZM508.968 140.84C509.821 140.84 510.581 141.02 511.248 141.38C511.915 141.727 512.441 142.253 512.828 142.96C513.215 143.667 513.408 144.527 513.408 145.54V152H511.608V145.8C511.608 144.707 511.335 143.873 510.788 143.3C510.255 142.713 509.528 142.42 508.608 142.42C507.661 142.42 506.908 142.727 506.348 143.34C505.788 143.94 505.508 144.813 505.508 145.96V152H503.708V145.8C503.708 144.707 503.435 143.873 502.888 143.3C502.355 142.713 501.628 142.42 500.708 142.42C499.761 142.42 499.008 142.727 498.448 143.34C497.888 143.94 497.608 144.813 497.608 145.96V152H495.788V141.04H497.608V142.62C497.968 142.047 498.448 141.607 499.048 141.3C499.661 140.993 500.335 140.84 501.068 140.84C501.988 140.84 502.801 141.047 503.508 141.46C504.215 141.873 504.741 142.48 505.088 143.28C505.395 142.507 505.901 141.907 506.608 141.48C507.315 141.053 508.101 140.84 508.968 140.84ZM517.734 139.26C517.387 139.26 517.094 139.14 516.854 138.9C516.614 138.66 516.494 138.367 516.494 138.02C516.494 137.673 516.614 137.38 516.854 137.14C517.094 136.9 517.387 136.78 517.734 136.78C518.067 136.78 518.347 136.9 518.574 137.14C518.814 137.38 518.934 137.673 518.934 138.02C518.934 138.367 518.814 138.66 518.574 138.9C518.347 139.14 518.067 139.26 517.734 139.26ZM518.614 141.04V152H516.794V141.04H518.614ZM523.935 137.2V152H522.115V137.2H523.935ZM537.437 146.1C537.437 146.447 537.417 146.813 537.377 147.2H528.617C528.684 148.28 529.051 149.127 529.717 149.74C530.397 150.34 531.217 150.64 532.177 150.64C532.964 150.64 533.617 150.46 534.137 150.1C534.671 149.727 535.044 149.233 535.257 148.62H537.217C536.924 149.673 536.337 150.533 535.457 151.2C534.577 151.853 533.484 152.18 532.177 152.18C531.137 152.18 530.204 151.947 529.377 151.48C528.564 151.013 527.924 150.353 527.457 149.5C526.991 148.633 526.757 147.633 526.757 146.5C526.757 145.367 526.984 144.373 527.437 143.52C527.891 142.667 528.524 142.013 529.337 141.56C530.164 141.093 531.111 140.86 532.177 140.86C533.217 140.86 534.137 141.087 534.937 141.54C535.737 141.993 536.351 142.62 536.777 143.42C537.217 144.207 537.437 145.1 537.437 146.1ZM535.557 145.72C535.557 145.027 535.404 144.433 535.097 143.94C534.791 143.433 534.371 143.053 533.837 142.8C533.317 142.533 532.737 142.4 532.097 142.4C531.177 142.4 530.391 142.693 529.737 143.28C529.097 143.867 528.731 144.68 528.637 145.72H535.557ZM544.12 152.18C543.28 152.18 542.526 152.04 541.86 151.76C541.193 151.467 540.666 151.067 540.28 150.56C539.893 150.04 539.68 149.447 539.64 148.78H541.52C541.573 149.327 541.826 149.773 542.28 150.12C542.746 150.467 543.353 150.64 544.1 150.64C544.793 150.64 545.34 150.487 545.74 150.18C546.14 149.873 546.34 149.487 546.34 149.02C546.34 148.54 546.126 148.187 545.7 147.96C545.273 147.72 544.613 147.487 543.72 147.26C542.906 147.047 542.24 146.833 541.72 146.62C541.213 146.393 540.773 146.067 540.4 145.64C540.04 145.2 539.86 144.627 539.86 143.92C539.86 143.36 540.026 142.847 540.36 142.38C540.693 141.913 541.166 141.547 541.78 141.28C542.393 141 543.093 140.86 543.88 140.86C545.093 140.86 546.073 141.167 546.82 141.78C547.566 142.393 547.966 143.233 548.02 144.3H546.2C546.16 143.727 545.926 143.267 545.5 142.92C545.086 142.573 544.526 142.4 543.82 142.4C543.166 142.4 542.646 142.54 542.26 142.82C541.873 143.1 541.68 143.467 541.68 143.92C541.68 144.28 541.793 144.58 542.02 144.82C542.26 145.047 542.553 145.233 542.9 145.38C543.26 145.513 543.753 145.667 544.38 145.84C545.166 146.053 545.806 146.267 546.3 146.48C546.793 146.68 547.213 146.987 547.56 147.4C547.92 147.813 548.106 148.353 548.12 149.02C548.12 149.62 547.953 150.16 547.62 150.64C547.286 151.12 546.813 151.5 546.2 151.78C545.6 152.047 544.906 152.18 544.12 152.18ZM553.309 142.54V149C553.309 149.533 553.422 149.913 553.649 150.14C553.875 150.353 554.269 150.46 554.829 150.46H556.169V152H554.529C553.515 152 552.755 151.767 552.249 151.3C551.742 150.833 551.489 150.067 551.489 149V142.54H550.069V141.04H551.489V138.28H553.309V141.04H556.169V142.54H553.309ZM563.554 152.18C562.527 152.18 561.594 151.947 560.754 151.48C559.927 151.013 559.274 150.353 558.794 149.5C558.327 148.633 558.094 147.633 558.094 146.5C558.094 145.38 558.334 144.393 558.814 143.54C559.307 142.673 559.974 142.013 560.814 141.56C561.654 141.093 562.594 140.86 563.634 140.86C564.674 140.86 565.614 141.093 566.454 141.56C567.294 142.013 567.954 142.667 568.434 143.52C568.927 144.373 569.174 145.367 569.174 146.5C569.174 147.633 568.921 148.633 568.414 149.5C567.921 150.353 567.247 151.013 566.394 151.48C565.541 151.947 564.594 152.18 563.554 152.18ZM563.554 150.58C564.207 150.58 564.821 150.427 565.394 150.12C565.967 149.813 566.427 149.353 566.774 148.74C567.134 148.127 567.314 147.38 567.314 146.5C567.314 145.62 567.141 144.873 566.794 144.26C566.447 143.647 565.994 143.193 565.434 142.9C564.874 142.593 564.267 142.44 563.614 142.44C562.947 142.44 562.334 142.593 561.774 142.9C561.227 143.193 560.787 143.647 560.454 144.26C560.121 144.873 559.954 145.62 559.954 146.5C559.954 147.393 560.114 148.147 560.434 148.76C560.767 149.373 561.207 149.833 561.754 150.14C562.301 150.433 562.901 150.58 563.554 150.58ZM577.307 140.84C578.64 140.84 579.72 141.247 580.547 142.06C581.374 142.86 581.787 144.02 581.787 145.54V152H579.987V145.8C579.987 144.707 579.714 143.873 579.167 143.3C578.62 142.713 577.874 142.42 576.927 142.42C575.967 142.42 575.2 142.72 574.627 143.32C574.067 143.92 573.787 144.793 573.787 145.94V152H571.967V141.04H573.787V142.6C574.147 142.04 574.634 141.607 575.247 141.3C575.874 140.993 576.56 140.84 577.307 140.84ZM595.16 146.1C595.16 146.447 595.14 146.813 595.1 147.2H586.34C586.407 148.28 586.773 149.127 587.44 149.74C588.12 150.34 588.94 150.64 589.9 150.64C590.687 150.64 591.34 150.46 591.86 150.1C592.393 149.727 592.767 149.233 592.98 148.62H594.94C594.647 149.673 594.06 150.533 593.18 151.2C592.3 151.853 591.207 152.18 589.9 152.18C588.86 152.18 587.927 151.947 587.1 151.48C586.287 151.013 585.647 150.353 585.18 149.5C584.713 148.633 584.48 147.633 584.48 146.5C584.48 145.367 584.707 144.373 585.16 143.52C585.613 142.667 586.247 142.013 587.06 141.56C587.887 141.093 588.833 140.86 589.9 140.86C590.94 140.86 591.86 141.087 592.66 141.54C593.46 141.993 594.073 142.62 594.5 143.42C594.94 144.207 595.16 145.1 595.16 146.1ZM593.28 145.72C593.28 145.027 593.127 144.433 592.82 143.94C592.513 143.433 592.093 143.053 591.56 142.8C591.04 142.533 590.46 142.4 589.82 142.4C588.9 142.4 588.113 142.693 587.46 143.28C586.82 143.867 586.453 144.68 586.36 145.72H593.28ZM601.842 152.18C601.002 152.18 600.249 152.04 599.582 151.76C598.916 151.467 598.389 151.067 598.002 150.56C597.616 150.04 597.402 149.447 597.362 148.78H599.242C599.296 149.327 599.549 149.773 600.002 150.12C600.469 150.467 601.076 150.64 601.822 150.64C602.516 150.64 603.062 150.487 603.462 150.18C603.862 149.873 604.062 149.487 604.062 149.02C604.062 148.54 603.849 148.187 603.422 147.96C602.996 147.72 602.336 147.487 601.442 147.26C600.629 147.047 599.962 146.833 599.442 146.62C598.936 146.393 598.496 146.067 598.122 145.64C597.762 145.2 597.582 144.627 597.582 143.92C597.582 143.36 597.749 142.847 598.082 142.38C598.416 141.913 598.889 141.547 599.502 141.28C600.116 141 600.816 140.86 601.602 140.86C602.816 140.86 603.796 141.167 604.542 141.78C605.289 142.393 605.689 143.233 605.742 144.3H603.922C603.882 143.727 603.649 143.267 603.222 142.92C602.809 142.573 602.249 142.4 601.542 142.4C600.889 142.4 600.369 142.54 599.982 142.82C599.596 143.1 599.402 143.467 599.402 143.92C599.402 144.28 599.516 144.58 599.742 144.82C599.982 145.047 600.276 145.233 600.622 145.38C600.982 145.513 601.476 145.667 602.102 145.84C602.889 146.053 603.529 146.267 604.022 146.48C604.516 146.68 604.936 146.987 605.282 147.4C605.642 147.813 605.829 148.353 605.842 149.02C605.842 149.62 605.676 150.16 605.342 150.64C605.009 151.12 604.536 151.5 603.922 151.78C603.322 152.047 602.629 152.18 601.842 152.18ZM610.691 149.48L608.451 154.86H607.231L608.691 149.48H610.691ZM628.628 141.04V152H626.808V150.38C626.462 150.94 625.975 151.38 625.348 151.7C624.735 152.007 624.055 152.16 623.308 152.16C622.455 152.16 621.688 151.987 621.008 151.64C620.328 151.28 619.788 150.747 619.388 150.04C619.002 149.333 618.808 148.473 618.808 147.46V141.04H620.608V147.22C620.608 148.3 620.882 149.133 621.428 149.72C621.975 150.293 622.722 150.58 623.668 150.58C624.642 150.58 625.408 150.28 625.968 149.68C626.528 149.08 626.808 148.207 626.808 147.06V141.04H628.628ZM637.441 140.84C638.775 140.84 639.855 141.247 640.681 142.06C641.508 142.86 641.921 144.02 641.921 145.54V152H640.121V145.8C640.121 144.707 639.848 143.873 639.301 143.3C638.755 142.713 638.008 142.42 637.061 142.42C636.101 142.42 635.335 142.72 634.761 143.32C634.201 143.92 633.921 144.793 633.921 145.94V152H632.101V141.04H633.921V142.6C634.281 142.04 634.768 141.607 635.381 141.3C636.008 140.993 636.695 140.84 637.441 140.84ZM647.114 137.2V152H645.294V137.2H647.114ZM655.396 152.18C654.37 152.18 653.436 151.947 652.596 151.48C651.77 151.013 651.116 150.353 650.636 149.5C650.17 148.633 649.936 147.633 649.936 146.5C649.936 145.38 650.176 144.393 650.656 143.54C651.15 142.673 651.816 142.013 652.656 141.56C653.496 141.093 654.436 140.86 655.476 140.86C656.516 140.86 657.456 141.093 658.296 141.56C659.136 142.013 659.796 142.667 660.276 143.52C660.77 144.373 661.016 145.367 661.016 146.5C661.016 147.633 660.763 148.633 660.256 149.5C659.763 150.353 659.09 151.013 658.236 151.48C657.383 151.947 656.436 152.18 655.396 152.18ZM655.396 150.58C656.05 150.58 656.663 150.427 657.236 150.12C657.81 149.813 658.27 149.353 658.616 148.74C658.976 148.127 659.156 147.38 659.156 146.5C659.156 145.62 658.983 144.873 658.636 144.26C658.29 143.647 657.836 143.193 657.276 142.9C656.716 142.593 656.11 142.44 655.456 142.44C654.79 142.44 654.176 142.593 653.616 142.9C653.07 143.193 652.63 143.647 652.296 144.26C651.963 144.873 651.796 145.62 651.796 146.5C651.796 147.393 651.956 148.147 652.276 148.76C652.61 149.373 653.05 149.833 653.596 150.14C654.143 150.433 654.743 150.58 655.396 150.58ZM663.129 146.5C663.129 145.367 663.356 144.38 663.809 143.54C664.262 142.687 664.889 142.027 665.689 141.56C666.502 141.093 667.429 140.86 668.469 140.86C669.816 140.86 670.922 141.187 671.789 141.84C672.669 142.493 673.249 143.4 673.529 144.56H671.569C671.382 143.893 671.016 143.367 670.469 142.98C669.936 142.593 669.269 142.4 668.469 142.4C667.429 142.4 666.589 142.76 665.949 143.48C665.309 144.187 664.989 145.193 664.989 146.5C664.989 147.82 665.309 148.84 665.949 149.56C666.589 150.28 667.429 150.64 668.469 150.64C669.269 150.64 669.936 150.453 670.469 150.08C671.002 149.707 671.369 149.173 671.569 148.48H673.529C673.236 149.6 672.649 150.5 671.769 151.18C670.889 151.847 669.789 152.18 668.469 152.18C667.429 152.18 666.502 151.947 665.689 151.48C664.889 151.013 664.262 150.353 663.809 149.5C663.356 148.647 663.129 147.647 663.129 146.5ZM682.478 152L678.178 147.16V152H676.358V137.2H678.178V145.9L682.398 141.04H684.938L679.778 146.5L684.958 152H682.478ZM694.603 142.82C694.923 142.193 695.376 141.707 695.963 141.36C696.563 141.013 697.289 140.84 698.143 140.84V142.72H697.663C695.623 142.72 694.603 143.827 694.603 146.04V152H692.783V141.04H694.603V142.82ZM710.644 146.1C710.644 146.447 710.624 146.813 710.584 147.2H701.824C701.89 148.28 702.257 149.127 702.924 149.74C703.604 150.34 704.424 150.64 705.384 150.64C706.17 150.64 706.824 150.46 707.344 150.1C707.877 149.727 708.25 149.233 708.464 148.62H710.424C710.13 149.673 709.544 150.533 708.664 151.2C707.784 151.853 706.69 152.18 705.384 152.18C704.344 152.18 703.41 151.947 702.584 151.48C701.77 151.013 701.13 150.353 700.664 149.5C700.197 148.633 699.964 147.633 699.964 146.5C699.964 145.367 700.19 144.373 700.644 143.52C701.097 142.667 701.73 142.013 702.544 141.56C703.37 141.093 704.317 140.86 705.384 140.86C706.424 140.86 707.344 141.087 708.144 141.54C708.944 141.993 709.557 142.62 709.984 143.42C710.424 144.207 710.644 145.1 710.644 146.1ZM708.764 145.72C708.764 145.027 708.61 144.433 708.304 143.94C707.997 143.433 707.577 143.053 707.044 142.8C706.524 142.533 705.944 142.4 705.304 142.4C704.384 142.4 703.597 142.693 702.944 143.28C702.304 143.867 701.937 144.68 701.844 145.72H708.764ZM728.046 141.04L724.626 152H722.746L720.106 143.3L717.466 152H715.586L712.146 141.04H714.006L716.526 150.24L719.246 141.04H721.106L723.766 150.26L726.246 141.04H728.046ZM729.572 146.48C729.572 145.36 729.799 144.38 730.252 143.54C730.705 142.687 731.325 142.027 732.112 141.56C732.912 141.093 733.799 140.86 734.772 140.86C735.732 140.86 736.565 141.067 737.272 141.48C737.979 141.893 738.505 142.413 738.852 143.04V141.04H740.692V152H738.852V149.96C738.492 150.6 737.952 151.133 737.232 151.56C736.525 151.973 735.699 152.18 734.752 152.18C733.779 152.18 732.899 151.94 732.112 151.46C731.325 150.98 730.705 150.307 730.252 149.44C729.799 148.573 729.572 147.587 729.572 146.48ZM738.852 146.5C738.852 145.673 738.685 144.953 738.352 144.34C738.019 143.727 737.565 143.26 736.992 142.94C736.432 142.607 735.812 142.44 735.132 142.44C734.452 142.44 733.832 142.6 733.272 142.92C732.712 143.24 732.265 143.707 731.932 144.32C731.599 144.933 731.432 145.653 731.432 146.48C731.432 147.32 731.599 148.053 731.932 148.68C732.265 149.293 732.712 149.767 733.272 150.1C733.832 150.42 734.452 150.58 735.132 150.58C735.812 150.58 736.432 150.42 736.992 150.1C737.565 149.767 738.019 149.293 738.352 148.68C738.685 148.053 738.852 147.327 738.852 146.5ZM745.988 142.82C746.308 142.193 746.761 141.707 747.348 141.36C747.948 141.013 748.674 140.84 749.528 140.84V142.72H749.048C747.008 142.72 745.988 143.827 745.988 146.04V152H744.168V141.04H745.988V142.82ZM751.349 146.48C751.349 145.36 751.575 144.38 752.029 143.54C752.482 142.687 753.102 142.027 753.889 141.56C754.689 141.093 755.582 140.86 756.569 140.86C757.422 140.86 758.215 141.06 758.949 141.46C759.682 141.847 760.242 142.36 760.629 143V137.2H762.469V152H760.629V149.94C760.269 150.593 759.735 151.133 759.029 151.56C758.322 151.973 757.495 152.18 756.549 152.18C755.575 152.18 754.689 151.94 753.889 151.46C753.102 150.98 752.482 150.307 752.029 149.44C751.575 148.573 751.349 147.587 751.349 146.48ZM760.629 146.5C760.629 145.673 760.462 144.953 760.129 144.34C759.795 143.727 759.342 143.26 758.769 142.94C758.209 142.607 757.589 142.44 756.909 142.44C756.229 142.44 755.609 142.6 755.049 142.92C754.489 143.24 754.042 143.707 753.709 144.32C753.375 144.933 753.209 145.653 753.209 146.48C753.209 147.32 753.375 148.053 753.709 148.68C754.042 149.293 754.489 149.767 755.049 150.1C755.609 150.42 756.229 150.58 756.909 150.58C757.589 150.58 758.209 150.42 758.769 150.1C759.342 149.767 759.795 149.293 760.129 148.68C760.462 148.053 760.629 147.327 760.629 146.5ZM769.824 152.18C768.984 152.18 768.231 152.04 767.564 151.76C766.898 151.467 766.371 151.067 765.984 150.56C765.598 150.04 765.384 149.447 765.344 148.78H767.224C767.278 149.327 767.531 149.773 767.984 150.12C768.451 150.467 769.058 150.64 769.804 150.64C770.498 150.64 771.044 150.487 771.444 150.18C771.844 149.873 772.044 149.487 772.044 149.02C772.044 148.54 771.831 148.187 771.404 147.96C770.978 147.72 770.318 147.487 769.424 147.26C768.611 147.047 767.944 146.833 767.424 146.62C766.918 146.393 766.478 146.067 766.104 145.64C765.744 145.2 765.564 144.627 765.564 143.92C765.564 143.36 765.731 142.847 766.064 142.38C766.398 141.913 766.871 141.547 767.484 141.28C768.098 141 768.798 140.86 769.584 140.86C770.798 140.86 771.778 141.167 772.524 141.78C773.271 142.393 773.671 143.233 773.724 144.3H771.904C771.864 143.727 771.631 143.267 771.204 142.92C770.791 142.573 770.231 142.4 769.524 142.4C768.871 142.4 768.351 142.54 767.964 142.82C767.578 143.1 767.384 143.467 767.384 143.92C767.384 144.28 767.498 144.58 767.724 144.82C767.964 145.047 768.258 145.233 768.604 145.38C768.964 145.513 769.458 145.667 770.084 145.84C770.871 146.053 771.511 146.267 772.004 146.48C772.498 146.68 772.918 146.987 773.264 147.4C773.624 147.813 773.811 148.353 773.824 149.02C773.824 149.62 773.658 150.16 773.324 150.64C772.991 151.12 772.518 151.5 771.904 151.78C771.304 152.047 770.611 152.18 769.824 152.18ZM778.674 149.48L776.434 154.86H775.214L776.674 149.48H778.674ZM786.21 146.48C786.21 145.36 786.437 144.38 786.89 143.54C787.344 142.687 787.964 142.027 788.75 141.56C789.55 141.093 790.437 140.86 791.41 140.86C792.37 140.86 793.204 141.067 793.91 141.48C794.617 141.893 795.144 142.413 795.49 143.04V141.04H797.33V152H795.49V149.96C795.13 150.6 794.59 151.133 793.87 151.56C793.164 151.973 792.337 152.18 791.39 152.18C790.417 152.18 789.537 151.94 788.75 151.46C787.964 150.98 787.344 150.307 786.89 149.44C786.437 148.573 786.21 147.587 786.21 146.48ZM795.49 146.5C795.49 145.673 795.324 144.953 794.99 144.34C794.657 143.727 794.204 143.26 793.63 142.94C793.07 142.607 792.45 142.44 791.77 142.44C791.09 142.44 790.47 142.6 789.91 142.92C789.35 143.24 788.904 143.707 788.57 144.32C788.237 144.933 788.07 145.653 788.07 146.48C788.07 147.32 788.237 148.053 788.57 148.68C788.904 149.293 789.35 149.767 789.91 150.1C790.47 150.42 791.09 150.58 791.77 150.58C792.45 150.58 793.07 150.42 793.63 150.1C794.204 149.767 794.657 149.293 794.99 148.68C795.324 148.053 795.49 147.327 795.49 146.5ZM806.146 140.84C807.479 140.84 808.559 141.247 809.386 142.06C810.213 142.86 810.626 144.02 810.626 145.54V152H808.826V145.8C808.826 144.707 808.553 143.873 808.006 143.3C807.459 142.713 806.713 142.42 805.766 142.42C804.806 142.42 804.039 142.72 803.466 143.32C802.906 143.92 802.626 144.793 802.626 145.94V152H800.806V141.04H802.626V142.6C802.986 142.04 803.473 141.607 804.086 141.3C804.713 140.993 805.399 140.84 806.146 140.84ZM813.319 146.48C813.319 145.36 813.546 144.38 813.999 143.54C814.452 142.687 815.072 142.027 815.859 141.56C816.659 141.093 817.552 140.86 818.539 140.86C819.392 140.86 820.186 141.06 820.919 141.46C821.652 141.847 822.212 142.36 822.599 143V137.2H824.439V152H822.599V149.94C822.239 150.593 821.706 151.133 820.999 151.56C820.292 151.973 819.466 152.18 818.519 152.18C817.546 152.18 816.659 151.94 815.859 151.46C815.072 150.98 814.452 150.307 813.999 149.44C813.546 148.573 813.319 147.587 813.319 146.48ZM822.599 146.5C822.599 145.673 822.432 144.953 822.099 144.34C821.766 143.727 821.312 143.26 820.739 142.94C820.179 142.607 819.559 142.44 818.879 142.44C818.199 142.44 817.579 142.6 817.019 142.92C816.459 143.24 816.012 143.707 815.679 144.32C815.346 144.933 815.179 145.653 815.179 146.48C815.179 147.32 815.346 148.053 815.679 148.68C816.012 149.293 816.459 149.767 817.019 150.1C817.579 150.42 818.199 150.58 818.879 150.58C819.559 150.58 820.179 150.42 820.739 150.1C821.312 149.767 821.766 149.293 822.099 148.68C822.432 148.053 822.599 147.327 822.599 146.5ZM832.967 146.5C832.967 145.367 833.193 144.38 833.647 143.54C834.1 142.687 834.727 142.027 835.527 141.56C836.34 141.093 837.267 140.86 838.307 140.86C839.653 140.86 840.76 141.187 841.627 141.84C842.507 142.493 843.087 143.4 843.367 144.56H841.407C841.22 143.893 840.853 143.367 840.307 142.98C839.773 142.593 839.107 142.4 838.307 142.4C837.267 142.4 836.427 142.76 835.787 143.48C835.147 144.187 834.827 145.193 834.827 146.5C834.827 147.82 835.147 148.84 835.787 149.56C836.427 150.28 837.267 150.64 838.307 150.64C839.107 150.64 839.773 150.453 840.307 150.08C840.84 149.707 841.207 149.173 841.407 148.48H843.367C843.073 149.6 842.487 150.5 841.607 151.18C840.727 151.847 839.627 152.18 838.307 152.18C837.267 152.18 836.34 151.947 835.527 151.48C834.727 151.013 834.1 150.353 833.647 149.5C833.193 148.647 832.967 147.647 832.967 146.5ZM856.195 146.1C856.195 146.447 856.175 146.813 856.135 147.2H847.375C847.442 148.28 847.808 149.127 848.475 149.74C849.155 150.34 849.975 150.64 850.935 150.64C851.722 150.64 852.375 150.46 852.895 150.1C853.428 149.727 853.802 149.233 854.015 148.62H855.975C855.682 149.673 855.095 150.533 854.215 151.2C853.335 151.853 852.242 152.18 850.935 152.18C849.895 152.18 848.962 151.947 848.135 151.48C847.322 151.013 846.682 150.353 846.215 149.5C845.748 148.633 845.515 147.633 845.515 146.5C845.515 145.367 845.742 144.373 846.195 143.52C846.648 142.667 847.282 142.013 848.095 141.56C848.922 141.093 849.868 140.86 850.935 140.86C851.975 140.86 852.895 141.087 853.695 141.54C854.495 141.993 855.108 142.62 855.535 143.42C855.975 144.207 856.195 145.1 856.195 146.1ZM854.315 145.72C854.315 145.027 854.162 144.433 853.855 143.94C853.548 143.433 853.128 143.053 852.595 142.8C852.075 142.533 851.495 142.4 850.855 142.4C849.935 142.4 849.148 142.693 848.495 143.28C847.855 143.867 847.488 144.68 847.395 145.72H854.315ZM860.817 137.2V152H858.997V137.2H860.817ZM874.319 146.1C874.319 146.447 874.299 146.813 874.259 147.2H865.499C865.566 148.28 865.933 149.127 866.599 149.74C867.279 150.34 868.099 150.64 869.059 150.64C869.846 150.64 870.499 150.46 871.019 150.1C871.553 149.727 871.926 149.233 872.139 148.62H874.099C873.806 149.673 873.219 150.533 872.339 151.2C871.459 151.853 870.366 152.18 869.059 152.18C868.019 152.18 867.086 151.947 866.259 151.48C865.446 151.013 864.806 150.353 864.339 149.5C863.873 148.633 863.639 147.633 863.639 146.5C863.639 145.367 863.866 144.373 864.319 143.52C864.773 142.667 865.406 142.013 866.219 141.56C867.046 141.093 867.993 140.86 869.059 140.86C870.099 140.86 871.019 141.087 871.819 141.54C872.619 141.993 873.233 142.62 873.659 143.42C874.099 144.207 874.319 145.1 874.319 146.1ZM872.439 145.72C872.439 145.027 872.286 144.433 871.979 143.94C871.673 143.433 871.253 143.053 870.719 142.8C870.199 142.533 869.619 142.4 868.979 142.4C868.059 142.4 867.273 142.693 866.619 143.28C865.979 143.867 865.613 144.68 865.519 145.72H872.439ZM878.942 143.08C879.315 142.427 879.862 141.893 880.582 141.48C881.302 141.067 882.122 140.86 883.042 140.86C884.028 140.86 884.915 141.093 885.702 141.56C886.488 142.027 887.108 142.687 887.562 143.54C888.015 144.38 888.242 145.36 888.242 146.48C888.242 147.587 888.015 148.573 887.562 149.44C887.108 150.307 886.482 150.98 885.682 151.46C884.895 151.94 884.015 152.18 883.042 152.18C882.095 152.18 881.262 151.973 880.542 151.56C879.835 151.147 879.302 150.62 878.942 149.98V152H877.122V137.2H878.942V143.08ZM886.382 146.48C886.382 145.653 886.215 144.933 885.882 144.32C885.548 143.707 885.095 143.24 884.522 142.92C883.962 142.6 883.342 142.44 882.662 142.44C881.995 142.44 881.375 142.607 880.802 142.94C880.242 143.26 879.788 143.733 879.442 144.36C879.108 144.973 878.942 145.687 878.942 146.5C878.942 147.327 879.108 148.053 879.442 148.68C879.788 149.293 880.242 149.767 880.802 150.1C881.375 150.42 881.995 150.58 882.662 150.58C883.342 150.58 883.962 150.42 884.522 150.1C885.095 149.767 885.548 149.293 885.882 148.68C886.215 148.053 886.382 147.32 886.382 146.48ZM892.857 142.82C893.177 142.193 893.631 141.707 894.217 141.36C894.817 141.013 895.544 140.84 896.397 140.84V142.72H895.917C893.877 142.72 892.857 143.827 892.857 146.04V152H891.037V141.04H892.857V142.82ZM898.218 146.48C898.218 145.36 898.445 144.38 898.898 143.54C899.352 142.687 899.972 142.027 900.758 141.56C901.558 141.093 902.445 140.86 903.418 140.86C904.378 140.86 905.212 141.067 905.918 141.48C906.625 141.893 907.152 142.413 907.498 143.04V141.04H909.338V152H907.498V149.96C907.138 150.6 906.598 151.133 905.878 151.56C905.172 151.973 904.345 152.18 903.398 152.18C902.425 152.18 901.545 151.94 900.758 151.46C899.972 150.98 899.352 150.307 898.898 149.44C898.445 148.573 898.218 147.587 898.218 146.48ZM907.498 146.5C907.498 145.673 907.332 144.953 906.998 144.34C906.665 143.727 906.212 143.26 905.638 142.94C905.078 142.607 904.458 142.44 903.778 142.44C903.098 142.44 902.478 142.6 901.918 142.92C901.358 143.24 900.912 143.707 900.578 144.32C900.245 144.933 900.078 145.653 900.078 146.48C900.078 147.32 900.245 148.053 900.578 148.68C900.912 149.293 901.358 149.767 901.918 150.1C902.478 150.42 903.098 150.58 903.778 150.58C904.458 150.58 905.078 150.42 905.638 150.1C906.212 149.767 906.665 149.293 906.998 148.68C907.332 148.053 907.498 147.327 907.498 146.5ZM915.034 142.54V149C915.034 149.533 915.147 149.913 915.374 150.14C915.601 150.353 915.994 150.46 916.554 150.46H917.894V152H916.254C915.241 152 914.481 151.767 913.974 151.3C913.467 150.833 913.214 150.067 913.214 149V142.54H911.794V141.04H913.214V138.28H915.034V141.04H917.894V142.54H915.034ZM930.499 146.1C930.499 146.447 930.479 146.813 930.439 147.2H921.679C921.746 148.28 922.112 149.127 922.779 149.74C923.459 150.34 924.279 150.64 925.239 150.64C926.026 150.64 926.679 150.46 927.199 150.1C927.732 149.727 928.106 149.233 928.319 148.62H930.279C929.986 149.673 929.399 150.533 928.519 151.2C927.639 151.853 926.546 152.18 925.239 152.18C924.199 152.18 923.266 151.947 922.439 151.48C921.626 151.013 920.986 150.353 920.519 149.5C920.052 148.633 919.819 147.633 919.819 146.5C919.819 145.367 920.046 144.373 920.499 143.52C920.952 142.667 921.586 142.013 922.399 141.56C923.226 141.093 924.172 140.86 925.239 140.86C926.279 140.86 927.199 141.087 927.999 141.54C928.799 141.993 929.412 142.62 929.839 143.42C930.279 144.207 930.499 145.1 930.499 146.1ZM928.619 145.72C928.619 145.027 928.466 144.433 928.159 143.94C927.852 143.433 927.432 143.053 926.899 142.8C926.379 142.533 925.799 142.4 925.159 142.4C924.239 142.4 923.452 142.693 922.799 143.28C922.159 143.867 921.792 144.68 921.699 145.72H928.619ZM948.473 141.04L941.873 157.16H939.993L942.153 151.88L937.733 141.04H939.753L943.193 149.92L946.593 141.04H948.473ZM955.483 152.18C954.456 152.18 953.523 151.947 952.683 151.48C951.856 151.013 951.203 150.353 950.723 149.5C950.256 148.633 950.023 147.633 950.023 146.5C950.023 145.38 950.263 144.393 950.743 143.54C951.236 142.673 951.903 142.013 952.743 141.56C953.583 141.093 954.523 140.86 955.563 140.86C956.603 140.86 957.543 141.093 958.383 141.56C959.223 142.013 959.883 142.667 960.363 143.52C960.856 144.373 961.103 145.367 961.103 146.5C961.103 147.633 960.85 148.633 960.343 149.5C959.85 150.353 959.176 151.013 958.323 151.48C957.47 151.947 956.523 152.18 955.483 152.18ZM955.483 150.58C956.136 150.58 956.75 150.427 957.323 150.12C957.896 149.813 958.356 149.353 958.703 148.74C959.063 148.127 959.243 147.38 959.243 146.5C959.243 145.62 959.07 144.873 958.723 144.26C958.376 143.647 957.923 143.193 957.363 142.9C956.803 142.593 956.196 142.44 955.543 142.44C954.876 142.44 954.263 142.593 953.703 142.9C953.156 143.193 952.716 143.647 952.383 144.26C952.05 144.873 951.883 145.62 951.883 146.5C951.883 147.393 952.043 148.147 952.363 148.76C952.696 149.373 953.136 149.833 953.683 150.14C954.23 150.433 954.83 150.58 955.483 150.58ZM973.616 141.04V152H971.796V150.38C971.449 150.94 970.963 151.38 970.336 151.7C969.723 152.007 969.043 152.16 968.296 152.16C967.443 152.16 966.676 151.987 965.996 151.64C965.316 151.28 964.776 150.747 964.376 150.04C963.989 149.333 963.796 148.473 963.796 147.46V141.04H965.596V147.22C965.596 148.3 965.869 149.133 966.416 149.72C966.963 150.293 967.709 150.58 968.656 150.58C969.629 150.58 970.396 150.28 970.956 149.68C971.516 149.08 971.796 148.207 971.796 147.06V141.04H973.616ZM978.909 142.82C979.229 142.193 979.682 141.707 980.269 141.36C980.869 141.013 981.595 140.84 982.449 140.84V142.72H981.969C979.929 142.72 978.909 143.827 978.909 146.04V152H977.089V141.04H978.909V142.82ZM994.562 152.18C993.722 152.18 992.969 152.04 992.302 151.76C991.635 151.467 991.109 151.067 990.722 150.56C990.335 150.04 990.122 149.447 990.082 148.78H991.962C992.015 149.327 992.269 149.773 992.722 150.12C993.189 150.467 993.795 150.64 994.542 150.64C995.235 150.64 995.782 150.487 996.182 150.18C996.582 149.873 996.782 149.487 996.782 149.02C996.782 148.54 996.569 148.187 996.142 147.96C995.715 147.72 995.055 147.487 994.162 147.26C993.349 147.047 992.682 146.833 992.162 146.62C991.655 146.393 991.215 146.067 990.842 145.64C990.482 145.2 990.302 144.627 990.302 143.92C990.302 143.36 990.469 142.847 990.802 142.38C991.135 141.913 991.609 141.547 992.222 141.28C992.835 141 993.535 140.86 994.322 140.86C995.535 140.86 996.515 141.167 997.262 141.78C998.009 142.393 998.409 143.233 998.462 144.3H996.642C996.602 143.727 996.369 143.267 995.942 142.92C995.529 142.573 994.969 142.4 994.262 142.4C993.609 142.4 993.089 142.54 992.702 142.82C992.315 143.1 992.122 143.467 992.122 143.92C992.122 144.28 992.235 144.58 992.462 144.82C992.702 145.047 992.995 145.233 993.342 145.38C993.702 145.513 994.195 145.667 994.822 145.84C995.609 146.053 996.249 146.267 996.742 146.48C997.235 146.68 997.655 146.987 998.002 147.4C998.362 147.813 998.549 148.353 998.562 149.02C998.562 149.62 998.395 150.16 998.062 150.64C997.729 151.12 997.255 151.5 996.642 151.78C996.042 152.047 995.349 152.18 994.562 152.18ZM1011.25 141.04V152H1009.43V150.38C1009.08 150.94 1008.6 151.38 1007.97 151.7C1007.36 152.007 1006.68 152.16 1005.93 152.16C1005.08 152.16 1004.31 151.987 1003.63 151.64C1002.95 151.28 1002.41 150.747 1002.01 150.04C1001.62 149.333 1001.43 148.473 1001.43 147.46V141.04H1003.23V147.22C1003.23 148.3 1003.5 149.133 1004.05 149.72C1004.6 150.293 1005.34 150.58 1006.29 150.58C1007.26 150.58 1008.03 150.28 1008.59 149.68C1009.15 149.08 1009.43 148.207 1009.43 147.06V141.04H1011.25ZM1014.04 146.5C1014.04 145.367 1014.27 144.38 1014.72 143.54C1015.18 142.687 1015.8 142.027 1016.6 141.56C1017.42 141.093 1018.34 140.86 1019.38 140.86C1020.73 140.86 1021.84 141.187 1022.7 141.84C1023.58 142.493 1024.16 143.4 1024.44 144.56H1022.48C1022.3 143.893 1021.93 143.367 1021.38 142.98C1020.85 142.593 1020.18 142.4 1019.38 142.4C1018.34 142.4 1017.5 142.76 1016.86 143.48C1016.22 144.187 1015.9 145.193 1015.9 146.5C1015.9 147.82 1016.22 148.84 1016.86 149.56C1017.5 150.28 1018.34 150.64 1019.38 150.64C1020.18 150.64 1020.85 150.453 1021.38 150.08C1021.92 149.707 1022.28 149.173 1022.48 148.48H1024.44C1024.15 149.6 1023.56 150.5 1022.68 151.18C1021.8 151.847 1020.7 152.18 1019.38 152.18C1018.34 152.18 1017.42 151.947 1016.6 151.48C1015.8 151.013 1015.18 150.353 1014.72 149.5C1014.27 148.647 1014.04 147.647 1014.04 146.5ZM1026.59 146.5C1026.59 145.367 1026.82 144.38 1027.27 143.54C1027.73 142.687 1028.35 142.027 1029.15 141.56C1029.97 141.093 1030.89 140.86 1031.93 140.86C1033.28 140.86 1034.39 141.187 1035.25 141.84C1036.13 142.493 1036.71 143.4 1036.99 144.56H1035.03C1034.85 143.893 1034.48 143.367 1033.93 142.98C1033.4 142.593 1032.73 142.4 1031.93 142.4C1030.89 142.4 1030.05 142.76 1029.41 143.48C1028.77 144.187 1028.45 145.193 1028.45 146.5C1028.45 147.82 1028.77 148.84 1029.41 149.56C1030.05 150.28 1030.89 150.64 1031.93 150.64C1032.73 150.64 1033.4 150.453 1033.93 150.08C1034.47 149.707 1034.83 149.173 1035.03 148.48H1036.99C1036.7 149.6 1036.11 150.5 1035.23 151.18C1034.35 151.847 1033.25 152.18 1031.93 152.18C1030.89 152.18 1029.97 151.947 1029.15 151.48C1028.35 151.013 1027.73 150.353 1027.27 149.5C1026.82 148.647 1026.59 147.647 1026.59 146.5ZM1049.82 146.1C1049.82 146.447 1049.8 146.813 1049.76 147.2H1041C1041.07 148.28 1041.43 149.127 1042.1 149.74C1042.78 150.34 1043.6 150.64 1044.56 150.64C1045.35 150.64 1046 150.46 1046.52 150.1C1047.05 149.727 1047.43 149.233 1047.64 148.62H1049.6C1049.31 149.673 1048.72 150.533 1047.84 151.2C1046.96 151.853 1045.87 152.18 1044.56 152.18C1043.52 152.18 1042.59 151.947 1041.76 151.48C1040.95 151.013 1040.31 150.353 1039.84 149.5C1039.37 148.633 1039.14 147.633 1039.14 146.5C1039.14 145.367 1039.37 144.373 1039.82 143.52C1040.27 142.667 1040.91 142.013 1041.72 141.56C1042.55 141.093 1043.49 140.86 1044.56 140.86C1045.6 140.86 1046.52 141.087 1047.32 141.54C1048.12 141.993 1048.73 142.62 1049.16 143.42C1049.6 144.207 1049.82 145.1 1049.82 146.1ZM1047.94 145.72C1047.94 145.027 1047.79 144.433 1047.48 143.94C1047.17 143.433 1046.75 143.053 1046.22 142.8C1045.7 142.533 1045.12 142.4 1044.48 142.4C1043.56 142.4 1042.77 142.693 1042.12 143.28C1041.48 143.867 1041.11 144.68 1041.02 145.72H1047.94ZM1056.5 152.18C1055.66 152.18 1054.91 152.04 1054.24 151.76C1053.58 151.467 1053.05 151.067 1052.66 150.56C1052.28 150.04 1052.06 149.447 1052.02 148.78H1053.9C1053.96 149.327 1054.21 149.773 1054.66 150.12C1055.13 150.467 1055.74 150.64 1056.48 150.64C1057.18 150.64 1057.72 150.487 1058.12 150.18C1058.52 149.873 1058.72 149.487 1058.72 149.02C1058.72 148.54 1058.51 148.187 1058.08 147.96C1057.66 147.72 1057 147.487 1056.1 147.26C1055.29 147.047 1054.62 146.833 1054.1 146.62C1053.6 146.393 1053.16 146.067 1052.78 145.64C1052.42 145.2 1052.24 144.627 1052.24 143.92C1052.24 143.36 1052.41 142.847 1052.74 142.38C1053.08 141.913 1053.55 141.547 1054.16 141.28C1054.78 141 1055.48 140.86 1056.26 140.86C1057.48 140.86 1058.46 141.167 1059.2 141.78C1059.95 142.393 1060.35 143.233 1060.4 144.3H1058.58C1058.54 143.727 1058.31 143.267 1057.88 142.92C1057.47 142.573 1056.91 142.4 1056.2 142.4C1055.55 142.4 1055.03 142.54 1054.64 142.82C1054.26 143.1 1054.06 143.467 1054.06 143.92C1054.06 144.28 1054.18 144.58 1054.4 144.82C1054.64 145.047 1054.94 145.233 1055.28 145.38C1055.64 145.513 1056.14 145.667 1056.76 145.84C1057.55 146.053 1058.19 146.267 1058.68 146.48C1059.18 146.68 1059.6 146.987 1059.94 147.4C1060.3 147.813 1060.49 148.353 1060.5 149.02C1060.5 149.62 1060.34 150.16 1060 150.64C1059.67 151.12 1059.2 151.5 1058.58 151.78C1057.98 152.047 1057.29 152.18 1056.5 152.18ZM1067.35 152.18C1066.51 152.18 1065.76 152.04 1065.09 151.76C1064.43 151.467 1063.9 151.067 1063.51 150.56C1063.13 150.04 1062.91 149.447 1062.87 148.78H1064.75C1064.81 149.327 1065.06 149.773 1065.51 150.12C1065.98 150.467 1066.59 150.64 1067.33 150.64C1068.03 150.64 1068.57 150.487 1068.97 150.18C1069.37 149.873 1069.57 149.487 1069.57 149.02C1069.57 148.54 1069.36 148.187 1068.93 147.96C1068.51 147.72 1067.85 147.487 1066.95 147.26C1066.14 147.047 1065.47 146.833 1064.95 146.62C1064.45 146.393 1064.01 146.067 1063.63 145.64C1063.27 145.2 1063.09 144.627 1063.09 143.92C1063.09 143.36 1063.26 142.847 1063.59 142.38C1063.93 141.913 1064.4 141.547 1065.01 141.28C1065.63 141 1066.33 140.86 1067.11 140.86C1068.33 140.86 1069.31 141.167 1070.05 141.78C1070.8 142.393 1071.2 143.233 1071.25 144.3H1069.43C1069.39 143.727 1069.16 143.267 1068.73 142.92C1068.32 142.573 1067.76 142.4 1067.05 142.4C1066.4 142.4 1065.88 142.54 1065.49 142.82C1065.11 143.1 1064.91 143.467 1064.91 143.92C1064.91 144.28 1065.03 144.58 1065.25 144.82C1065.49 145.047 1065.79 145.233 1066.13 145.38C1066.49 145.513 1066.99 145.667 1067.61 145.84C1068.4 146.053 1069.04 146.267 1069.53 146.48C1070.03 146.68 1070.45 146.987 1070.79 147.4C1071.15 147.813 1071.34 148.353 1071.35 149.02C1071.35 149.62 1071.19 150.16 1070.85 150.64C1070.52 151.12 1070.05 151.5 1069.43 151.78C1068.83 152.047 1068.14 152.18 1067.35 152.18ZM1076.68 138.06L1076.46 148.06H1074.94L1074.72 138.06H1076.68ZM1075.78 152.12C1075.43 152.12 1075.14 152 1074.9 151.76C1074.66 151.52 1074.54 151.227 1074.54 150.88C1074.54 150.533 1074.66 150.24 1074.9 150C1075.14 149.76 1075.43 149.64 1075.78 149.64C1076.11 149.64 1076.39 149.76 1076.62 150C1076.86 150.24 1076.98 150.533 1076.98 150.88C1076.98 151.227 1076.86 151.52 1076.62 151.76C1076.39 152 1076.11 152.12 1075.78 152.12Z" fill="#CACACA" fill-opacity="0.6"/>
<defs>
<linearGradient id="paint0_linear_348_71957" x1="804.884" y1="506" x2="804.884" y2="695.356" gradientUnits="userSpaceOnUse">
<stop stop-color="#5D0EDB"/>
<stop offset="1" stop-color="#A171E7"/>
</linearGradient>
<clipPath id="clip0_348_71957">
<rect width="42" height="42" fill="white" transform="matrix(-1 0 0 1 502 72)"/>
</clipPath>
<clipPath id="clip1_348_71957">
<rect width="42" height="42" fill="white" transform="translate(1038 72)"/>
</clipPath>
<clipPath id="clip2_348_71957">
<path d="M589 436.184H951.92V657.672C951.92 672.409 939.973 684.357 925.235 684.357H615.685C600.947 684.357 589 672.409 589 657.672V436.184Z" fill="white"/>
</clipPath>
</defs>
</svg>
