<svg width="26" height="33" viewBox="0 0 26 33" fill="none" xmlns="http://www.w3.org/2000/svg">
<path id="Vector" d="M24.6965 8.39525H20.4518C20.2045 6.04808 18.9639 3.87213 16.9814 2.30753H24.7027C25.4182 2.30753 26 1.79014 26 1.15376C26 0.517394 25.4182 0 24.7027 0L1.30383 0.0594927H1.17815C1.13355 0.0576901 1.08896 0.0576901 1.04436 0.0594927C1.00585 0.0667038 0.967332 0.0757174 0.928817 0.0883369L0.799083 0.124392L0.689619 0.180276L0.580154 0.230755L0.476772 0.30467L0.387577 0.373176C0.35717 0.400217 0.330815 0.432669 0.298382 0.465117C0.267976 0.497567 0.245679 0.515596 0.225409 0.544441H0.229463C0.205138 0.578693 0.184867 0.614747 0.166626 0.650804L0.109865 0.739141L0.0693231 0.859926V0.858124C0.0551333 0.890574 0.0449979 0.923021 0.0368895 0.955474C0.0348626 0.996937 0.0348626 1.0384 0.0368895 1.07986C0.0348626 1.11592 0.0348626 1.15378 0.0368895 1.18983C0.0348626 1.2331 0.0348626 1.27456 0.0368895 1.31603C0.0348626 1.35028 0.0348626 1.38633 0.0368895 1.42058C0.0470249 1.46385 0.0612138 1.50531 0.0794575 1.54678L0.109865 1.63872C0.13419 1.68379 0.162568 1.72525 0.192978 1.76671C0.201086 1.79015 0.213249 1.81178 0.229465 1.83161L0.33893 1.9524C0.33893 1.9524 0.369336 1.98845 0.391633 2.00287H0.389605C0.430147 2.03713 0.474742 2.06958 0.519339 2.10023L0.582177 2.1471V2.14529C0.632854 2.17414 0.683531 2.19757 0.738263 2.21921L0.801101 2.25166L0.957186 2.29312L1.04638 2.31656H1.04435C1.13152 2.33458 1.21869 2.3454 1.30787 2.3436H10.3384C12.2013 2.36703 13.9933 2.99441 15.3757 4.10669C16.7582 5.21901 17.6359 6.7423 17.8467 8.39002H1.29734C0.581779 8.39002 0 8.90741 0 9.54378C0 10.182 0.581779 10.6975 1.29734 10.6975H17.7533C17.433 12.2479 16.5168 13.6504 15.1627 14.6654C13.8086 15.6822 12.0998 16.2483 10.3281 16.2681H1.29755C0.813075 16.2807 0.375243 16.5313 0.162375 16.9189C-0.0504714 17.3065 -0.00182153 17.7662 0.286027 18.1141L12.9533 32.0691C13.1985 32.3414 13.5675 32.5 13.9607 32.5C14.4594 32.4964 14.9114 32.2386 15.1263 31.8384C15.3412 31.4364 15.2783 30.9623 14.9662 30.6161L4.01194 18.5754H10.3284C12.7812 18.552 15.1428 17.748 16.9853 16.3076C18.828 14.869 20.03 12.8896 20.3746 10.7298H24.6964C25.414 10.7298 25.9937 10.2124 25.9937 9.57603C25.9937 8.93966 25.414 8.42227 24.6964 8.42227L24.6965 8.39525Z" fill="black"/>
</svg>
