<svg width="34" height="38" viewBox="0 0 34 38" fill="none" xmlns="http://www.w3.org/2000/svg">
<g id="Frame 77">
<path id="Vector" fill-rule="evenodd" clip-rule="evenodd" d="M24.6326 7.6C24.6326 3.40263 21.6369 0 17.9416 0C14.2462 0 11.2505 3.40263 11.2505 7.6V12.16H5.22851C4.11987 12.16 3.22119 13.1808 3.22119 14.44V15.2C3.22119 15.6197 3.52075 15.96 3.8903 15.96C4.25985 15.96 4.55941 15.6197 4.55941 15.2V14.44C4.55941 14.0203 4.85897 13.68 5.22851 13.68H29.9855C30.7246 13.68 31.3237 14.3605 31.3237 15.2V34.96C31.3237 35.7995 30.7246 36.48 29.9855 36.48H5.22851C4.85897 36.48 4.55941 36.1397 4.55941 35.72V31.92C4.55941 31.5003 4.25985 31.16 3.8903 31.16C3.52075 31.16 3.22119 31.5003 3.22119 31.92V35.72C3.22119 36.9792 4.11987 38 5.22851 38H31.9928C33.1015 38 34.0001 36.9792 34.0001 35.72V14.44C34.0001 13.1808 33.1015 12.16 31.9928 12.16H24.6326V7.6ZM20.618 12.16V7.6C20.618 7.57454 20.6177 7.54923 20.6172 7.52415C20.5817 5.88027 19.3974 4.56 17.9416 4.56C16.4857 4.56 15.3014 5.88027 15.2659 7.52415C15.2654 7.54923 15.2651 7.57454 15.2651 7.6V12.16H20.618Z" fill="url(#paint0_linear_493_80270)"/>
<path id="Vector_2" fill-rule="evenodd" clip-rule="evenodd" d="M11.052 21.9194C11.2303 21.4517 11.3292 20.9352 11.3292 20.3922C11.3292 18.2836 9.83736 16.5742 7.9971 16.5742C6.28518 16.5742 4.87483 18.0534 4.68637 19.9571C4.27258 19.746 3.81435 19.6286 3.33212 19.6286C1.49185 19.6286 0 21.338 0 23.4466C0 25.5551 1.49185 27.2645 3.33212 27.2645C3.81435 27.2645 4.27258 27.1472 4.68637 26.936C4.87483 28.8397 6.28518 30.3189 7.9971 30.3189C9.83736 30.3189 11.3292 28.6095 11.3292 26.5009C11.3292 25.9579 11.2303 25.4414 11.052 24.9737H17.327V28.0281C17.327 28.4499 17.6254 28.7917 17.9935 28.7917C18.3615 28.7917 18.6599 28.4499 18.6599 28.0281V24.7694C19.0583 24.5054 19.3263 24.0118 19.3263 23.4466C19.3263 22.6031 18.7296 21.9194 17.9935 21.9194H11.052ZM8.66352 20.3922C8.66352 20.8139 8.36516 21.1558 7.9971 21.1558C7.62903 21.1558 7.33067 20.8139 7.33067 20.3922C7.33067 19.9705 7.62903 19.6286 7.9971 19.6286C8.36516 19.6286 8.66352 19.9705 8.66352 20.3922ZM3.33212 24.2102C3.70019 24.2102 3.99855 23.8683 3.99855 23.4466C3.99855 23.0248 3.70019 22.683 3.33212 22.683C2.96407 22.683 2.6657 23.0248 2.6657 23.4466C2.6657 23.8683 2.96407 24.2102 3.33212 24.2102ZM8.66352 26.5009C8.66352 26.9227 8.36516 27.2645 7.9971 27.2645C7.62903 27.2645 7.33067 26.9227 7.33067 26.5009C7.33067 26.0792 7.62903 25.7373 7.9971 25.7373C8.36516 25.7373 8.66352 26.0792 8.66352 26.5009Z" fill="url(#paint1_linear_493_80270)"/>
</g>
<defs>
<linearGradient id="paint0_linear_493_80270" x1="18.6107" y1="0" x2="18.6107" y2="38" gradientUnits="userSpaceOnUse">
<stop stop-color="#F2EAA0"/>
<stop offset="1" stop-color="#A3713F"/>
</linearGradient>
<linearGradient id="paint1_linear_493_80270" x1="9.66316" y1="16.5742" x2="9.66316" y2="30.3189" gradientUnits="userSpaceOnUse">
<stop stop-color="#F2EAA0"/>
<stop offset="1" stop-color="#A3713F"/>
</linearGradient>
</defs>
</svg>
