<svg width="38" height="38" viewBox="0 0 38 38" fill="none" xmlns="http://www.w3.org/2000/svg">
<g id="Pin">
<circle id="Back" cx="19" cy="19" r="19" fill="#DCD9FE"/>
<path id="Vector" d="M19.5 9C23.635 9 27 12.3883 27 16.5542C27 22.4733 20.205 28.585 19.9158 28.8417C19.7967 28.9475 19.6483 29 19.5 29C19.3517 29 19.2033 28.9475 19.0842 28.8425C18.795 28.585 12 22.4733 12 16.5542C12 12.3883 15.365 9 19.5 9ZM19.5 20.6667C21.7975 20.6667 23.6667 18.7975 23.6667 16.5C23.6667 14.2025 21.7975 12.3333 19.5 12.3333C17.2025 12.3333 15.3333 14.2025 15.3333 16.5C15.3333 18.7975 17.2025 20.6667 19.5 20.6667Z" fill="#0057FF"/>
</g>
</svg>
