<svg width="19" height="8" viewBox="0 0 19 8" fill="none" xmlns="http://www.w3.org/2000/svg">
<g id="Group">
<g id="Group_2">
<path id="Vector" d="M17.4108 3.18728H8.0043C7.61849 1.5889 6.18546 0.413086 4.47685 0.413086C2.45592 0.413086 0.820801 2.04821 0.820801 4.05077C0.820801 6.05333 2.45592 7.68845 4.45848 7.68845C6.16709 7.68845 7.60012 6.51263 7.98593 4.91426H12.7811V6.23705C12.7811 6.43915 12.9464 6.60449 13.1485 6.60449H14.0671C14.2692 6.60449 14.4345 6.43915 14.4345 6.23705V4.91426H15.4818V6.23705C15.4818 6.43915 15.6471 6.60449 15.8492 6.60449H16.7678C16.9699 6.60449 17.1353 6.43915 17.1353 6.23705V4.91426H17.4292C17.9069 4.91426 18.2927 4.52844 18.2927 4.05077C18.2743 3.57309 17.8885 3.18728 17.4108 3.18728ZM4.45848 5.96147C3.41127 5.96147 2.56615 5.09798 2.56615 4.05077C2.56615 3.00356 3.41127 2.14007 4.47685 2.14007C5.54244 2.14007 6.36918 3.00356 6.36918 4.05077C6.36918 5.09798 5.52407 5.96147 4.45848 5.96147Z" fill="url(#paint0_linear_1049_50343)"/>
</g>
</g>
<defs>
<linearGradient id="paint0_linear_1049_50343" x1="9.55675" y1="0.413086" x2="9.55675" y2="7.68845" gradientUnits="userSpaceOnUse">
<stop stop-color="#F8F3A8"/>
<stop offset="1" stop-color="#A06D3C"/>
</linearGradient>
</defs>
</svg>
