<svg width="19" height="26" viewBox="0 0 19 26" fill="none" xmlns="http://www.w3.org/2000/svg">
<path d="M16.4183 8.69615H15.6351C15.6351 7.34014 15.6061 5.39456 15.5481 5.0703C15.055 1.94558 12.7344 0 9.5145 0C6.32366 0 4.03206 1.9161 3.48092 4.98186C3.4229 5.36508 3.39389 7.31066 3.36489 8.69615H2.58168C1.16031 8.69615 0 10.0227 0 11.6735V23.0227C0 24.6735 1.16031 26 2.58168 26H16.4183C17.8397 26 19 24.6735 19 23.0227V11.6735C19 10.0522 17.8397 8.69615 16.4183 8.69615ZM11.7771 21.6077H7.25191L8.7313 17.8345C7.86107 17.5102 7.25191 16.6553 7.25191 15.6825C7.25191 14.415 8.26718 13.3832 9.5145 13.3832C10.7618 13.3832 11.7771 14.415 11.7771 15.6825C11.7771 16.6848 11.1679 17.5102 10.2977 17.8345L11.7771 21.6077ZM6.12061 8.69615C6.14962 7.42857 6.14962 5.77778 6.20763 5.42404C6.61374 3.09524 8.47023 2.77098 9.5145 2.77098C10.5878 2.77098 12.4443 3.12472 12.8504 5.48299C12.8794 5.80726 12.9084 7.42857 12.9084 8.69615H6.12061Z" fill="url(#paint0_linear_1049_78510)"/>
<defs>
<linearGradient id="paint0_linear_1049_78510" x1="9.5" y1="0" x2="9.5" y2="26" gradientUnits="userSpaceOnUse">
<stop stop-color="#F4EDA3"/>
<stop offset="1" stop-color="#A2713F"/>
</linearGradient>
</defs>
</svg>
