<svg width="95" height="59" viewBox="0 0 95 59" fill="none" xmlns="http://www.w3.org/2000/svg">
<g id="Group 97">
<path id="Vector" d="M92.4274 51.4295H6.79188C5.6771 51.4295 4.77344 50.5258 4.77344 49.411V42.6602H94.999V48.8579C94.999 50.278 93.8475 51.4295 92.4274 51.4295Z" fill="#399AEA"/>
<path id="Vector_2" d="M92.4269 51.4296H68.8086V15.8584H83.7755C84.5551 15.8584 85.3024 16.1707 85.8503 16.7252L94.1569 25.1344C94.6961 25.6803 94.9985 26.4165 94.9985 27.184V48.8582C94.9985 50.2782 93.8471 51.4296 92.4269 51.4296Z" fill="#61AFF6"/>
<path id="Vector_3" d="M94.1579 25.1344L85.8513 16.7252C85.3034 16.1705 84.5561 15.8584 83.7765 15.8584H73.7139C74.4935 15.8584 75.2408 16.1707 75.7887 16.7252L84.0953 25.1344C84.6345 25.6803 84.9369 26.4165 84.9369 27.184V51.4298H92.4279C93.8483 51.4298 94.9995 50.2784 94.9995 48.8582V27.1836C94.9995 26.4165 94.6971 25.6801 94.1579 25.1344Z" fill="#399AEA"/>
<path id="Vector_4" d="M73.8115 33.4906V22.4384C73.8115 21.7731 74.3508 21.2339 75.016 21.2339H82.4015C82.7234 21.2339 83.032 21.3629 83.2584 21.592L89.6495 28.0618C89.8722 28.2872 89.997 28.5913 89.997 28.9082V33.4906C89.997 34.1559 89.4577 34.6951 88.7925 34.6951H75.016C74.3508 34.6951 73.8115 34.1559 73.8115 33.4906Z" fill="#33D8DD"/>
<path id="Vector_5" d="M81.3081 58.4697C85.6738 58.4697 89.2129 54.9306 89.2129 50.5649C89.2129 46.1992 85.6738 42.6602 81.3081 42.6602C76.9424 42.6602 73.4033 46.1992 73.4033 50.5649C73.4033 54.9306 76.9424 58.4697 81.3081 58.4697Z" fill="#3D6687"/>
<path id="Vector_6" d="M81.308 53.6189C82.9947 53.6189 84.3621 52.2516 84.3621 50.5648C84.3621 48.8781 82.9947 47.5107 81.308 47.5107C79.6213 47.5107 78.2539 48.8781 78.2539 50.5648C78.2539 52.2516 79.6213 53.6189 81.308 53.6189Z" fill="#CCCBCA"/>
<path id="Vector_7" d="M67.3675 0H58.7471V46.4069H68.8097V1.4422C68.8095 0.645678 68.1638 0 67.3675 0Z" fill="#EDA558"/>
<path id="Vector_8" d="M20.5825 58.4697C24.9482 58.4697 28.4873 54.9306 28.4873 50.5649C28.4873 46.1992 24.9482 42.6602 20.5825 42.6602C16.2168 42.6602 12.6777 46.1992 12.6777 50.5649C12.6777 54.9306 16.2168 58.4697 20.5825 58.4697Z" fill="#3D6687"/>
<path id="Vector_9" d="M20.5824 53.6189C22.2692 53.6189 23.6365 52.2516 23.6365 50.5648C23.6365 48.8781 22.2692 47.5107 20.5824 47.5107C18.8957 47.5107 17.5283 48.8781 17.5283 50.5648C17.5283 52.2516 18.8957 53.6189 20.5824 53.6189Z" fill="#CCCBCA"/>
<g id="Group 96">
<path id="Vector_10" d="M0 46.4071H64.0356V1.4422C64.0356 0.645677 63.3899 0 62.5934 0L1.4422 0C0.645676 0 0 0.645677 0 1.4422L0 46.4071Z" fill="#FFC06C"/>
<path id="Vector_11" d="M38.105 16.5825H25.2503C24.6515 16.5825 24.166 16.097 24.166 15.4982V0L39.1893 0V15.4982C39.1893 16.0973 38.7038 16.5825 38.105 16.5825Z" fill="#FF4C4C"/>
<g id="Group">
<path id="Vector_12" d="M42.6387 40.4268H56.8776C57.6272 40.4268 58.235 39.8192 58.235 39.0694C58.235 38.3195 57.6272 37.7119 56.8776 37.7119H42.6387C41.889 37.7119 41.2812 38.3197 41.2812 39.0694C41.2812 39.819 41.8889 40.4268 42.6387 40.4268Z" fill="white"/>
<path id="Vector_13" d="M42.6387 32.5835H56.8776C57.6272 32.5835 58.235 31.9757 58.235 31.2261C58.235 30.4764 57.6272 29.8687 56.8776 29.8687H42.6387C41.889 29.8687 41.2812 30.4763 41.2812 31.2261C41.2812 31.9759 41.8889 32.5835 42.6387 32.5835Z" fill="white"/>
</g>
</g>
</g>
</svg>
