<svg width="20" height="23" viewBox="0 0 20 23" fill="none" xmlns="http://www.w3.org/2000/svg">
<g id="XMLID_3_">
<g id="XMLID_1_">
<g id="XMLID_21_">
<path id="XMLID_25_" d="M14.8557 5.82366C14.8557 5.95911 14.8509 6.09456 14.8412 6.23001C14.8363 6.29774 14.8291 6.36304 14.8218 6.43077C14.817 6.47189 14.8315 6.55896 14.8218 6.43319C14.8242 6.47431 14.8097 6.5251 14.8025 6.5638C14.7589 6.83228 14.6936 7.09835 14.609 7.35715C14.5679 7.48051 14.5219 7.60145 14.4759 7.71996C14.4348 7.82397 14.5219 7.62079 14.4735 7.72238C14.4614 7.75141 14.4469 7.78043 14.4348 7.80946C14.4034 7.87718 14.3719 7.94491 14.3357 8.01021C14.2196 8.23758 14.0865 8.45526 13.939 8.66328C13.9075 8.70923 13.8713 8.7818 13.8253 8.81566C13.91 8.75035 13.8519 8.7818 13.8229 8.81808C13.8035 8.84226 13.7842 8.86645 13.7624 8.89064C13.6753 8.99706 13.5834 9.09865 13.4867 9.1954C13.3996 9.28731 13.3077 9.37439 13.2134 9.45905C13.165 9.50016 13.119 9.5437 13.0707 9.5824C13.0465 9.60175 13.0223 9.62352 12.9981 9.64287C12.9812 9.65496 12.9642 9.66948 12.9473 9.68157C13.0029 9.63803 13.0102 9.6332 12.9691 9.66464C12.7635 9.81702 12.553 9.95731 12.3305 10.0782C12.2193 10.1411 12.1056 10.1968 11.9895 10.2524C11.9604 10.2669 11.9314 10.279 11.9024 10.2911C11.7984 10.3371 12.004 10.25 11.9 10.2935C11.8298 10.3225 11.7597 10.3491 11.6895 10.3758C11.4332 10.4677 11.1719 10.5402 10.9059 10.5934C10.8406 10.6055 10.7753 10.6176 10.71 10.6273C10.6809 10.6321 10.6422 10.6442 10.6108 10.6418C10.7075 10.6491 10.6785 10.6321 10.6398 10.637C10.4947 10.6515 10.3496 10.666 10.2044 10.6708C9.92144 10.6805 9.64328 10.666 9.36271 10.637C9.24661 10.6249 9.47397 10.6539 9.36029 10.637C9.32643 10.6321 9.29498 10.6273 9.26112 10.6225C9.19581 10.6128 9.13051 10.6007 9.06762 10.5862C8.92975 10.5572 8.79188 10.5233 8.65401 10.4846C8.53066 10.4483 8.4073 10.4096 8.28394 10.3637C8.23315 10.3443 8.18236 10.325 8.13398 10.3056C8.12431 10.3008 8.11463 10.2984 8.10496 10.2935C8.05658 10.2742 8.06626 10.2766 8.13156 10.3056C8.10012 10.3056 8.04207 10.2669 8.01546 10.2524C7.77359 10.1411 7.54139 10.0129 7.31886 9.8654C7.26565 9.83153 7.21244 9.79525 7.16164 9.75897C7.11569 9.72753 7.04312 9.69125 7.00926 9.64529C7.07457 9.72995 7.04313 9.6719 7.00684 9.64287C6.98266 9.62352 6.95847 9.60417 6.93428 9.5824C6.87865 9.53403 6.8206 9.48565 6.76739 9.43728C6.57872 9.26796 6.40458 9.08414 6.24252 8.89064C6.22317 8.86645 6.2014 8.84226 6.18205 8.81808C6.15303 8.7818 6.09256 8.75035 6.17963 8.81566C6.13609 8.7818 6.09981 8.70681 6.06595 8.66328C5.98613 8.55201 5.91115 8.43591 5.84101 8.3174C5.7757 8.20855 5.71281 8.09729 5.65718 7.98119C5.62816 7.92314 5.60155 7.86751 5.57252 7.80946C5.55801 7.78043 5.54592 7.75141 5.53382 7.72238C5.51206 7.67401 5.51689 7.68368 5.5435 7.74899C5.53624 7.72964 5.52657 7.71029 5.51931 7.68852C5.42256 7.44906 5.34274 7.19993 5.28227 6.94838C5.25083 6.82019 5.22423 6.69199 5.20488 6.56138C5.20004 6.52752 5.1952 6.49608 5.19036 6.46221C5.17343 6.34611 5.20246 6.57589 5.19036 6.45979C5.18311 6.38239 5.17343 6.30499 5.16859 6.22759C5.14683 5.94702 5.14924 5.66403 5.17101 5.38345C5.17585 5.31573 5.18311 5.25042 5.19036 5.18269C5.20246 5.06659 5.17343 5.29396 5.19036 5.18028C5.1952 5.14641 5.20004 5.11497 5.20488 5.08111C5.22906 4.94082 5.25567 4.80053 5.29195 4.66266C5.35484 4.41111 5.43707 4.1644 5.53382 3.92494C5.57494 3.82094 5.48787 4.02411 5.53624 3.92253C5.54834 3.8935 5.56285 3.86448 5.57494 3.83545C5.60155 3.7774 5.63058 3.71935 5.6596 3.66372C5.72249 3.54036 5.79021 3.41943 5.86036 3.30091C5.92566 3.19206 5.99581 3.08564 6.07079 2.98163C6.10223 2.93568 6.13851 2.86311 6.18447 2.82925C6.09981 2.89456 6.15786 2.86311 6.18689 2.82683C6.21349 2.79297 6.2401 2.76153 6.26671 2.73008C6.42876 2.53658 6.60775 2.35518 6.79641 2.18586C6.84479 2.14474 6.89074 2.10121 6.93912 2.06251C6.96331 2.04316 6.98749 2.02139 7.01168 2.00204C7.04796 1.97301 7.07941 1.91254 7.0141 1.99962C7.04796 1.95608 7.12294 1.9198 7.16648 1.88594C7.22695 1.8424 7.28742 1.80128 7.35031 1.76016C7.57283 1.61504 7.80745 1.48684 8.04932 1.378C8.06868 1.36832 8.11463 1.3393 8.1364 1.3393C8.11705 1.34656 8.0977 1.35623 8.08077 1.36349C8.10012 1.35623 8.11947 1.34656 8.14124 1.3393C8.19203 1.31995 8.24041 1.3006 8.2912 1.28125C8.42181 1.23287 8.55726 1.18934 8.69271 1.15064C8.81849 1.11436 8.94668 1.08533 9.07488 1.05872C9.14018 1.04663 9.20549 1.03454 9.26838 1.02244C9.30224 1.01761 9.33368 1.01277 9.36754 1.00793C9.42076 1.00067 9.41108 1.00067 9.33852 1.01277L9.40383 1.00551C9.6844 0.974069 9.96498 0.964394 10.248 0.976487C10.3762 0.981325 10.5044 0.993419 10.6326 1.00793C10.6761 1.01277 10.7317 0.998256 10.6205 1.00551C10.6495 1.00309 10.6882 1.01519 10.7196 1.02002C10.7946 1.03212 10.872 1.04663 10.947 1.06114C11.2131 1.11436 11.4743 1.18934 11.7282 1.28367C11.7887 1.30544 11.8492 1.32962 11.9072 1.35381C12.0112 1.39493 11.8081 1.30786 11.9097 1.35623C11.9387 1.36832 11.9677 1.38284 11.9967 1.39493C12.1225 1.45298 12.2459 1.51587 12.3668 1.58359C12.4781 1.64648 12.5869 1.71179 12.6933 1.78193C12.7369 1.81096 12.7804 1.83998 12.8239 1.87143C12.8772 1.90771 12.9642 1.95124 13.0029 2.00204C12.9376 1.91738 12.9691 1.97543 13.0053 2.00446C13.0295 2.02381 13.0537 2.04316 13.0779 2.06493C13.1263 2.10604 13.1747 2.14716 13.2206 2.18828C13.3222 2.28019 13.4214 2.37453 13.5157 2.47369C13.6028 2.56561 13.6874 2.65994 13.7697 2.75669C13.789 2.78088 13.8108 2.80506 13.8301 2.82925C13.8592 2.86553 13.9196 2.89698 13.8326 2.83167C13.8834 2.87037 13.9269 2.95744 13.9632 3.01066C14.1083 3.21867 14.2413 3.43878 14.355 3.66614C14.384 3.72419 14.4106 3.77982 14.4397 3.83787C14.4542 3.86689 14.4663 3.89592 14.4784 3.92494C14.5243 4.02895 14.4372 3.82336 14.4808 3.92736C14.5316 4.05798 14.5824 4.18859 14.6235 4.32162C14.7057 4.58043 14.771 4.84649 14.8122 5.11739C14.817 5.14641 14.8291 5.18511 14.8267 5.21656C14.8363 5.0932 14.8218 5.18028 14.8267 5.21898C14.8339 5.2867 14.8412 5.35201 14.846 5.41973C14.8484 5.55276 14.8533 5.68821 14.8557 5.82366C14.8557 6.07763 15.0782 6.31951 15.3394 6.30741C15.6007 6.29532 15.8232 6.09456 15.8232 5.82366C15.8184 4.63848 15.458 3.44845 14.7662 2.48095C14.0672 1.50378 13.1045 0.763637 11.9774 0.347612C10.8478 -0.0684128 9.57072 -0.107113 8.41456 0.221837C7.29951 0.538694 6.27396 1.19901 5.53624 2.09395C4.75982 3.03968 4.29542 4.18133 4.19867 5.40038C4.10434 6.59041 4.40185 7.81429 5.02105 8.83501C5.61848 9.81944 6.51826 10.637 7.57283 11.1111C8.70481 11.6214 9.9553 11.7665 11.1768 11.5247C12.3184 11.2973 13.3899 10.6999 14.1954 9.86056C15.0032 9.01883 15.5644 7.92798 15.7434 6.77181C15.7917 6.45738 15.8232 6.14052 15.8232 5.82366C15.8232 5.56969 15.6007 5.32782 15.3394 5.33991C15.0758 5.35201 14.8557 5.55276 14.8557 5.82366Z" fill="#B4B4B4"/>
</g>
</g>
<g id="XMLID_2_">
<g id="XMLID_15_">
<path id="XMLID_19_" d="M17.9711 22.0288C17.7631 22.0288 17.5575 22.0288 17.3495 22.0288C16.8004 22.0288 16.2489 22.0288 15.6999 22.0288C14.9138 22.0288 14.1277 22.0288 13.3416 22.0288C12.4249 22.0288 11.5106 22.0288 10.5939 22.0288C9.65541 22.0288 8.71935 22.0288 7.78088 22.0288C6.92706 22.0288 6.07324 22.0288 5.22184 22.0288C4.5591 22.0288 3.89878 22.0288 3.23605 22.0288C2.87323 22.0288 2.51042 22.0288 2.14519 22.0288C2.11375 22.0288 2.0823 22.0288 2.05086 22.0288C2.04602 22.0288 2.03877 22.0288 2.03393 22.0288C2.01216 22.0288 1.98797 22.0288 1.9662 22.0263C1.97104 22.0263 1.9009 22.0239 1.9009 22.0215C1.89848 22.0167 2.02667 22.0457 1.93234 22.0239C1.89122 22.0142 1.84768 22.0046 1.80656 21.9925C1.79205 21.9876 1.77512 21.978 1.76061 21.978C1.70014 21.9683 1.84043 22.0239 1.78721 21.9901C1.75577 21.9707 1.72191 21.9562 1.69046 21.9393C1.65902 21.9199 1.63 21.8981 1.59855 21.8788C1.5526 21.8522 1.63725 21.903 1.63483 21.9078C1.63242 21.9102 1.58162 21.8619 1.57678 21.857C1.55018 21.8328 1.52599 21.8038 1.5018 21.7772C1.44375 21.7192 1.54776 21.8546 1.49213 21.7627C1.47278 21.7313 1.45343 21.7022 1.43408 21.6684C1.4244 21.649 1.41473 21.6297 1.40505 21.6127C1.36877 21.5426 1.41715 21.6418 1.41715 21.6418C1.39538 21.6442 1.36877 21.4458 1.35668 21.4241C1.39054 21.487 1.36393 21.5063 1.36151 21.4555C1.36151 21.4337 1.3591 21.412 1.35668 21.3878C1.35668 21.3757 1.35668 21.3636 1.35668 21.3515C1.35668 21.3249 1.35668 21.3007 1.35668 21.2741C1.35668 20.4904 1.35668 19.7068 1.35668 18.9207C1.35668 18.8118 1.35668 18.7054 1.35668 18.5966C1.35668 18.3523 1.39538 18.1128 1.40021 17.8709C1.40021 17.8709 1.3857 17.9725 1.39296 17.9169C1.39538 17.8951 1.40021 17.8733 1.40263 17.8516C1.40747 17.8129 1.41473 17.7742 1.42198 17.7379C1.4365 17.6557 1.45101 17.5758 1.47036 17.496C1.50422 17.3412 1.54534 17.1888 1.5913 17.0389C1.63967 16.8841 1.6953 16.7341 1.75577 16.5842C1.78722 16.5043 1.71465 16.6785 1.76303 16.5672C1.77754 16.5334 1.79447 16.4995 1.80898 16.4656C1.84285 16.3931 1.87913 16.3205 1.91541 16.2504C2.06053 15.9722 2.22985 15.711 2.41609 15.457C2.46688 15.3893 2.35804 15.5272 2.42818 15.4425C2.45237 15.4135 2.47414 15.3845 2.49833 15.3554C2.54912 15.295 2.59992 15.2345 2.65313 15.1764C2.75955 15.0579 2.87082 14.9467 2.98692 14.8378C3.09818 14.7338 3.2167 14.6346 3.33522 14.5379C3.40052 14.4847 3.26265 14.5911 3.34973 14.5258C3.37875 14.504 3.4102 14.4823 3.43922 14.4605C3.50695 14.4121 3.57709 14.3637 3.64965 14.3178C3.90846 14.1485 4.18178 14.0058 4.46235 13.8776C4.53975 13.8413 4.3777 13.9114 4.47928 13.8703C4.51315 13.8558 4.54943 13.8413 4.58329 13.8292C4.66311 13.7978 4.74535 13.7687 4.82758 13.7421C4.97755 13.6937 5.12751 13.6502 5.28231 13.6139C5.43711 13.5776 5.59433 13.5462 5.75155 13.522C5.76848 13.5196 5.79992 13.5099 5.81685 13.5123C5.81927 13.5123 5.71527 13.5244 5.7709 13.5196C5.8096 13.5148 5.8483 13.5099 5.887 13.5075C5.97649 13.4978 6.06598 13.4906 6.15548 13.4857C6.3393 13.4761 6.52555 13.4785 6.70937 13.4785H8.74838H11.5178H13.3972H13.5399C13.7794 13.4785 14.0164 13.5172 14.2535 13.522C14.2535 13.522 14.1519 13.5075 14.2075 13.5148C14.2293 13.5172 14.251 13.522 14.2728 13.5244C14.3115 13.5293 14.3502 13.5365 14.3865 13.5438C14.4687 13.5583 14.5485 13.5728 14.6284 13.5922C14.7832 13.626 14.9355 13.6671 15.0855 13.7131C15.2403 13.7615 15.3903 13.8171 15.5402 13.8776C15.62 13.909 15.4459 13.8365 15.5572 13.8848C15.591 13.8993 15.6249 13.9163 15.6588 13.9308C15.7313 13.9646 15.8039 14.0009 15.874 14.0372C16.1522 14.1823 16.4134 14.3516 16.6674 14.5379C16.7351 14.5887 16.5972 14.4798 16.6819 14.55C16.7109 14.5742 16.7399 14.5959 16.769 14.6201C16.8294 14.6709 16.8899 14.7217 16.9479 14.7749C17.0665 14.8814 17.1777 14.9926 17.2866 15.1087C17.3906 15.22 17.4897 15.3385 17.5865 15.457C17.6397 15.5223 17.5333 15.3845 17.5986 15.4715C17.6204 15.5006 17.6421 15.532 17.6639 15.561C17.7123 15.6287 17.7606 15.6989 17.8066 15.7715C17.9759 16.0303 18.1186 16.3036 18.2468 16.5842C18.2831 16.6616 18.2129 16.4995 18.2541 16.6011C18.2686 16.6349 18.2831 16.6712 18.2952 16.7051C18.3266 16.7849 18.3557 16.8671 18.3823 16.9494C18.4306 17.0993 18.4742 17.2493 18.5105 17.4041C18.5467 17.5589 18.5782 17.7161 18.6024 17.8733C18.6048 17.8903 18.6145 17.9217 18.612 17.9387C18.612 17.9411 18.6 17.8371 18.6048 17.8927C18.6096 17.9314 18.6145 17.9701 18.6169 18.0088C18.6266 18.0983 18.6338 18.1878 18.6386 18.2773C18.6532 18.5627 18.6459 18.8481 18.6459 19.1335C18.6459 19.8712 18.6532 20.609 18.6459 21.3467V21.3902C18.6459 21.4071 18.6362 21.5378 18.6435 21.4579C18.6507 21.3781 18.6314 21.5015 18.6266 21.5208C18.6241 21.5305 18.5951 21.6442 18.5879 21.6418C18.5806 21.6418 18.6362 21.5523 18.6048 21.5982C18.5975 21.6103 18.5903 21.6272 18.583 21.6418C18.5637 21.678 18.5419 21.7143 18.5201 21.7506C18.5129 21.7627 18.5008 21.7748 18.4935 21.7893C18.4645 21.8425 18.5564 21.724 18.5105 21.7651C18.4839 21.7893 18.4621 21.8207 18.4355 21.8449C18.4234 21.857 18.4113 21.8667 18.4016 21.8764C18.3968 21.8788 18.3944 21.8836 18.3895 21.8861C18.3581 21.9127 18.3581 21.9127 18.3895 21.8885C18.4016 21.8594 18.421 21.8667 18.3895 21.8885C18.3726 21.9006 18.3557 21.9127 18.3363 21.9223C18.3049 21.9417 18.2734 21.9586 18.2396 21.9755C18.1452 22.0263 18.3049 21.9586 18.2226 21.9828C18.1863 21.9925 18.1525 22.0046 18.1138 22.0142C18.0969 22.0191 18.0823 22.0215 18.0654 22.0239C17.9711 22.0457 18.0993 22.0167 18.0968 22.0215C18.0993 22.0312 17.9856 22.0288 17.9711 22.0288C17.7171 22.0312 17.4752 22.2489 17.4873 22.5125C17.4994 22.7713 17.7002 23.0011 17.9711 22.9963C18.8442 22.9842 19.5384 22.3142 19.611 21.4507C19.6328 21.1846 19.6158 20.9113 19.6158 20.6452C19.6158 19.9099 19.6328 19.1746 19.6134 18.4393C19.5795 17.0389 19.0595 15.6989 18.1573 14.6322C17.2962 13.6115 16.0651 12.8835 14.7541 12.6271C14.1132 12.5013 13.477 12.5061 12.8288 12.5061C11.9992 12.5061 11.1671 12.5061 10.3375 12.5061C9.43772 12.5061 8.53795 12.5061 7.63575 12.5061C7.17377 12.5061 6.71179 12.494 6.24981 12.511C4.85419 12.5618 3.51904 13.0939 2.46205 14.0058C1.45101 14.8789 0.735059 16.1173 0.493184 17.4331C0.335965 18.2821 0.38434 19.1553 0.38434 20.0139V21.2015C0.38434 21.308 0.38434 21.412 0.396433 21.5184C0.447227 21.9272 0.626215 22.3214 0.947909 22.5899C1.27202 22.8608 1.6566 22.9987 2.07988 22.9987H2.41851H3.9133H6.21353H8.96365H11.8468H14.5002H16.6069H17.8114H17.9687C18.2226 22.9987 18.4645 22.7762 18.4524 22.5149C18.4427 22.2489 18.242 22.0288 17.9711 22.0288Z" fill="#B4B4B4"/>
</g>
</g>
</g>
</svg>
