<svg width="21" height="23" viewBox="0 0 21 23" fill="none" xmlns="http://www.w3.org/2000/svg">
<g id="XMLID_3_">
<g id="XMLID_1_">
<g id="XMLID_21_">
<path id="XMLID_25_" d="M15.3558 5.82366C15.3558 5.95911 15.351 6.09456 15.3413 6.23001C15.3365 6.29774 15.3292 6.36304 15.3219 6.43077C15.3171 6.47189 15.3316 6.55896 15.3219 6.43319C15.3244 6.47431 15.3099 6.5251 15.3026 6.5638C15.2591 6.83228 15.1938 7.09835 15.1091 7.35715C15.068 7.48051 15.022 7.60145 14.9761 7.71996C14.9349 7.82397 15.022 7.62079 14.9736 7.72238C14.9616 7.75141 14.947 7.78043 14.9349 7.80946C14.9035 7.87718 14.8721 7.94491 14.8358 8.01021C14.7197 8.23758 14.5866 8.45526 14.4391 8.66328C14.4077 8.70923 14.3714 8.7818 14.3254 8.81566C14.4101 8.75035 14.352 8.7818 14.323 8.81808C14.3037 8.84226 14.2843 8.86645 14.2625 8.89064C14.1755 8.99706 14.0835 9.09865 13.9868 9.1954C13.8997 9.28731 13.8078 9.37439 13.7135 9.45905C13.6651 9.50016 13.6191 9.5437 13.5708 9.5824C13.5466 9.60175 13.5224 9.62352 13.4982 9.64287C13.4813 9.65496 13.4643 9.66948 13.4474 9.68157C13.503 9.63803 13.5103 9.6332 13.4692 9.66464C13.2636 9.81702 13.0532 9.95731 12.8306 10.0782C12.7194 10.1411 12.6057 10.1968 12.4896 10.2524C12.4606 10.2669 12.4315 10.279 12.4025 10.2911C12.2985 10.3371 12.5041 10.25 12.4001 10.2935C12.33 10.3225 12.2598 10.3491 12.1897 10.3758C11.9333 10.4677 11.6721 10.5402 11.406 10.5934C11.3407 10.6055 11.2754 10.6176 11.2101 10.6273C11.181 10.6321 11.1423 10.6442 11.1109 10.6418C11.2077 10.6491 11.1786 10.6321 11.1399 10.637C10.9948 10.6515 10.8497 10.666 10.7046 10.6708C10.4216 10.6805 10.1434 10.666 9.86283 10.637C9.74673 10.6249 9.97409 10.6539 9.86041 10.637C9.82655 10.6321 9.7951 10.6273 9.76124 10.6225C9.69593 10.6128 9.63063 10.6007 9.56774 10.5862C9.42987 10.5572 9.292 10.5233 9.15413 10.4846C9.03078 10.4483 8.90742 10.4096 8.78407 10.3637C8.73327 10.3443 8.68248 10.325 8.6341 10.3056C8.62443 10.3008 8.61475 10.2984 8.60508 10.2935C8.5567 10.2742 8.56638 10.2766 8.63169 10.3056C8.60024 10.3056 8.54219 10.2669 8.51558 10.2524C8.27371 10.1411 8.04151 10.0129 7.81898 9.8654C7.76577 9.83153 7.71256 9.79525 7.66177 9.75897C7.61581 9.72753 7.54325 9.69125 7.50938 9.64529C7.57469 9.72995 7.54325 9.6719 7.50697 9.64287C7.48278 9.62352 7.45859 9.60417 7.4344 9.5824C7.37877 9.53403 7.32072 9.48565 7.26751 9.43728C7.07885 9.26796 6.9047 9.08414 6.74264 8.89064C6.72329 8.86645 6.70152 8.84226 6.68217 8.81808C6.65315 8.7818 6.59268 8.75035 6.67975 8.81566C6.63622 8.7818 6.59993 8.70681 6.56607 8.66328C6.48625 8.55201 6.41127 8.43591 6.34113 8.3174C6.27582 8.20855 6.21293 8.09729 6.1573 7.98119C6.12828 7.92314 6.10167 7.86751 6.07265 7.80946C6.05813 7.78043 6.04604 7.75141 6.03395 7.72238C6.01218 7.67401 6.01702 7.68368 6.04362 7.74899C6.03637 7.72964 6.02669 7.71029 6.01943 7.68852C5.92268 7.44906 5.84287 7.19993 5.7824 6.94838C5.75095 6.82019 5.72435 6.69199 5.705 6.56138C5.70016 6.52752 5.69532 6.49608 5.69048 6.46221C5.67355 6.34611 5.70258 6.57589 5.69048 6.45979C5.68323 6.38239 5.67355 6.30499 5.66872 6.22759C5.64695 5.94702 5.64937 5.66403 5.67113 5.38345C5.67597 5.31573 5.68323 5.25042 5.69048 5.18269C5.70258 5.06659 5.67355 5.29396 5.69048 5.18028C5.69532 5.14641 5.70016 5.11497 5.705 5.08111C5.72918 4.94082 5.75579 4.80053 5.79207 4.66266C5.85496 4.41111 5.9372 4.1644 6.03395 3.92494C6.07507 3.82094 5.98799 4.02411 6.03637 3.92253C6.04846 3.8935 6.06297 3.86448 6.07507 3.83545C6.10167 3.7774 6.1307 3.71935 6.15972 3.66372C6.22261 3.54036 6.29033 3.41943 6.36048 3.30091C6.42578 3.19206 6.49593 3.08564 6.57091 2.98163C6.60235 2.93568 6.63863 2.86311 6.68459 2.82925C6.59993 2.89456 6.65798 2.86311 6.68701 2.82683C6.71362 2.79297 6.74022 2.76153 6.76683 2.73008C6.92888 2.53658 7.10787 2.35518 7.29653 2.18586C7.34491 2.14474 7.39087 2.10121 7.43924 2.06251C7.46343 2.04316 7.48762 2.02139 7.5118 2.00204C7.54808 1.97301 7.57953 1.91254 7.51422 1.99962C7.54808 1.95608 7.62307 1.9198 7.6666 1.88594C7.72707 1.8424 7.78754 1.80128 7.85043 1.76016C8.07295 1.61504 8.30757 1.48684 8.54945 1.378C8.5688 1.36832 8.61475 1.3393 8.63652 1.3393C8.61717 1.34656 8.59782 1.35623 8.58089 1.36349C8.60024 1.35623 8.61959 1.34656 8.64136 1.3393C8.69215 1.31995 8.74053 1.3006 8.79132 1.28125C8.92193 1.23287 9.05738 1.18934 9.19283 1.15064C9.31861 1.11436 9.4468 1.08533 9.575 1.05872C9.6403 1.04663 9.70561 1.03454 9.7685 1.02244C9.80236 1.01761 9.8338 1.01277 9.86767 1.00793C9.92088 1.00067 9.9112 1.00067 9.83864 1.01277L9.90395 1.00551C10.1845 0.974069 10.4651 0.964394 10.7481 0.976487C10.8763 0.981325 11.0045 0.993419 11.1327 1.00793C11.1762 1.01277 11.2318 0.998256 11.1206 1.00551C11.1496 1.00309 11.1883 1.01519 11.2197 1.02002C11.2947 1.03212 11.3721 1.04663 11.4471 1.06114C11.7132 1.11436 11.9744 1.18934 12.2284 1.28367C12.2888 1.30544 12.3493 1.32962 12.4074 1.35381C12.5114 1.39493 12.3082 1.30786 12.4098 1.35623C12.4388 1.36832 12.4678 1.38284 12.4968 1.39493C12.6226 1.45298 12.746 1.51587 12.8669 1.58359C12.9782 1.64648 13.087 1.71179 13.1934 1.78193C13.237 1.81096 13.2805 1.83998 13.3241 1.87143C13.3773 1.90771 13.4643 1.95124 13.503 2.00204C13.4377 1.91738 13.4692 1.97543 13.5055 2.00446C13.5297 2.02381 13.5538 2.04316 13.578 2.06493C13.6264 2.10604 13.6748 2.14716 13.7207 2.18828C13.8223 2.28019 13.9215 2.37453 14.0158 2.47369C14.1029 2.56561 14.1876 2.65994 14.2698 2.75669C14.2891 2.78088 14.3109 2.80506 14.3303 2.82925C14.3593 2.86553 14.4198 2.89698 14.3327 2.83167C14.3835 2.87037 14.427 2.95744 14.4633 3.01066C14.6084 3.21867 14.7414 3.43878 14.8551 3.66614C14.8842 3.72419 14.9108 3.77982 14.9398 3.83787C14.9543 3.86689 14.9664 3.89592 14.9785 3.92494C15.0244 4.02895 14.9374 3.82336 14.9809 3.92736C15.0317 4.05798 15.0825 4.18859 15.1236 4.32162C15.2058 4.58043 15.2712 4.84649 15.3123 5.11739C15.3171 5.14641 15.3292 5.18511 15.3268 5.21656C15.3365 5.0932 15.3219 5.18028 15.3268 5.21898C15.334 5.2867 15.3413 5.35201 15.3461 5.41973C15.3486 5.55276 15.3534 5.68821 15.3558 5.82366C15.3558 6.07763 15.5783 6.31951 15.8396 6.30741C16.1008 6.29532 16.3233 6.09456 16.3233 5.82366C16.3185 4.63848 15.9581 3.44845 15.2663 2.48095C14.5673 1.50378 13.6046 0.763637 12.4775 0.347612C11.3479 -0.0684128 10.0708 -0.107113 8.91468 0.221837C7.79963 0.538694 6.77408 1.19901 6.03637 2.09395C5.25995 3.03968 4.79555 4.18133 4.6988 5.40038C4.60447 6.59041 4.90197 7.81429 5.52117 8.83501C6.1186 9.81944 7.01838 10.637 8.07295 11.1111C9.20493 11.6214 10.4554 11.7665 11.6769 11.5247C12.8185 11.2973 13.89 10.6999 14.6955 9.86056C15.5034 9.01883 16.0645 7.92798 16.2435 6.77181C16.2919 6.45738 16.3233 6.14052 16.3233 5.82366C16.3233 5.56969 16.1008 5.32782 15.8396 5.33991C15.5759 5.35201 15.3558 5.55276 15.3558 5.82366Z" fill="white"/>
</g>
</g>
<g id="XMLID_2_">
<g id="XMLID_15_">
<path id="XMLID_19_" d="M18.4712 22.0288C18.2632 22.0288 18.0576 22.0288 17.8496 22.0288C17.3005 22.0288 16.749 22.0288 16.2 22.0288C15.4139 22.0288 14.6278 22.0288 13.8417 22.0288C12.925 22.0288 12.0107 22.0288 11.094 22.0288C10.1555 22.0288 9.21948 22.0288 8.281 22.0288C7.42718 22.0288 6.57336 22.0288 5.72196 22.0288C5.05923 22.0288 4.39891 22.0288 3.73617 22.0288C3.37336 22.0288 3.01054 22.0288 2.64531 22.0288C2.61387 22.0288 2.58242 22.0288 2.55098 22.0288C2.54614 22.0288 2.53889 22.0288 2.53405 22.0288C2.51228 22.0288 2.48809 22.0288 2.46632 22.0263C2.47116 22.0263 2.40102 22.0239 2.40102 22.0215C2.3986 22.0167 2.52679 22.0457 2.43246 22.0239C2.39134 22.0142 2.34781 22.0046 2.30669 21.9925C2.29217 21.9876 2.27524 21.978 2.26073 21.978C2.20026 21.9683 2.34055 22.0239 2.28734 21.9901C2.25589 21.9707 2.22203 21.9562 2.19059 21.9393C2.15914 21.9199 2.13012 21.8981 2.09867 21.8788C2.05272 21.8522 2.13737 21.903 2.13496 21.9078C2.13254 21.9102 2.08174 21.8619 2.07691 21.857C2.0503 21.8328 2.02611 21.8038 2.00192 21.7772C1.94387 21.7192 2.04788 21.8546 1.99225 21.7627C1.9729 21.7313 1.95355 21.7022 1.9342 21.6684C1.92452 21.649 1.91485 21.6297 1.90517 21.6127C1.86889 21.5426 1.91727 21.6418 1.91727 21.6418C1.8955 21.6442 1.86889 21.4458 1.8568 21.4241C1.89066 21.487 1.86406 21.5063 1.86164 21.4555C1.86164 21.4337 1.85922 21.412 1.8568 21.3878C1.8568 21.3757 1.8568 21.3636 1.8568 21.3515C1.8568 21.3249 1.8568 21.3007 1.8568 21.2741C1.8568 20.4904 1.8568 19.7068 1.8568 18.9207C1.8568 18.8118 1.8568 18.7054 1.8568 18.5966C1.8568 18.3523 1.8955 18.1128 1.90034 17.8709C1.90034 17.8709 1.88582 17.9725 1.89308 17.9169C1.8955 17.8951 1.90034 17.8733 1.90276 17.8516C1.90759 17.8129 1.91485 17.7742 1.92211 17.7379C1.93662 17.6557 1.95113 17.5758 1.97048 17.496C2.00434 17.3412 2.04546 17.1888 2.09142 17.0389C2.13979 16.8841 2.19542 16.7341 2.25589 16.5842C2.28734 16.5043 2.21477 16.6785 2.26315 16.5672C2.27766 16.5334 2.29459 16.4995 2.30911 16.4656C2.34297 16.3931 2.37925 16.3205 2.41553 16.2504C2.56066 15.9722 2.72997 15.711 2.91621 15.457C2.96701 15.3893 2.85816 15.5272 2.92831 15.4425C2.95249 15.4135 2.97426 15.3845 2.99845 15.3554C3.04924 15.295 3.10004 15.2345 3.15325 15.1764C3.25967 15.0579 3.37094 14.9467 3.48704 14.8378C3.5983 14.7338 3.71682 14.6346 3.83534 14.5379C3.90064 14.4847 3.76277 14.5911 3.84985 14.5258C3.87888 14.504 3.91032 14.4823 3.93934 14.4605C4.00707 14.4121 4.07721 14.3637 4.14977 14.3178C4.40858 14.1485 4.6819 14.0058 4.96247 13.8776C5.03988 13.8413 4.87782 13.9114 4.97941 13.8703C5.01327 13.8558 5.04955 13.8413 5.08341 13.8292C5.16323 13.7978 5.24547 13.7687 5.32771 13.7421C5.47767 13.6937 5.62763 13.6502 5.78243 13.6139C5.93723 13.5776 6.09445 13.5462 6.25167 13.522C6.2686 13.5196 6.30004 13.5099 6.31698 13.5123C6.31939 13.5123 6.21539 13.5244 6.27102 13.5196C6.30972 13.5148 6.34842 13.5099 6.38712 13.5075C6.47661 13.4978 6.56611 13.4906 6.6556 13.4857C6.83943 13.4761 7.02567 13.4785 7.20949 13.4785H9.2485H12.018H13.8973H14.04C14.2795 13.4785 14.5165 13.5172 14.7536 13.522C14.7536 13.522 14.652 13.5075 14.7076 13.5148C14.7294 13.5172 14.7512 13.522 14.7729 13.5244C14.8116 13.5293 14.8503 13.5365 14.8866 13.5438C14.9688 13.5583 15.0487 13.5728 15.1285 13.5922C15.2833 13.626 15.4357 13.6671 15.5856 13.7131C15.7404 13.7615 15.8904 13.8171 16.0404 13.8776C16.1202 13.909 15.946 13.8365 16.0573 13.8848C16.0911 13.8993 16.125 13.9163 16.1589 13.9308C16.2314 13.9646 16.304 14.0009 16.3741 14.0372C16.6523 14.1823 16.9135 14.3516 17.1675 14.5379C17.2352 14.5887 17.0973 14.4798 17.182 14.55C17.211 14.5742 17.2401 14.5959 17.2691 14.6201C17.3295 14.6709 17.39 14.7217 17.4481 14.7749C17.5666 14.8814 17.6778 14.9926 17.7867 15.1087C17.8907 15.22 17.9899 15.3385 18.0866 15.457C18.1398 15.5223 18.0334 15.3845 18.0987 15.4715C18.1205 15.5006 18.1422 15.532 18.164 15.561C18.2124 15.6287 18.2608 15.6989 18.3067 15.7715C18.476 16.0303 18.6187 16.3036 18.7469 16.5842C18.7832 16.6616 18.7131 16.4995 18.7542 16.6011C18.7687 16.6349 18.7832 16.6712 18.7953 16.7051C18.8268 16.7849 18.8558 16.8671 18.8824 16.9494C18.9308 17.0993 18.9743 17.2493 19.0106 17.4041C19.0469 17.5589 19.0783 17.7161 19.1025 17.8733C19.1049 17.8903 19.1146 17.9217 19.1122 17.9387C19.1122 17.9411 19.1001 17.8371 19.1049 17.8927C19.1097 17.9314 19.1146 17.9701 19.117 18.0088C19.1267 18.0983 19.1339 18.1878 19.1388 18.2773C19.1533 18.5627 19.146 18.8481 19.146 19.1335C19.146 19.8712 19.1533 20.609 19.146 21.3467V21.3902C19.146 21.4071 19.1364 21.5378 19.1436 21.4579C19.1509 21.3781 19.1315 21.5015 19.1267 21.5208C19.1243 21.5305 19.0952 21.6442 19.088 21.6418C19.0807 21.6418 19.1364 21.5523 19.1049 21.5982C19.0977 21.6103 19.0904 21.6272 19.0831 21.6418C19.0638 21.678 19.042 21.7143 19.0203 21.7506C19.013 21.7627 19.0009 21.7748 18.9936 21.7893C18.9646 21.8425 19.0565 21.724 19.0106 21.7651C18.984 21.7893 18.9622 21.8207 18.9356 21.8449C18.9235 21.857 18.9114 21.8667 18.9017 21.8764C18.8969 21.8788 18.8945 21.8836 18.8896 21.8861C18.8582 21.9127 18.8582 21.9127 18.8896 21.8885C18.9017 21.8594 18.9211 21.8667 18.8896 21.8885C18.8727 21.9006 18.8558 21.9127 18.8364 21.9223C18.805 21.9417 18.7735 21.9586 18.7397 21.9755C18.6453 22.0263 18.805 21.9586 18.7227 21.9828C18.6865 21.9925 18.6526 22.0046 18.6139 22.0142C18.597 22.0191 18.5825 22.0215 18.5655 22.0239C18.4712 22.0457 18.5994 22.0167 18.597 22.0215C18.5994 22.0312 18.4857 22.0288 18.4712 22.0288C18.2172 22.0312 17.9754 22.2489 17.9874 22.5125C17.9995 22.7713 18.2003 23.0011 18.4712 22.9963C19.3444 22.9842 20.0385 22.3142 20.1111 21.4507C20.1329 21.1846 20.1159 20.9113 20.1159 20.6452C20.1159 19.9099 20.1329 19.1746 20.1135 18.4393C20.0797 17.0389 19.5596 15.6989 18.6574 14.6322C17.7964 13.6115 16.5652 12.8835 15.2543 12.6271C14.6133 12.5013 13.9772 12.5061 13.3289 12.5061C12.4993 12.5061 11.6673 12.5061 10.8376 12.5061C9.93785 12.5061 9.03807 12.5061 8.13588 12.5061C7.67389 12.5061 7.21191 12.494 6.74993 12.511C5.35431 12.5618 4.01916 13.0939 2.96217 14.0058C1.95113 14.8789 1.23518 16.1173 0.993306 17.4331C0.836087 18.2821 0.884462 19.1553 0.884462 20.0139V21.2015C0.884462 21.308 0.884462 21.412 0.896556 21.5184C0.947349 21.9272 1.12634 22.3214 1.44803 22.5899C1.77214 22.8608 2.15672 22.9987 2.58001 22.9987H2.91863H4.41342H6.71365H9.46377H12.3469H15.0003H17.107H18.3116H18.4688C18.7227 22.9987 18.9646 22.7762 18.9525 22.5149C18.9429 22.2489 18.7421 22.0288 18.4712 22.0288Z" fill="white"/>
</g>
</g>
</g>
</svg>
