<svg width="36" height="28" viewBox="0 0 36 28" fill="none" xmlns="http://www.w3.org/2000/svg">
<g id="Love">
<path id="Vector" d="M10.5428 3.24534e-05C7.40841 3.24534e-05 3.77287 1.34439 1.9022 4.1373C-0.292038 7.41118 0.0678501 12.4887 3.1309 16.7505C6.18287 20.9986 11.9587 24.4879 17.5378 27.8698L17.541 27.8712C17.6726 27.9534 17.8295 27.9973 17.9897 27.9986L18.0293 28C18.061 27.9986 18.0943 27.9959 18.126 27.9918H18.1276C18.2449 27.974 18.3591 27.9342 18.459 27.8726L18.4605 27.8712C24.0397 24.4877 29.8169 20.9985 32.8691 16.7504C35.9322 12.4886 36.292 7.41255 34.0978 4.13726C32.2269 1.34439 28.5901 0 25.4555 0C24.88 0 24.3171 0.0438532 23.7765 0.135671C21.3508 0.545433 19.5433 1.87334 17.9993 3.389C16.4567 1.87197 14.6493 0.545398 12.2237 0.135671C11.6831 0.0438532 11.1202 0 10.5463 0H10.5447L10.5428 3.24534e-05Z" fill="#222222"/>
</g>
</svg>
