<svg width="54" height="54" viewBox="0 0 54 54" fill="none" xmlns="http://www.w3.org/2000/svg">
<g id="Youtube">
<circle id="Ellipse 7" cx="27.1506" cy="26.6911" r="26.4977" stroke="black" stroke-width="0.387737"/>
<g id="Group 35">
<path id="Vector" d="M32.2697 26.1732L23.3324 21.6092C23.1521 21.5173 22.9365 21.5254 22.7643 21.6313C22.5918 21.7368 22.4863 21.9248 22.4863 22.1272V31.2549C22.4863 31.4573 22.5914 31.6454 22.7643 31.7508C22.8574 31.8074 22.9625 31.8365 23.0679 31.8365C23.1583 31.8365 23.249 31.8152 23.3324 31.7729L32.2697 27.2089C32.4643 27.1096 32.5865 26.9096 32.5865 26.6909C32.5865 26.4722 32.4643 26.2725 32.2697 26.1732ZM23.6495 30.305V23.0776L30.7265 26.6913L23.6495 30.305Z" fill="black"/>
<path id="Vector_2" d="M36.2381 17.5684H18.0621C16.2568 17.5684 14.7881 19.0375 14.7881 20.8428V32.5393C14.7881 34.345 16.2568 35.8137 18.0621 35.8137H36.2385C38.0442 35.8137 39.5129 34.345 39.5129 32.5393V20.8428C39.5129 19.0371 38.0442 17.5684 36.2381 17.5684ZM38.3497 32.5393C38.3497 33.7036 37.4028 34.6505 36.2385 34.6505H18.0621C16.8982 34.6505 15.9513 33.7036 15.9513 32.5393V20.8428C15.9513 19.6788 16.8982 18.7316 18.0621 18.7316H36.2385C37.4028 18.7316 38.3497 19.6788 38.3497 20.8428V32.5393Z" fill="black"/>
</g>
</g>
</svg>
